999
"DXF R12 Output" (www.mydxf.blogspot.com)
 0 
SECTION
 2 
HEADER
 9 
$ACADVER
 1 
AC1009
 9 
$EXTMIN
 10 
 0 
 20 
 0 
 9 
$EXTMAX
 10 
 8.5 
 20 
 11 
 0 
ENDSEC
 0 
SECTION
 2 
ENTITIES
0
POLYLINE
8
Layer 1
62
7
70
0
10
0.000000
20
0.000000
66
1
0
VERTEX
8
Layer 1
10
37.540442
20
2.525609
70
0
0
VERTEX
8
Layer 1
10
36.647160
20
2.673690
70
0
0
VERTEX
8
Layer 1
10
35.130734
20
2.971955
70
0
0
VERTEX
8
Layer 1
10
34.359633
20
2.901966
70
0
0
VERTEX
8
Layer 1
10
33.536257
20
2.652196
70
0
0
VERTEX
8
Layer 1
10
32.224544
20
2.307821
70
0
0
VERTEX
8
Layer 1
10
30.911347
20
2.325236
70
0
0
VERTEX
8
Layer 1
10
29.636098
20
2.705164
70
0
0
VERTEX
8
Layer 1
10
28.438228
20
3.448331
70
0
0
VERTEX
8
Layer 1
10
27.956428
20
3.731069
70
0
0
VERTEX
8
Layer 1
10
27.459169
20
3.857237
70
0
0
VERTEX
8
Layer 1
10
26.433055
20
3.887455
70
0
0
VERTEX
8
Layer 1
10
19.638893
20
4.098408
70
0
0
VERTEX
8
Layer 1
10
16.259431
20
4.419280
70
0
0
VERTEX
8
Layer 1
10
12.898585
20
4.960482
70
0
0
VERTEX
8
Layer 1
10
11.554702
20
5.356182
70
0
0
VERTEX
8
Layer 1
10
10.591826
20
5.929546
70
0
0
VERTEX
8
Layer 1
10
9.986717
20
6.686049
70
0
0
VERTEX
8
Layer 1
10
9.716133
20
7.631165
70
0
0
VERTEX
8
Layer 1
10
9.795247
20
8.797744
70
0
0
VERTEX
8
Layer 1
10
10.284610
20
9.835081
70
0
0
VERTEX
8
Layer 1
10
11.171823
20
10.709846
70
0
0
VERTEX
8
Layer 1
10
12.444484
20
11.388708
70
0
0
VERTEX
8
Layer 1
10
15.117278
20
12.206506
70
0
0
VERTEX
8
Layer 1
10
17.830338
20
12.618360
70
0
0
VERTEX
8
Layer 1
10
20.577213
20
12.662550
70
0
0
VERTEX
8
Layer 1
10
23.351448
20
12.377353
70
0
0
VERTEX
8
Layer 1
10
28.359524
20
11.474781
70
0
0
VERTEX
8
Layer 1
10
28.879671
20
14.238320
70
0
0
VERTEX
8
Layer 1
10
29.769639
20
16.818557
70
0
0
VERTEX
8
Layer 1
10
29.296983
20
17.054321
70
0
0
VERTEX
8
Layer 1
10
28.842630
20
17.131132
70
0
0
VERTEX
8
Layer 1
10
27.984608
20
17.126912
70
0
0
VERTEX
8
Layer 1
10
27.041687
20
17.284351
70
0
0
VERTEX
8
Layer 1
10
26.557042
20
17.643248
70
0
0
VERTEX
8
Layer 1
10
26.511210
20
18.247643
70
0
0
VERTEX
8
Layer 1
10
26.884727
20
19.141576
70
0
0
VERTEX
8
Layer 1
10
27.734993
20
20.476582
70
0
0
VERTEX
8
Layer 1
10
28.163906
20
21.156408
70
0
0
VERTEX
8
Layer 1
10
28.242496
20
21.784993
70
0
0
VERTEX
8
Layer 1
10
27.997653
20
22.373278
70
0
0
VERTEX
8
Layer 1
10
27.456266
20
22.932207
70
0
0
VERTEX
8
Layer 1
10
25.418006
20
24.612149
70
0
0
VERTEX
8
Layer 1
10
24.763986
20
25.339111
70
0
0
VERTEX
8
Layer 1
10
24.620199
20
25.968473
70
0
0
VERTEX
8
Layer 1
10
24.989259
20
26.504943
70
0
0
VERTEX
8
Layer 1
10
25.873776
20
26.953230
70
0
0
VERTEX
8
Layer 1
10
28.275651
20
27.679488
70
0
0
VERTEX
8
Layer 1
10
28.897838
20
28.007586
70
0
0
VERTEX
8
Layer 1
10
29.263346
20
28.627447
70
0
0
VERTEX
8
Layer 1
10
29.947133
20
30.541451
70
0
0
VERTEX
8
Layer 1
10
30.807565
20
32.288014
70
0
0
VERTEX
8
Layer 1
10
31.842251
20
33.868183
70
0
0
VERTEX
8
Layer 1
10
33.048798
20
35.283001
70
0
0
VERTEX
8
Layer 1
10
34.424816
20
36.533513
70
0
0
VERTEX
8
Layer 1
10
35.967912
20
37.620764
70
0
0
VERTEX
8
Layer 1
10
37.675694
20
38.545798
70
0
0
VERTEX
8
Layer 1
10
39.545772
20
39.309659
70
0
0
VERTEX
8
Layer 1
10
40.164416
20
39.623347
70
0
0
VERTEX
8
Layer 1
10
40.480633
20
40.020807
70
0
0
VERTEX
8
Layer 1
10
40.584597
20
40.527734
70
0
0
VERTEX
8
Layer 1
10
40.566477
20
41.169822
70
0
0
VERTEX
8
Layer 1
10
40.363766
20
44.997610
70
0
0
VERTEX
8
Layer 1
10
40.428980
20
48.799006
70
0
0
VERTEX
8
Layer 1
10
40.632082
20
50.681303
70
0
0
VERTEX
8
Layer 1
10
40.986192
20
52.546797
70
0
0
VERTEX
8
Layer 1
10
41.519319
20
54.392087
70
0
0
VERTEX
8
Layer 1
10
42.259472
20
56.213771
70
0
0
VERTEX
8
Layer 1
10
42.905440
20
57.379256
70
0
0
VERTEX
8
Layer 1
10
43.716747
20
58.343984
70
0
0
VERTEX
8
Layer 1
10
44.746338
20
59.005976
70
0
0
VERTEX
8
Layer 1
10
46.047160
20
59.263251
70
0
0
VERTEX
8
Layer 1
10
47.473885
20
59.055671
70
0
0
VERTEX
8
Layer 1
10
48.626251
20
58.423927
70
0
0
VERTEX
8
Layer 1
10
49.512313
20
57.422134
70
0
0
VERTEX
8
Layer 1
10
50.140126
20
56.104407
70
0
0
VERTEX
8
Layer 1
10
51.009639
20
53.223439
70
0
0
VERTEX
8
Layer 1
10
51.605087
20
50.305206
70
0
0
VERTEX
8
Layer 1
10
51.863492
20
47.340718
70
0
0
VERTEX
8
Layer 1
10
51.721879
20
44.320987
70
0
0
VERTEX
8
Layer 1
10
51.639522
20
42.413225
70
0
0
VERTEX
8
Layer 1
10
51.475015
20
40.503185
70
0
0
VERTEX
8
Layer 1
10
51.507153
20
40.023316
70
0
0
VERTEX
8
Layer 1
10
51.777289
20
39.745203
70
0
0
VERTEX
8
Layer 1
10
52.573033
20
39.440866
70
0
0
VERTEX
8
Layer 1
10
55.135901
20
38.153117
70
0
0
VERTEX
8
Layer 1
10
57.441038
20
36.554660
70
0
0
VERTEX
8
Layer 1
10
59.468007
20
34.619806
70
0
0
VERTEX
8
Layer 1
10
61.196373
20
32.322862
70
0
0
VERTEX
8
Layer 1
10
61.400063
20
31.985143
70
0
0
VERTEX
8
Layer 1
10
61.661117
20
31.027647
70
0
0
VERTEX
8
Layer 1
10
62.040524
20
30.277185
70
0
0
VERTEX
8
Layer 1
10
62.529167
20
29.715945
70
0
0
VERTEX
8
Layer 1
10
63.117929
20
29.326117
70
0
0
VERTEX
8
Layer 1
10
63.797692
20
29.089887
70
0
0
VERTEX
8
Layer 1
10
64.559340
20
28.989446
70
0
0
VERTEX
8
Layer 1
10
66.291820
20
29.124683
70
0
0
VERTEX
8
Layer 1
10
67.199502
20
29.221059
70
0
0
VERTEX
8
Layer 1
10
67.628771
20
29.090360
70
0
0
VERTEX
8
Layer 1
10
67.964233
20
28.713101
70
0
0
VERTEX
8
Layer 1
10
68.078173
20
28.198339
70
0
0
VERTEX
8
Layer 1
10
67.933065
20
27.752791
70
0
0
VERTEX
8
Layer 1
10
67.327149
20
26.971740
70
0
0
VERTEX
8
Layer 1
10
66.290265
20
25.558640
70
0
0
VERTEX
8
Layer 1
10
66.037771
20
25.054401
70
0
0
VERTEX
8
Layer 1
10
65.966189
20
24.613363
70
0
0
VERTEX
8
Layer 1
10
66.078229
20
24.181767
70
0
0
VERTEX
8
Layer 1
10
66.376601
20
23.705859
70
0
0
VERTEX
8
Layer 1
10
67.543180
20
22.406081
70
0
0
VERTEX
8
Layer 1
10
68.045050
20
21.881575
70
0
0
VERTEX
8
Layer 1
10
68.195837
20
21.570638
70
0
0
VERTEX
8
Layer 1
10
68.181096
20
21.190515
70
0
0
VERTEX
8
Layer 1
10
67.972817
20
20.824830
70
0
0
VERTEX
8
Layer 1
10
67.654287
20
20.631544
70
0
0
VERTEX
8
Layer 1
10
66.879809
20
20.480413
70
0
0
VERTEX
8
Layer 1
10
65.317441
20
20.163856
70
0
0
VERTEX
8
Layer 1
10
64.535351
20
19.729260
70
0
0
VERTEX
8
Layer 1
10
64.297258
20
18.879724
70
0
0
VERTEX
8
Layer 1
10
64.366884
20
17.318353
70
0
0
VERTEX
8
Layer 1
10
64.370731
20
16.260651
70
0
0
VERTEX
8
Layer 1
10
64.235370
20
15.522158
70
0
0
VERTEX
8
Layer 1
10
63.922225
20
15.119894
70
0
0
VERTEX
8
Layer 1
10
63.432718
20
15.063883
70
0
0
VERTEX
8
Layer 1
10
62.768267
20
15.364150
70
0
0
VERTEX
8
Layer 1
10
59.406474
20
17.755014
70
0
0
VERTEX
8
Layer 1
10
57.428540
20
16.240347
70
0
0
VERTEX
8
Layer 1
10
56.243399
20
15.376678
70
0
0
VERTEX
8
Layer 1
10
54.979868
20
14.683517
70
0
0
VERTEX
8
Layer 1
10
53.638639
20
14.159235
70
0
0
VERTEX
8
Layer 1
10
52.220402
20
13.802200
70
0
0
VERTEX
8
Layer 1
10
51.691110
20
13.641491
70
0
0
VERTEX
8
Layer 1
10
51.326960
20
13.369441
70
0
0
VERTEX
8
Layer 1
10
51.123830
20
12.955119
70
0
0
VERTEX
8
Layer 1
10
51.077599
20
12.367595
70
0
0
VERTEX
8
Layer 1
10
51.046158
20
7.612005
70
0
0
VERTEX
8
Layer 1
10
50.917870
20
6.412437
70
0
0
VERTEX
8
Layer 1
10
50.612474
20
5.376629
70
0
0
VERTEX
8
Layer 1
10
50.137415
20
4.510685
70
0
0
VERTEX
8
Layer 1
10
49.500139
20
3.820709
70
0
0
VERTEX
8
Layer 1
10
48.708090
20
3.312804
70
0
0
VERTEX
8
Layer 1
10
47.768713
20
2.993074
70
0
0
VERTEX
8
Layer 1
10
46.689453
20
2.867622
70
0
0
VERTEX
8
Layer 1
10
45.477755
20
2.942553
70
0
0
VERTEX
8
Layer 1
10
43.540242
20
3.331308
70
0
0
VERTEX
8
Layer 1
10
43.095335
20
3.406428
70
0
0
VERTEX
8
Layer 1
10
42.675721
20
3.244237
70
0
0
VERTEX
8
Layer 1
10
41.496689
20
2.532803
70
0
0
VERTEX
8
Layer 1
10
40.239504
20
2.276866
70
0
0
VERTEX
8
Layer 1
10
38.916607
20
2.324957
70
0
0
VERTEX
8
Layer 1
10
37.540442
20
2.525609
70
0
0
SEQEND
8
Layer 1
0
POLYLINE
8
Layer 1
62
7
70
0
10
0.000000
20
0.000000
66
1
0
VERTEX
8
Layer 1
10
56.663217
20
23.208502
70
0
0
VERTEX
8
Layer 1
10
52.285237
20
23.587866
70
0
0
VERTEX
8
Layer 1
10
47.899969
20
23.680828
70
0
0
VERTEX
8
Layer 1
10
39.123956
20
23.647242
70
0
0
VERTEX
8
Layer 1
10
38.528800
20
23.587700
70
0
0
VERTEX
8
Layer 1
10
38.144205
20
23.361061
70
0
0
VERTEX
8
Layer 1
10
37.990407
20
22.928493
70
0
0
VERTEX
8
Layer 1
10
38.087639
20
22.251169
70
0
0
VERTEX
8
Layer 1
10
38.292171
20
21.201752
70
0
0
VERTEX
8
Layer 1
10
38.319674
20
20.139188
70
0
0
VERTEX
8
Layer 1
10
38.165295
20
19.096049
70
0
0
VERTEX
8
Layer 1
10
37.824182
20
18.104907
70
0
0
VERTEX
8
Layer 1
10
37.577609
20
17.283454
70
0
0
VERTEX
8
Layer 1
10
37.687956
20
16.702693
70
0
0
VERTEX
8
Layer 1
10
38.105968
20
16.290030
70
0
0
VERTEX
8
Layer 1
10
38.782391
20
15.972870
70
0
0
VERTEX
8
Layer 1
10
40.754974
20
15.333164
70
0
0
VERTEX
8
Layer 1
10
42.725322
20
14.882861
70
0
0
VERTEX
8
Layer 1
10
44.693131
20
14.622512
70
0
0
VERTEX
8
Layer 1
10
46.658092
20
14.552673
70
0
0
VERTEX
8
Layer 1
10
48.619900
20
14.673896
70
0
0
VERTEX
8
Layer 1
10
50.578248
20
14.986735
70
0
0
VERTEX
8
Layer 1
10
52.532829
20
15.491743
70
0
0
VERTEX
8
Layer 1
10
54.483339
20
16.189474
70
0
0
VERTEX
8
Layer 1
10
56.178737
20
17.198827
70
0
0
VERTEX
8
Layer 1
10
57.716947
20
18.457780
70
0
0
VERTEX
8
Layer 1
10
57.906143
20
18.796875
70
0
0
VERTEX
8
Layer 1
10
57.980578
20
19.355651
70
0
0
VERTEX
8
Layer 1
10
57.831308
20
20.838456
70
0
0
VERTEX
8
Layer 1
10
57.361425
20
22.318604
70
0
0
VERTEX
8
Layer 1
10
57.035094
20
22.874058
70
0
0
VERTEX
8
Layer 1
10
56.663217
20
23.208502
70
0
0
SEQEND
8
Layer 1
0
POLYLINE
8
Layer 1
62
7
70
0
10
0.000000
20
0.000000
66
1
0
VERTEX
8
Layer 1
10
27.211751
20
6.744460
70
0
0
VERTEX
8
Layer 1
10
27.417805
20
8.309495
70
0
0
VERTEX
8
Layer 1
10
27.578949
20
9.316360
70
0
0
VERTEX
8
Layer 1
10
27.469867
20
9.901546
70
0
0
VERTEX
8
Layer 1
10
26.975647
20
10.235543
70
0
0
VERTEX
8
Layer 1
10
25.981376
20
10.488844
70
0
0
VERTEX
8
Layer 1
10
25.076163
20
10.667867
70
0
0
VERTEX
8
Layer 1
10
22.556985
20
11.021512
70
0
0
VERTEX
8
Layer 1
10
20.039817
20
11.185184
70
0
0
VERTEX
8
Layer 1
10
17.525665
20
11.051317
70
0
0
VERTEX
8
Layer 1
10
15.015540
20
10.512345
70
0
0
VERTEX
8
Layer 1
10
16.326278
20
10.431749
70
0
0
VERTEX
8
Layer 1
10
17.601158
20
10.137401
70
0
0
VERTEX
8
Layer 1
10
18.240292
20
9.938905
70
0
0
VERTEX
8
Layer 1
10
18.451697
20
9.727239
70
0
0
VERTEX
8
Layer 1
10
18.499473
20
9.381509
70
0
0
VERTEX
8
Layer 1
10
18.353935
20
9.049063
70
0
0
VERTEX
8
Layer 1
10
18.083107
20
8.920260
70
0
0
VERTEX
8
Layer 1
10
17.423331
20
8.948889
70
0
0
VERTEX
8
Layer 1
10
13.492936
20
9.379522
70
0
0
VERTEX
8
Layer 1
10
12.473490
20
9.442199
70
0
0
VERTEX
8
Layer 1
10
11.968686
20
9.247632
70
0
0
VERTEX
8
Layer 1
10
11.506329
20
8.710899
70
0
0
VERTEX
8
Layer 1
10
13.081301
20
8.632637
70
0
0
VERTEX
8
Layer 1
10
14.643911
20
8.633769
70
0
0
VERTEX
8
Layer 1
10
16.133753
20
8.395644
70
0
0
VERTEX
8
Layer 1
10
16.832509
20
8.087281
70
0
0
VERTEX
8
Layer 1
10
17.490420
20
7.599611
70
0
0
VERTEX
8
Layer 1
10
16.041565
20
7.382722
70
0
0
VERTEX
8
Layer 1
10
14.576191
20
7.377880
70
0
0
VERTEX
8
Layer 1
10
13.098829
20
7.376748
70
0
0
VERTEX
8
Layer 1
10
11.614012
20
7.170992
70
0
0
VERTEX
8
Layer 1
10
12.042511
20
6.749288
70
0
0
VERTEX
8
Layer 1
10
12.508079
20
6.494153
70
0
0
VERTEX
8
Layer 1
10
13.464315
20
6.255823
70
0
0
VERTEX
8
Layer 1
10
16.631292
20
5.783417
70
0
0
VERTEX
8
Layer 1
10
19.813102
20
5.498435
70
0
0
VERTEX
8
Layer 1
10
26.206695
20
5.318337
70
0
0
VERTEX
8
Layer 1
10
26.726458
20
5.407412
70
0
0
VERTEX
8
Layer 1
10
27.042335
20
5.675346
70
0
0
VERTEX
8
Layer 1
10
27.191656
20
6.121307
70
0
0
VERTEX
8
Layer 1
10
27.211751
20
6.744460
70
0
0
SEQEND
8
Layer 1
0
POLYLINE
8
Layer 1
62
7
70
0
10
0.000000
20
0.000000
66
1
0
VERTEX
8
Layer 1
10
38.391996
20
25.773180
70
0
0
VERTEX
8
Layer 1
10
39.665188
20
26.719441
70
0
0
VERTEX
8
Layer 1
10
40.547585
20
27.816880
70
0
0
VERTEX
8
Layer 1
10
40.986883
20
28.976190
70
0
0
VERTEX
8
Layer 1
10
40.930779
20
30.108064
70
0
0
VERTEX
8
Layer 1
10
40.575172
20
31.008298
70
0
0
VERTEX
8
Layer 1
10
40.089269
20
31.768945
70
0
0
VERTEX
8
Layer 1
10
39.487339
20
32.383882
70
0
0
VERTEX
8
Layer 1
10
38.783651
20
32.846987
70
0
0
VERTEX
8
Layer 1
10
37.992473
20
33.152137
70
0
0
VERTEX
8
Layer 1
10
37.128075
20
33.293209
70
0
0
VERTEX
8
Layer 1
10
36.204726
20
33.264080
70
0
0
VERTEX
8
Layer 1
10
35.236694
20
33.058629
70
0
0
VERTEX
8
Layer 1
10
34.339969
20
32.672349
70
0
0
VERTEX
8
Layer 1
10
33.688270
20
32.115529
70
0
0
VERTEX
8
Layer 1
10
33.270786
20
31.370736
70
0
0
VERTEX
8
Layer 1
10
33.076704
20
30.420540
70
0
0
VERTEX
8
Layer 1
10
33.112856
20
29.394734
70
0
0
VERTEX
8
Layer 1
10
33.376615
20
28.444224
70
0
0
VERTEX
8
Layer 1
10
33.843929
20
27.594917
70
0
0
VERTEX
8
Layer 1
10
34.490746
20
26.872721
70
0
0
VERTEX
8
Layer 1
10
35.293013
20
26.303541
70
0
0
VERTEX
8
Layer 1
10
36.226678
20
25.913287
70
0
0
VERTEX
8
Layer 1
10
37.267690
20
25.727864
70
0
0
VERTEX
8
Layer 1
10
38.391996
20
25.773180
70
0
0
SEQEND
8
Layer 1
0
POLYLINE
8
Layer 1
62
7
70
0
10
0.000000
20
0.000000
66
1
0
VERTEX
8
Layer 1
10
40.612477
20
11.908213
70
0
0
VERTEX
8
Layer 1
10
40.280715
20
12.606127
70
0
0
VERTEX
8
Layer 1
10
39.831231
20
13.212305
70
0
0
VERTEX
8
Layer 1
10
38.735943
20
14.250133
70
0
0
VERTEX
8
Layer 1
10
38.116243
20
14.688886
70
0
0
VERTEX
8
Layer 1
10
37.440416
20
14.962817
70
0
0
VERTEX
8
Layer 1
10
36.749054
20
14.976912
70
0
0
VERTEX
8
Layer 1
10
36.082745
20
14.636155
70
0
0
VERTEX
8
Layer 1
10
34.712455
20
13.186667
70
0
0
VERTEX
8
Layer 1
10
33.405445
20
11.578804
70
0
0
VERTEX
8
Layer 1
10
34.072696
20
11.186160
70
0
0
VERTEX
8
Layer 1
10
34.752032
20
11.089217
70
0
0
VERTEX
8
Layer 1
10
35.138848
20
10.757360
70
0
0
VERTEX
8
Layer 1
10
35.313890
20
10.254700
70
0
0
VERTEX
8
Layer 1
10
35.357903
20
9.645353
70
0
0
VERTEX
8
Layer 1
10
35.383828
20
8.128533
70
0
0
VERTEX
8
Layer 1
10
35.671962
20
6.426109
70
0
0
VERTEX
8
Layer 1
10
36.707755
20
7.549989
70
0
0
VERTEX
8
Layer 1
10
37.879755
20
8.320160
70
0
0
VERTEX
8
Layer 1
10
39.153499
20
8.834800
70
0
0
VERTEX
8
Layer 1
10
40.494526
20
9.192082
70
0
0
VERTEX
8
Layer 1
10
41.313347
20
9.457654
70
0
0
VERTEX
8
Layer 1
10
41.681571
20
9.818860
70
0
0
VERTEX
8
Layer 1
10
41.625310
20
10.343771
70
0
0
VERTEX
8
Layer 1
10
41.170675
20
11.100462
70
0
0
VERTEX
8
Layer 1
10
40.612477
20
11.908213
70
0
0
SEQEND
8
Layer 1
0
POLYLINE
8
Layer 1
62
7
70
0
10
0.000000
20
0.000000
66
1
0
VERTEX
8
Layer 1
10
48.319163
20
38.285732
70
0
0
VERTEX
8
Layer 1
10
47.918227
20
37.387347
70
0
0
VERTEX
8
Layer 1
10
47.761415
20
36.464924
70
0
0
VERTEX
8
Layer 1
10
47.803554
20
35.530182
70
0
0
VERTEX
8
Layer 1
10
47.999469
20
34.594838
70
0
0
VERTEX
8
Layer 1
10
48.314731
20
33.883918
70
0
0
VERTEX
8
Layer 1
10
48.804084
20
33.352016
70
0
0
VERTEX
8
Layer 1
10
49.447099
20
32.999271
70
0
0
VERTEX
8
Layer 1
10
50.223345
20
32.825821
70
0
0
VERTEX
8
Layer 1
10
50.830529
20
32.850267
70
0
0
VERTEX
8
Layer 1
10
51.304537
20
33.058603
70
0
0
VERTEX
8
Layer 1
10
51.625682
20
33.452793
70
0
0
VERTEX
8
Layer 1
10
51.774278
20
34.034802
70
0
0
VERTEX
8
Layer 1
10
51.783763
20
35.221269
70
0
0
VERTEX
8
Layer 1
10
51.485377
20
35.674361
70
0
0
VERTEX
8
Layer 1
10
50.774873
20
35.916185
70
0
0
VERTEX
8
Layer 1
10
50.193534
20
36.071785
70
0
0
VERTEX
8
Layer 1
10
49.808025
20
36.386681
70
0
0
VERTEX
8
Layer 1
10
49.622442
20
36.856996
70
0
0
VERTEX
8
Layer 1
10
49.640879
20
37.478852
70
0
0
VERTEX
8
Layer 1
10
49.697175
20
38.000332
70
0
0
VERTEX
8
Layer 1
10
49.534555
20
38.558745
70
0
0
VERTEX
8
Layer 1
10
48.979111
20
38.608811
70
0
0
VERTEX
8
Layer 1
10
48.319163
20
38.285732
70
0
0
SEQEND
8
Layer 1
0
POLYLINE
8
Layer 1
62
7
70
0
10
0.000000
20
0.000000
66
1
0
VERTEX
8
Layer 1
10
42.593862
20
11.178260
70
0
0
VERTEX
8
Layer 1
10
43.459361
20
8.935622
70
0
0
VERTEX
8
Layer 1
10
45.165455
20
10.740346
70
0
0
VERTEX
8
Layer 1
10
45.800376
20
11.787049
70
0
0
VERTEX
8
Layer 1
10
46.240046
20
13.009000
70
0
0
VERTEX
8
Layer 1
10
41.507891
20
13.541428
70
0
0
VERTEX
8
Layer 1
10
41.435830
20
12.800837
70
0
0
VERTEX
8
Layer 1
10
41.742002
20
12.252491
70
0
0
VERTEX
8
Layer 1
10
42.202612
20
11.757821
70
0
0
VERTEX
8
Layer 1
10
42.593862
20
11.178260
70
0
0
SEQEND
8
Layer 1
0
POLYLINE
8
Layer 1
62
7
70
0
10
0.000000
20
0.000000
66
1
0
VERTEX
8
Layer 1
10
42.485895
20
41.383849
70
0
0
VERTEX
8
Layer 1
10
42.749868
20
39.534079
70
0
0
VERTEX
8
Layer 1
10
42.674377
20
38.613963
70
0
0
VERTEX
8
Layer 1
10
42.256403
20
37.694453
70
0
0
VERTEX
8
Layer 1
10
42.148848
20
37.325523
70
0
0
VERTEX
8
Layer 1
10
42.285358
20
36.980778
70
0
0
VERTEX
8
Layer 1
10
42.876451
20
36.382982
70
0
0
VERTEX
8
Layer 1
10
43.221930
20
36.178703
70
0
0
VERTEX
8
Layer 1
10
43.593598
20
36.257913
70
0
0
VERTEX
8
Layer 1
10
44.018077
20
36.906810
70
0
0
VERTEX
8
Layer 1
10
44.049618
20
37.694284
70
0
0
VERTEX
8
Layer 1
10
43.648674
20
38.501967
70
0
0
VERTEX
8
Layer 1
10
43.442564
20
38.905189
70
0
0
VERTEX
8
Layer 1
10
43.414216
20
39.375744
70
0
0
VERTEX
8
Layer 1
10
44.055233
20
39.839240
70
0
0
VERTEX
8
Layer 1
10
44.623250
20
40.383976
70
0
0
VERTEX
8
Layer 1
10
44.957760
20
41.379131
70
0
0
VERTEX
8
Layer 1
10
44.927253
20
41.881377
70
0
0
VERTEX
8
Layer 1
10
44.719093
20
42.387634
70
0
0
VERTEX
8
Layer 1
10
44.283475
20
42.882722
70
0
0
VERTEX
8
Layer 1
10
43.647616
20
43.015240
70
0
0
VERTEX
8
Layer 1
10
43.161435
20
42.823353
70
0
0
VERTEX
8
Layer 1
10
42.828129
20
42.477090
70
0
0
VERTEX
8
Layer 1
10
42.485895
20
41.383849
70
0
0
VERTEX
8
Layer 1
10
42.485895
20
41.383849
70
0
0
SEQEND
8
Layer 1
0
POLYLINE
8
Layer 1
62
7
70
0
10
0.000000
20
0.000000
66
1
0
VERTEX
8
Layer 1
10
35.575981
20
27.891245
70
0
0
VERTEX
8
Layer 1
10
35.259722
20
28.287572
70
0
0
VERTEX
8
Layer 1
10
35.179535
20
28.642452
70
0
0
VERTEX
8
Layer 1
10
35.323618
20
28.946853
70
0
0
VERTEX
8
Layer 1
10
35.680166
20
29.191741
70
0
0
VERTEX
8
Layer 1
10
36.032811
20
29.270311
70
0
0
VERTEX
8
Layer 1
10
36.333376
20
29.184611
70
0
0
VERTEX
8
Layer 1
10
36.553124
20
28.964422
70
0
0
VERTEX
8
Layer 1
10
36.663317
20
28.639526
70
0
0
VERTEX
8
Layer 1
10
36.633670
20
28.207481
70
0
0
VERTEX
8
Layer 1
10
36.429392
20
27.939929
70
0
0
VERTEX
8
Layer 1
10
36.070243
20
27.835105
70
0
0
VERTEX
8
Layer 1
10
35.575981
20
27.891245
70
0
0
VERTEX
8
Layer 1
10
35.575981
20
27.891245
70
0
0
SEQEND
8
Layer 1
 0 
ENDSEC
 0 
EOF