<svg version="1.1" id="Layer_1" xmlns="http://www.w3.org/2000/svg" xmlns:xlink="http://www.w3.org/1999/xlink" x="0px" y="0px"
	 width="100%" viewBox="0 0 288 240" enable-background="new 0 0 288 240" xml:space="preserve">
<path fill="#000000" opacity="1.000000" stroke="none" 
	d="
M141.885315,230.454681 
	C140.472855,230.228195 139.437897,230.215454 138.509125,229.895004 
	C134.566406,228.534683 131.087418,228.222107 126.751366,229.976242 
	C120.211128,232.622055 113.258514,231.628784 107.483200,226.967224 
	C105.100388,225.043915 102.524529,225.322495 99.904587,225.307541 
	C82.752182,225.209641 65.631630,224.631149 48.750618,221.251999 
	C40.979225,219.696381 37.282154,216.405304 36.722439,211.158066 
	C36.066589,205.009583 39.670536,199.827744 47.034328,196.956314 
	C60.391247,191.747971 74.219032,191.016830 88.257553,193.219696 
	C94.443169,194.190323 100.586143,195.432632 107.185738,196.630997 
	C107.986488,189.392212 109.850899,182.749084 112.515312,176.434021 
	C110.085526,174.711441 107.850868,175.394714 105.768730,175.268585 
	C99.829590,174.908829 98.705467,172.962479 101.611694,167.654099 
	C102.568863,165.905777 103.534103,164.101883 104.825302,162.608398 
	C107.914627,159.035004 107.202133,156.088348 103.771843,153.327286 
	C101.179672,151.240814 98.595993,149.141312 96.068176,146.977890 
	C91.491074,143.060623 92.030182,140.174500 97.790771,138.129700 
	C100.766762,137.073349 103.831070,136.261261 106.868736,135.384781 
	C108.762466,134.838348 110.001534,133.818680 110.601761,131.801941 
	C116.595268,111.663872 129.806641,98.318245 149.464523,91.428177 
	C153.495590,90.015297 153.569763,88.017082 153.322311,84.397629 
	C152.002075,65.087173 151.123840,45.768456 159.721039,27.538538 
	C162.648651,21.330685 166.709045,16.118366 174.036728,16.012930 
	C181.931366,15.899339 186.979614,20.606205 189.506226,27.951883 
	C194.472809,42.391369 197.311859,57.115837 195.484512,72.487701 
	C194.916122,77.268990 195.533859,82.124435 194.551483,86.917206 
	C193.921204,89.992210 196.844971,90.143356 198.701477,90.932274 
	C212.231812,96.681999 223.370499,105.304329 231.293671,117.834999 
	C231.560684,118.257294 231.978271,118.653961 232.063522,119.111420 
	C234.067566,129.864944 241.210571,131.553833 250.552078,129.922623 
	C252.629074,129.559937 255.516403,128.795425 256.873016,131.478210 
	C258.293701,134.287674 255.940826,136.153625 254.465134,138.059738 
	C247.480255,147.082047 247.461075,147.054916 255.281631,155.315796 
	C256.509369,156.612656 258.308441,157.773880 257.692657,159.910065 
	C257.002045,162.305603 254.713104,162.253647 252.774399,162.593918 
	C242.538086,164.390472 242.547394,164.384354 243.276718,174.545029 
	C243.371948,175.871521 243.358948,177.213303 243.291260,178.542648 
	C243.059464,183.094543 241.021530,184.358704 237.234695,181.931000 
	C232.914886,179.161636 228.850372,175.994049 224.528687,172.894653 
	C222.033005,174.796890 219.468216,176.617874 217.053024,178.619385 
	C211.279327,183.404114 204.708603,186.453873 197.368698,187.834442 
	C194.278366,188.415726 192.893997,189.807449 193.049438,193.256577 
	C193.318832,199.234406 193.104980,205.240814 192.930603,211.230484 
	C192.555145,224.125381 184.739441,230.664337 171.884644,228.878830 
	C169.422195,228.536804 166.981491,227.990585 164.561752,227.409515 
	C163.385895,227.127151 162.342667,226.825073 161.294266,227.738602 
	C155.570511,232.725937 148.933640,231.595810 141.885315,230.454681 
M214.160461,152.283020 
	C192.123413,149.380981 169.971634,150.977341 147.870255,150.624786 
	C144.374481,150.569031 142.796967,151.806061 143.953461,155.901291 
	C145.422089,161.101852 145.155380,166.763214 142.957718,171.572220 
	C140.733078,176.440247 142.602173,178.150726 146.579300,179.630325 
	C166.470703,187.030365 186.284393,186.816986 205.921539,178.811661 
	C210.568863,176.917130 214.287872,173.390884 218.143066,170.238525 
	C220.667007,168.174698 218.099274,154.293274 214.160461,152.283020 
M102.847694,214.509399 
	C103.100006,212.536224 103.232910,210.538879 103.626480,208.594299 
	C104.926399,202.171432 104.660957,201.716919 98.197449,200.357376 
	C97.059830,200.118103 95.922798,199.868576 94.776169,199.680756 
	C82.077713,197.600616 69.389351,196.351044 56.751717,200.268555 
	C60.150135,199.875092 63.306431,201.001953 66.524147,201.685669 
	C68.152046,202.031570 70.206184,202.388046 69.919357,204.542587 
	C69.609871,206.867371 67.388161,206.321579 65.852043,206.177689 
	C60.892796,205.713089 55.960327,204.942810 50.996986,204.550095 
	C48.559814,204.357239 45.662235,203.268890 43.488541,207.077179 
	C51.355095,208.206879 59.705887,205.324799 66.105606,211.277328 
	C58.853516,213.254562 51.389259,210.994873 43.895535,212.897308 
	C45.925331,215.537781 48.545723,215.925552 50.888813,216.356216 
	C66.804924,219.281509 82.907150,219.883362 99.049049,219.899475 
	C102.244774,219.902664 103.009323,218.094772 102.847694,214.509399 
M145.103790,142.589737 
	C152.416702,138.352112 156.318054,131.690689 154.699203,126.205902 
	C151.819672,116.449799 143.112015,112.074326 133.178223,115.054146 
	C128.023743,116.600327 125.447777,119.689659 125.014473,125.024887 
	C124.151039,135.656143 133.433243,144.296280 145.103790,142.589737 
M153.496170,194.992828 
	C152.186783,191.202347 149.295715,188.590134 146.403748,186.141464 
	C143.490448,183.674728 139.602371,181.911560 136.375900,184.682480 
	C132.601196,187.924240 129.712769,192.197968 126.256958,196.237839 
	C127.421860,196.951370 128.120865,197.754150 128.778854,197.721848 
	C133.074982,197.510773 133.609055,200.313522 133.636337,203.545380 
	C133.667877,207.283051 133.470428,211.039612 134.823334,215.712616 
	C139.641998,208.992813 146.180786,206.827438 153.050369,205.258530 
	C158.355942,204.046829 158.856888,202.557358 155.605896,198.045746 
	C155.023438,197.237411 154.416809,196.446457 153.496170,194.992828 
M182.623840,95.298141 
	C179.912369,99.745193 180.116669,104.552612 181.415543,109.247993 
	C182.531296,113.281425 185.607574,115.511971 189.820755,115.934052 
	C193.183075,116.270897 195.401566,114.774178 195.682556,111.364670 
	C195.931015,108.349709 196.788788,104.791771 191.905273,104.253922 
	C188.489136,103.877686 187.005447,101.856857 187.619308,98.347771 
	C187.841293,97.078812 188.098663,95.721359 187.217453,94.266281 
	C185.875961,93.748199 184.491959,93.935806 182.623840,95.298141 
M160.984879,197.751709 
	C162.021545,200.437851 163.058197,203.124008 164.256058,206.227829 
	C169.099350,201.866760 173.104843,197.531357 174.765747,190.832367 
	C168.419693,190.118362 162.633606,189.467346 156.880417,188.820038 
	C155.188309,193.269318 159.563919,194.384415 160.984879,197.751709 
M160.576813,83.588707 
	C161.167343,88.275299 162.935928,92.897430 159.709442,97.532898 
	C158.378555,99.444984 160.550995,101.161514 162.052933,102.489647 
	C162.830063,103.176826 163.854309,103.703773 164.763412,102.962349 
	C166.465820,101.573959 166.764709,99.620270 166.486954,97.533539 
	C166.181702,95.240295 163.551697,93.804718 164.085434,91.178406 
	C165.466110,89.693596 167.642212,89.261971 168.655014,87.367760 
	C169.989136,84.872566 170.571594,82.357330 169.017258,79.794868 
	C168.128616,78.329887 166.865311,77.060669 164.967575,77.422813 
	C162.075958,77.974617 161.063370,80.239586 160.576813,83.588707 
z"/>
<path fill="#000000" opacity="1.000000" stroke="none" 
	d="
M134.460571,134.584442 
	C132.252167,132.497940 132.542038,130.738129 134.854340,129.669174 
	C136.714401,128.809296 138.339203,129.905212 138.570190,131.756287 
	C138.893997,134.350967 137.258591,135.269958 134.460571,134.584442 
z"/>
</svg>