%TF.GenerationSoftware,KiCad,Pcbnew,9.0.7-9.0.7~ubuntu24.04.1*%
%TF.CreationDate,2026-02-18T22:38:38+05:30*%
%TF.ProjectId,mudkip-themed-chaser,6d75646b-6970-42d7-9468-656d65642d63,rev?*%
%TF.SameCoordinates,Original*%
%TF.FileFunction,Legend,Top*%
%TF.FilePolarity,Positive*%
%FSLAX46Y46*%
G04 Gerber Fmt 4.6, Leading zero omitted, Abs format (unit mm)*
G04 Created by KiCad (PCBNEW 9.0.7-9.0.7~ubuntu24.04.1) date 2026-02-18 22:38:38*
%MOMM*%
%LPD*%
G01*
G04 APERTURE LIST*
%ADD10C,1.650781*%
%ADD11C,0.150000*%
%ADD12C,0.120000*%
%ADD13C,0.000000*%
%ADD14C,0.152400*%
G04 APERTURE END LIST*
D10*
X155075390Y-84250000D02*
G75*
G02*
X153424610Y-84250000I-825390J0D01*
G01*
X153424610Y-84250000D02*
G75*
G02*
X155075390Y-84250000I825390J0D01*
G01*
X177615221Y-84228309D02*
G75*
G02*
X175964441Y-84228309I-825390J0D01*
G01*
X175964441Y-84228309D02*
G75*
G02*
X177615221Y-84228309I825390J0D01*
G01*
D11*
X166833333Y-80359580D02*
X166785714Y-80407200D01*
X166785714Y-80407200D02*
X166642857Y-80454819D01*
X166642857Y-80454819D02*
X166547619Y-80454819D01*
X166547619Y-80454819D02*
X166404762Y-80407200D01*
X166404762Y-80407200D02*
X166309524Y-80311961D01*
X166309524Y-80311961D02*
X166261905Y-80216723D01*
X166261905Y-80216723D02*
X166214286Y-80026247D01*
X166214286Y-80026247D02*
X166214286Y-79883390D01*
X166214286Y-79883390D02*
X166261905Y-79692914D01*
X166261905Y-79692914D02*
X166309524Y-79597676D01*
X166309524Y-79597676D02*
X166404762Y-79502438D01*
X166404762Y-79502438D02*
X166547619Y-79454819D01*
X166547619Y-79454819D02*
X166642857Y-79454819D01*
X166642857Y-79454819D02*
X166785714Y-79502438D01*
X166785714Y-79502438D02*
X166833333Y-79550057D01*
X167214286Y-79550057D02*
X167261905Y-79502438D01*
X167261905Y-79502438D02*
X167357143Y-79454819D01*
X167357143Y-79454819D02*
X167595238Y-79454819D01*
X167595238Y-79454819D02*
X167690476Y-79502438D01*
X167690476Y-79502438D02*
X167738095Y-79550057D01*
X167738095Y-79550057D02*
X167785714Y-79645295D01*
X167785714Y-79645295D02*
X167785714Y-79740533D01*
X167785714Y-79740533D02*
X167738095Y-79883390D01*
X167738095Y-79883390D02*
X167166667Y-80454819D01*
X167166667Y-80454819D02*
X167785714Y-80454819D01*
X166031905Y-71454819D02*
X166031905Y-70454819D01*
X166031905Y-70454819D02*
X166270000Y-70454819D01*
X166270000Y-70454819D02*
X166412857Y-70502438D01*
X166412857Y-70502438D02*
X166508095Y-70597676D01*
X166508095Y-70597676D02*
X166555714Y-70692914D01*
X166555714Y-70692914D02*
X166603333Y-70883390D01*
X166603333Y-70883390D02*
X166603333Y-71026247D01*
X166603333Y-71026247D02*
X166555714Y-71216723D01*
X166555714Y-71216723D02*
X166508095Y-71311961D01*
X166508095Y-71311961D02*
X166412857Y-71407200D01*
X166412857Y-71407200D02*
X166270000Y-71454819D01*
X166270000Y-71454819D02*
X166031905Y-71454819D01*
X166984286Y-70550057D02*
X167031905Y-70502438D01*
X167031905Y-70502438D02*
X167127143Y-70454819D01*
X167127143Y-70454819D02*
X167365238Y-70454819D01*
X167365238Y-70454819D02*
X167460476Y-70502438D01*
X167460476Y-70502438D02*
X167508095Y-70550057D01*
X167508095Y-70550057D02*
X167555714Y-70645295D01*
X167555714Y-70645295D02*
X167555714Y-70740533D01*
X167555714Y-70740533D02*
X167508095Y-70883390D01*
X167508095Y-70883390D02*
X166936667Y-71454819D01*
X166936667Y-71454819D02*
X167555714Y-71454819D01*
X163359580Y-82666666D02*
X163407200Y-82714285D01*
X163407200Y-82714285D02*
X163454819Y-82857142D01*
X163454819Y-82857142D02*
X163454819Y-82952380D01*
X163454819Y-82952380D02*
X163407200Y-83095237D01*
X163407200Y-83095237D02*
X163311961Y-83190475D01*
X163311961Y-83190475D02*
X163216723Y-83238094D01*
X163216723Y-83238094D02*
X163026247Y-83285713D01*
X163026247Y-83285713D02*
X162883390Y-83285713D01*
X162883390Y-83285713D02*
X162692914Y-83238094D01*
X162692914Y-83238094D02*
X162597676Y-83190475D01*
X162597676Y-83190475D02*
X162502438Y-83095237D01*
X162502438Y-83095237D02*
X162454819Y-82952380D01*
X162454819Y-82952380D02*
X162454819Y-82857142D01*
X162454819Y-82857142D02*
X162502438Y-82714285D01*
X162502438Y-82714285D02*
X162550057Y-82666666D01*
X163454819Y-81714285D02*
X163454819Y-82285713D01*
X163454819Y-81999999D02*
X162454819Y-81999999D01*
X162454819Y-81999999D02*
X162597676Y-82095237D01*
X162597676Y-82095237D02*
X162692914Y-82190475D01*
X162692914Y-82190475D02*
X162740533Y-82285713D01*
X167604819Y-90571904D02*
X168414342Y-90571904D01*
X168414342Y-90571904D02*
X168509580Y-90524285D01*
X168509580Y-90524285D02*
X168557200Y-90476666D01*
X168557200Y-90476666D02*
X168604819Y-90381428D01*
X168604819Y-90381428D02*
X168604819Y-90190952D01*
X168604819Y-90190952D02*
X168557200Y-90095714D01*
X168557200Y-90095714D02*
X168509580Y-90048095D01*
X168509580Y-90048095D02*
X168414342Y-90000476D01*
X168414342Y-90000476D02*
X167604819Y-90000476D01*
X167700057Y-89571904D02*
X167652438Y-89524285D01*
X167652438Y-89524285D02*
X167604819Y-89429047D01*
X167604819Y-89429047D02*
X167604819Y-89190952D01*
X167604819Y-89190952D02*
X167652438Y-89095714D01*
X167652438Y-89095714D02*
X167700057Y-89048095D01*
X167700057Y-89048095D02*
X167795295Y-89000476D01*
X167795295Y-89000476D02*
X167890533Y-89000476D01*
X167890533Y-89000476D02*
X168033390Y-89048095D01*
X168033390Y-89048095D02*
X168604819Y-89619523D01*
X168604819Y-89619523D02*
X168604819Y-89000476D01*
X157305119Y-93619999D02*
X157543214Y-93619999D01*
X157447976Y-93858094D02*
X157543214Y-93619999D01*
X157543214Y-93619999D02*
X157447976Y-93381904D01*
X157733690Y-93762856D02*
X157543214Y-93619999D01*
X157543214Y-93619999D02*
X157733690Y-93477142D01*
X157305119Y-93619999D02*
X157543214Y-93619999D01*
X157447976Y-93858094D02*
X157543214Y-93619999D01*
X157543214Y-93619999D02*
X157447976Y-93381904D01*
X157733690Y-93762856D02*
X157543214Y-93619999D01*
X157543214Y-93619999D02*
X157733690Y-93477142D01*
X145491905Y-103494819D02*
X145491905Y-102494819D01*
X145491905Y-102494819D02*
X145730000Y-102494819D01*
X145730000Y-102494819D02*
X145872857Y-102542438D01*
X145872857Y-102542438D02*
X145968095Y-102637676D01*
X145968095Y-102637676D02*
X146015714Y-102732914D01*
X146015714Y-102732914D02*
X146063333Y-102923390D01*
X146063333Y-102923390D02*
X146063333Y-103066247D01*
X146063333Y-103066247D02*
X146015714Y-103256723D01*
X146015714Y-103256723D02*
X145968095Y-103351961D01*
X145968095Y-103351961D02*
X145872857Y-103447200D01*
X145872857Y-103447200D02*
X145730000Y-103494819D01*
X145730000Y-103494819D02*
X145491905Y-103494819D01*
X146539524Y-103494819D02*
X146730000Y-103494819D01*
X146730000Y-103494819D02*
X146825238Y-103447200D01*
X146825238Y-103447200D02*
X146872857Y-103399580D01*
X146872857Y-103399580D02*
X146968095Y-103256723D01*
X146968095Y-103256723D02*
X147015714Y-103066247D01*
X147015714Y-103066247D02*
X147015714Y-102685295D01*
X147015714Y-102685295D02*
X146968095Y-102590057D01*
X146968095Y-102590057D02*
X146920476Y-102542438D01*
X146920476Y-102542438D02*
X146825238Y-102494819D01*
X146825238Y-102494819D02*
X146634762Y-102494819D01*
X146634762Y-102494819D02*
X146539524Y-102542438D01*
X146539524Y-102542438D02*
X146491905Y-102590057D01*
X146491905Y-102590057D02*
X146444286Y-102685295D01*
X146444286Y-102685295D02*
X146444286Y-102923390D01*
X146444286Y-102923390D02*
X146491905Y-103018628D01*
X146491905Y-103018628D02*
X146539524Y-103066247D01*
X146539524Y-103066247D02*
X146634762Y-103113866D01*
X146634762Y-103113866D02*
X146825238Y-103113866D01*
X146825238Y-103113866D02*
X146920476Y-103066247D01*
X146920476Y-103066247D02*
X146968095Y-103018628D01*
X146968095Y-103018628D02*
X147015714Y-102923390D01*
X163991905Y-63994819D02*
X163991905Y-62994819D01*
X163991905Y-62994819D02*
X164230000Y-62994819D01*
X164230000Y-62994819D02*
X164372857Y-63042438D01*
X164372857Y-63042438D02*
X164468095Y-63137676D01*
X164468095Y-63137676D02*
X164515714Y-63232914D01*
X164515714Y-63232914D02*
X164563333Y-63423390D01*
X164563333Y-63423390D02*
X164563333Y-63566247D01*
X164563333Y-63566247D02*
X164515714Y-63756723D01*
X164515714Y-63756723D02*
X164468095Y-63851961D01*
X164468095Y-63851961D02*
X164372857Y-63947200D01*
X164372857Y-63947200D02*
X164230000Y-63994819D01*
X164230000Y-63994819D02*
X163991905Y-63994819D01*
X165515714Y-63994819D02*
X164944286Y-63994819D01*
X165230000Y-63994819D02*
X165230000Y-62994819D01*
X165230000Y-62994819D02*
X165134762Y-63137676D01*
X165134762Y-63137676D02*
X165039524Y-63232914D01*
X165039524Y-63232914D02*
X164944286Y-63280533D01*
X171833333Y-96954819D02*
X171500000Y-96478628D01*
X171261905Y-96954819D02*
X171261905Y-95954819D01*
X171261905Y-95954819D02*
X171642857Y-95954819D01*
X171642857Y-95954819D02*
X171738095Y-96002438D01*
X171738095Y-96002438D02*
X171785714Y-96050057D01*
X171785714Y-96050057D02*
X171833333Y-96145295D01*
X171833333Y-96145295D02*
X171833333Y-96288152D01*
X171833333Y-96288152D02*
X171785714Y-96383390D01*
X171785714Y-96383390D02*
X171738095Y-96431009D01*
X171738095Y-96431009D02*
X171642857Y-96478628D01*
X171642857Y-96478628D02*
X171261905Y-96478628D01*
X172785714Y-96954819D02*
X172214286Y-96954819D01*
X172500000Y-96954819D02*
X172500000Y-95954819D01*
X172500000Y-95954819D02*
X172404762Y-96097676D01*
X172404762Y-96097676D02*
X172309524Y-96192914D01*
X172309524Y-96192914D02*
X172214286Y-96240533D01*
X164761905Y-100494819D02*
X164761905Y-99494819D01*
X164761905Y-99494819D02*
X165000000Y-99494819D01*
X165000000Y-99494819D02*
X165142857Y-99542438D01*
X165142857Y-99542438D02*
X165238095Y-99637676D01*
X165238095Y-99637676D02*
X165285714Y-99732914D01*
X165285714Y-99732914D02*
X165333333Y-99923390D01*
X165333333Y-99923390D02*
X165333333Y-100066247D01*
X165333333Y-100066247D02*
X165285714Y-100256723D01*
X165285714Y-100256723D02*
X165238095Y-100351961D01*
X165238095Y-100351961D02*
X165142857Y-100447200D01*
X165142857Y-100447200D02*
X165000000Y-100494819D01*
X165000000Y-100494819D02*
X164761905Y-100494819D01*
X166190476Y-99494819D02*
X166000000Y-99494819D01*
X166000000Y-99494819D02*
X165904762Y-99542438D01*
X165904762Y-99542438D02*
X165857143Y-99590057D01*
X165857143Y-99590057D02*
X165761905Y-99732914D01*
X165761905Y-99732914D02*
X165714286Y-99923390D01*
X165714286Y-99923390D02*
X165714286Y-100304342D01*
X165714286Y-100304342D02*
X165761905Y-100399580D01*
X165761905Y-100399580D02*
X165809524Y-100447200D01*
X165809524Y-100447200D02*
X165904762Y-100494819D01*
X165904762Y-100494819D02*
X166095238Y-100494819D01*
X166095238Y-100494819D02*
X166190476Y-100447200D01*
X166190476Y-100447200D02*
X166238095Y-100399580D01*
X166238095Y-100399580D02*
X166285714Y-100304342D01*
X166285714Y-100304342D02*
X166285714Y-100066247D01*
X166285714Y-100066247D02*
X166238095Y-99971009D01*
X166238095Y-99971009D02*
X166190476Y-99923390D01*
X166190476Y-99923390D02*
X166095238Y-99875771D01*
X166095238Y-99875771D02*
X165904762Y-99875771D01*
X165904762Y-99875771D02*
X165809524Y-99923390D01*
X165809524Y-99923390D02*
X165761905Y-99971009D01*
X165761905Y-99971009D02*
X165714286Y-100066247D01*
X180761905Y-87454819D02*
X180761905Y-86454819D01*
X180761905Y-86454819D02*
X181000000Y-86454819D01*
X181000000Y-86454819D02*
X181142857Y-86502438D01*
X181142857Y-86502438D02*
X181238095Y-86597676D01*
X181238095Y-86597676D02*
X181285714Y-86692914D01*
X181285714Y-86692914D02*
X181333333Y-86883390D01*
X181333333Y-86883390D02*
X181333333Y-87026247D01*
X181333333Y-87026247D02*
X181285714Y-87216723D01*
X181285714Y-87216723D02*
X181238095Y-87311961D01*
X181238095Y-87311961D02*
X181142857Y-87407200D01*
X181142857Y-87407200D02*
X181000000Y-87454819D01*
X181000000Y-87454819D02*
X180761905Y-87454819D01*
X182238095Y-86454819D02*
X181761905Y-86454819D01*
X181761905Y-86454819D02*
X181714286Y-86931009D01*
X181714286Y-86931009D02*
X181761905Y-86883390D01*
X181761905Y-86883390D02*
X181857143Y-86835771D01*
X181857143Y-86835771D02*
X182095238Y-86835771D01*
X182095238Y-86835771D02*
X182190476Y-86883390D01*
X182190476Y-86883390D02*
X182238095Y-86931009D01*
X182238095Y-86931009D02*
X182285714Y-87026247D01*
X182285714Y-87026247D02*
X182285714Y-87264342D01*
X182285714Y-87264342D02*
X182238095Y-87359580D01*
X182238095Y-87359580D02*
X182190476Y-87407200D01*
X182190476Y-87407200D02*
X182095238Y-87454819D01*
X182095238Y-87454819D02*
X181857143Y-87454819D01*
X181857143Y-87454819D02*
X181761905Y-87407200D01*
X181761905Y-87407200D02*
X181714286Y-87359580D01*
X173785714Y-78954819D02*
X173785714Y-77954819D01*
X173785714Y-77954819D02*
X174023809Y-77954819D01*
X174023809Y-77954819D02*
X174166666Y-78002438D01*
X174166666Y-78002438D02*
X174261904Y-78097676D01*
X174261904Y-78097676D02*
X174309523Y-78192914D01*
X174309523Y-78192914D02*
X174357142Y-78383390D01*
X174357142Y-78383390D02*
X174357142Y-78526247D01*
X174357142Y-78526247D02*
X174309523Y-78716723D01*
X174309523Y-78716723D02*
X174261904Y-78811961D01*
X174261904Y-78811961D02*
X174166666Y-78907200D01*
X174166666Y-78907200D02*
X174023809Y-78954819D01*
X174023809Y-78954819D02*
X173785714Y-78954819D01*
X175309523Y-78954819D02*
X174738095Y-78954819D01*
X175023809Y-78954819D02*
X175023809Y-77954819D01*
X175023809Y-77954819D02*
X174928571Y-78097676D01*
X174928571Y-78097676D02*
X174833333Y-78192914D01*
X174833333Y-78192914D02*
X174738095Y-78240533D01*
X175928571Y-77954819D02*
X176023809Y-77954819D01*
X176023809Y-77954819D02*
X176119047Y-78002438D01*
X176119047Y-78002438D02*
X176166666Y-78050057D01*
X176166666Y-78050057D02*
X176214285Y-78145295D01*
X176214285Y-78145295D02*
X176261904Y-78335771D01*
X176261904Y-78335771D02*
X176261904Y-78573866D01*
X176261904Y-78573866D02*
X176214285Y-78764342D01*
X176214285Y-78764342D02*
X176166666Y-78859580D01*
X176166666Y-78859580D02*
X176119047Y-78907200D01*
X176119047Y-78907200D02*
X176023809Y-78954819D01*
X176023809Y-78954819D02*
X175928571Y-78954819D01*
X175928571Y-78954819D02*
X175833333Y-78907200D01*
X175833333Y-78907200D02*
X175785714Y-78859580D01*
X175785714Y-78859580D02*
X175738095Y-78764342D01*
X175738095Y-78764342D02*
X175690476Y-78573866D01*
X175690476Y-78573866D02*
X175690476Y-78335771D01*
X175690476Y-78335771D02*
X175738095Y-78145295D01*
X175738095Y-78145295D02*
X175785714Y-78050057D01*
X175785714Y-78050057D02*
X175833333Y-78002438D01*
X175833333Y-78002438D02*
X175928571Y-77954819D01*
X148534819Y-108833333D02*
X149249104Y-108833333D01*
X149249104Y-108833333D02*
X149391961Y-108880952D01*
X149391961Y-108880952D02*
X149487200Y-108976190D01*
X149487200Y-108976190D02*
X149534819Y-109119047D01*
X149534819Y-109119047D02*
X149534819Y-109214285D01*
X149534819Y-107833333D02*
X149534819Y-108404761D01*
X149534819Y-108119047D02*
X148534819Y-108119047D01*
X148534819Y-108119047D02*
X148677676Y-108214285D01*
X148677676Y-108214285D02*
X148772914Y-108309523D01*
X148772914Y-108309523D02*
X148820533Y-108404761D01*
X160761905Y-77954819D02*
X160761905Y-76954819D01*
X160761905Y-76954819D02*
X161000000Y-76954819D01*
X161000000Y-76954819D02*
X161142857Y-77002438D01*
X161142857Y-77002438D02*
X161238095Y-77097676D01*
X161238095Y-77097676D02*
X161285714Y-77192914D01*
X161285714Y-77192914D02*
X161333333Y-77383390D01*
X161333333Y-77383390D02*
X161333333Y-77526247D01*
X161333333Y-77526247D02*
X161285714Y-77716723D01*
X161285714Y-77716723D02*
X161238095Y-77811961D01*
X161238095Y-77811961D02*
X161142857Y-77907200D01*
X161142857Y-77907200D02*
X161000000Y-77954819D01*
X161000000Y-77954819D02*
X160761905Y-77954819D01*
X161666667Y-76954819D02*
X162285714Y-76954819D01*
X162285714Y-76954819D02*
X161952381Y-77335771D01*
X161952381Y-77335771D02*
X162095238Y-77335771D01*
X162095238Y-77335771D02*
X162190476Y-77383390D01*
X162190476Y-77383390D02*
X162238095Y-77431009D01*
X162238095Y-77431009D02*
X162285714Y-77526247D01*
X162285714Y-77526247D02*
X162285714Y-77764342D01*
X162285714Y-77764342D02*
X162238095Y-77859580D01*
X162238095Y-77859580D02*
X162190476Y-77907200D01*
X162190476Y-77907200D02*
X162095238Y-77954819D01*
X162095238Y-77954819D02*
X161809524Y-77954819D01*
X161809524Y-77954819D02*
X161714286Y-77907200D01*
X161714286Y-77907200D02*
X161666667Y-77859580D01*
X159523333Y-95584819D02*
X159190000Y-95108628D01*
X158951905Y-95584819D02*
X158951905Y-94584819D01*
X158951905Y-94584819D02*
X159332857Y-94584819D01*
X159332857Y-94584819D02*
X159428095Y-94632438D01*
X159428095Y-94632438D02*
X159475714Y-94680057D01*
X159475714Y-94680057D02*
X159523333Y-94775295D01*
X159523333Y-94775295D02*
X159523333Y-94918152D01*
X159523333Y-94918152D02*
X159475714Y-95013390D01*
X159475714Y-95013390D02*
X159428095Y-95061009D01*
X159428095Y-95061009D02*
X159332857Y-95108628D01*
X159332857Y-95108628D02*
X158951905Y-95108628D01*
X159904286Y-94680057D02*
X159951905Y-94632438D01*
X159951905Y-94632438D02*
X160047143Y-94584819D01*
X160047143Y-94584819D02*
X160285238Y-94584819D01*
X160285238Y-94584819D02*
X160380476Y-94632438D01*
X160380476Y-94632438D02*
X160428095Y-94680057D01*
X160428095Y-94680057D02*
X160475714Y-94775295D01*
X160475714Y-94775295D02*
X160475714Y-94870533D01*
X160475714Y-94870533D02*
X160428095Y-95013390D01*
X160428095Y-95013390D02*
X159856667Y-95584819D01*
X159856667Y-95584819D02*
X160475714Y-95584819D01*
X169761905Y-80454819D02*
X169761905Y-79454819D01*
X169761905Y-79454819D02*
X170000000Y-79454819D01*
X170000000Y-79454819D02*
X170142857Y-79502438D01*
X170142857Y-79502438D02*
X170238095Y-79597676D01*
X170238095Y-79597676D02*
X170285714Y-79692914D01*
X170285714Y-79692914D02*
X170333333Y-79883390D01*
X170333333Y-79883390D02*
X170333333Y-80026247D01*
X170333333Y-80026247D02*
X170285714Y-80216723D01*
X170285714Y-80216723D02*
X170238095Y-80311961D01*
X170238095Y-80311961D02*
X170142857Y-80407200D01*
X170142857Y-80407200D02*
X170000000Y-80454819D01*
X170000000Y-80454819D02*
X169761905Y-80454819D01*
X171190476Y-79788152D02*
X171190476Y-80454819D01*
X170952381Y-79407200D02*
X170714286Y-80121485D01*
X170714286Y-80121485D02*
X171333333Y-80121485D01*
X150261905Y-98494819D02*
X150261905Y-97494819D01*
X150261905Y-97494819D02*
X150500000Y-97494819D01*
X150500000Y-97494819D02*
X150642857Y-97542438D01*
X150642857Y-97542438D02*
X150738095Y-97637676D01*
X150738095Y-97637676D02*
X150785714Y-97732914D01*
X150785714Y-97732914D02*
X150833333Y-97923390D01*
X150833333Y-97923390D02*
X150833333Y-98066247D01*
X150833333Y-98066247D02*
X150785714Y-98256723D01*
X150785714Y-98256723D02*
X150738095Y-98351961D01*
X150738095Y-98351961D02*
X150642857Y-98447200D01*
X150642857Y-98447200D02*
X150500000Y-98494819D01*
X150500000Y-98494819D02*
X150261905Y-98494819D01*
X151404762Y-97923390D02*
X151309524Y-97875771D01*
X151309524Y-97875771D02*
X151261905Y-97828152D01*
X151261905Y-97828152D02*
X151214286Y-97732914D01*
X151214286Y-97732914D02*
X151214286Y-97685295D01*
X151214286Y-97685295D02*
X151261905Y-97590057D01*
X151261905Y-97590057D02*
X151309524Y-97542438D01*
X151309524Y-97542438D02*
X151404762Y-97494819D01*
X151404762Y-97494819D02*
X151595238Y-97494819D01*
X151595238Y-97494819D02*
X151690476Y-97542438D01*
X151690476Y-97542438D02*
X151738095Y-97590057D01*
X151738095Y-97590057D02*
X151785714Y-97685295D01*
X151785714Y-97685295D02*
X151785714Y-97732914D01*
X151785714Y-97732914D02*
X151738095Y-97828152D01*
X151738095Y-97828152D02*
X151690476Y-97875771D01*
X151690476Y-97875771D02*
X151595238Y-97923390D01*
X151595238Y-97923390D02*
X151404762Y-97923390D01*
X151404762Y-97923390D02*
X151309524Y-97971009D01*
X151309524Y-97971009D02*
X151261905Y-98018628D01*
X151261905Y-98018628D02*
X151214286Y-98113866D01*
X151214286Y-98113866D02*
X151214286Y-98304342D01*
X151214286Y-98304342D02*
X151261905Y-98399580D01*
X151261905Y-98399580D02*
X151309524Y-98447200D01*
X151309524Y-98447200D02*
X151404762Y-98494819D01*
X151404762Y-98494819D02*
X151595238Y-98494819D01*
X151595238Y-98494819D02*
X151690476Y-98447200D01*
X151690476Y-98447200D02*
X151738095Y-98399580D01*
X151738095Y-98399580D02*
X151785714Y-98304342D01*
X151785714Y-98304342D02*
X151785714Y-98113866D01*
X151785714Y-98113866D02*
X151738095Y-98018628D01*
X151738095Y-98018628D02*
X151690476Y-97971009D01*
X151690476Y-97971009D02*
X151595238Y-97923390D01*
X157261905Y-101994819D02*
X157261905Y-100994819D01*
X157261905Y-100994819D02*
X157500000Y-100994819D01*
X157500000Y-100994819D02*
X157642857Y-101042438D01*
X157642857Y-101042438D02*
X157738095Y-101137676D01*
X157738095Y-101137676D02*
X157785714Y-101232914D01*
X157785714Y-101232914D02*
X157833333Y-101423390D01*
X157833333Y-101423390D02*
X157833333Y-101566247D01*
X157833333Y-101566247D02*
X157785714Y-101756723D01*
X157785714Y-101756723D02*
X157738095Y-101851961D01*
X157738095Y-101851961D02*
X157642857Y-101947200D01*
X157642857Y-101947200D02*
X157500000Y-101994819D01*
X157500000Y-101994819D02*
X157261905Y-101994819D01*
X158166667Y-100994819D02*
X158833333Y-100994819D01*
X158833333Y-100994819D02*
X158404762Y-101994819D01*
X151733095Y-95844819D02*
X151733095Y-96654342D01*
X151733095Y-96654342D02*
X151780714Y-96749580D01*
X151780714Y-96749580D02*
X151828333Y-96797200D01*
X151828333Y-96797200D02*
X151923571Y-96844819D01*
X151923571Y-96844819D02*
X152114047Y-96844819D01*
X152114047Y-96844819D02*
X152209285Y-96797200D01*
X152209285Y-96797200D02*
X152256904Y-96749580D01*
X152256904Y-96749580D02*
X152304523Y-96654342D01*
X152304523Y-96654342D02*
X152304523Y-95844819D01*
X153304523Y-96844819D02*
X152733095Y-96844819D01*
X153018809Y-96844819D02*
X153018809Y-95844819D01*
X153018809Y-95844819D02*
X152923571Y-95987676D01*
X152923571Y-95987676D02*
X152828333Y-96082914D01*
X152828333Y-96082914D02*
X152733095Y-96130533D01*
X164333333Y-56609580D02*
X164285714Y-56657200D01*
X164285714Y-56657200D02*
X164142857Y-56704819D01*
X164142857Y-56704819D02*
X164047619Y-56704819D01*
X164047619Y-56704819D02*
X163904762Y-56657200D01*
X163904762Y-56657200D02*
X163809524Y-56561961D01*
X163809524Y-56561961D02*
X163761905Y-56466723D01*
X163761905Y-56466723D02*
X163714286Y-56276247D01*
X163714286Y-56276247D02*
X163714286Y-56133390D01*
X163714286Y-56133390D02*
X163761905Y-55942914D01*
X163761905Y-55942914D02*
X163809524Y-55847676D01*
X163809524Y-55847676D02*
X163904762Y-55752438D01*
X163904762Y-55752438D02*
X164047619Y-55704819D01*
X164047619Y-55704819D02*
X164142857Y-55704819D01*
X164142857Y-55704819D02*
X164285714Y-55752438D01*
X164285714Y-55752438D02*
X164333333Y-55800057D01*
X165190476Y-56038152D02*
X165190476Y-56704819D01*
X164952381Y-55657200D02*
X164714286Y-56371485D01*
X164714286Y-56371485D02*
X165333333Y-56371485D01*
D12*
%TO.C,C2*%
X163130000Y-81130000D02*
X170870000Y-81130000D01*
X163130000Y-83870000D02*
X163130000Y-81130000D01*
X170870000Y-81130000D02*
X170870000Y-83870000D01*
X170870000Y-83870000D02*
X163130000Y-83870000D01*
D13*
%TO.C,G\u002A\u002A\u002A*%
G36*
X177711883Y-84000009D02*
G01*
X178092163Y-84398107D01*
X178201089Y-84975153D01*
X178100241Y-85299007D01*
X177633693Y-85756630D01*
X177074758Y-85692882D01*
X176743135Y-85402428D01*
X176536559Y-84798422D01*
X176789831Y-84228309D01*
X177188010Y-83967357D01*
X177711883Y-84000009D01*
G37*
G36*
X154357725Y-83753166D02*
G01*
X154552970Y-83937908D01*
X154852184Y-84505439D01*
X154713343Y-85006469D01*
X154199493Y-85256419D01*
X154101087Y-85260869D01*
X153562592Y-85074059D01*
X153364451Y-84825330D01*
X153407816Y-84306207D01*
X153649203Y-83937908D01*
X154035311Y-83634159D01*
X154357725Y-83753166D01*
G37*
G36*
X165155412Y-52746040D02*
G01*
X166228628Y-52974316D01*
X167126769Y-53471520D01*
X167890711Y-54294740D01*
X168561327Y-55501068D01*
X169179490Y-57147593D01*
X169755166Y-59170651D01*
X169933030Y-59966559D01*
X170063967Y-60837074D01*
X170153999Y-61878363D01*
X170209143Y-63186594D01*
X170235420Y-64857933D01*
X170239058Y-66901086D01*
X170225943Y-72698912D01*
X172608831Y-73855454D01*
X175029857Y-75279642D01*
X177229404Y-77061738D01*
X179117361Y-79108701D01*
X180603616Y-81327492D01*
X181327089Y-82856975D01*
X181847826Y-84180255D01*
X184332608Y-84150726D01*
X185479094Y-84139408D01*
X186431048Y-84134260D01*
X187041414Y-84135900D01*
X187162500Y-84138859D01*
X187483860Y-84338118D01*
X187376793Y-84877248D01*
X186843601Y-85750624D01*
X186127174Y-86667731D01*
X185474648Y-87476103D01*
X184988528Y-88124584D01*
X184755454Y-88496319D01*
X184746739Y-88529602D01*
X184929697Y-88810545D01*
X185410657Y-89356946D01*
X186087749Y-90053477D01*
X186127174Y-90092390D01*
X187014715Y-91027211D01*
X187463033Y-91703483D01*
X187448046Y-92176715D01*
X186945674Y-92502418D01*
X185931834Y-92736101D01*
X184921002Y-92872768D01*
X183300701Y-93063123D01*
X183495251Y-95550073D01*
X183563199Y-96914133D01*
X183486353Y-97820213D01*
X183218630Y-98282174D01*
X182713944Y-98313876D01*
X181926212Y-97929177D01*
X180809349Y-97141938D01*
X180081500Y-96576739D01*
X178637791Y-95435553D01*
X176548944Y-97007746D01*
X174402312Y-98408631D01*
X172282977Y-99335800D01*
X170666304Y-99749513D01*
X169700000Y-99929079D01*
X169639117Y-103786642D01*
X169583527Y-105667688D01*
X169466080Y-107096517D01*
X169259423Y-108172007D01*
X168936206Y-108993036D01*
X168469077Y-109658480D01*
X167851271Y-110249947D01*
X167340363Y-110617032D01*
X166784959Y-110825584D01*
X166009267Y-110918008D01*
X165003312Y-110936956D01*
X163888398Y-110899406D01*
X162900611Y-110800841D01*
X162249824Y-110662390D01*
X162240157Y-110658780D01*
X161635491Y-110533233D01*
X161055280Y-110727353D01*
X160652739Y-110989958D01*
X159512895Y-111493749D01*
X158009409Y-111681869D01*
X156234425Y-111550349D01*
X154791304Y-111242482D01*
X153750247Y-110979958D01*
X153068167Y-110874675D01*
X152576759Y-110919953D01*
X152107717Y-111109113D01*
X152058784Y-111134028D01*
X151248846Y-111385534D01*
X150072566Y-111466681D01*
X149246363Y-111443747D01*
X148112470Y-111355485D01*
X147360925Y-111198022D01*
X146822297Y-110923053D01*
X146512260Y-110664218D01*
X145957512Y-110245518D01*
X145327732Y-110061608D01*
X144392720Y-110046765D01*
X144355115Y-110048350D01*
X143396926Y-110050636D01*
X142030265Y-110001533D01*
X140366615Y-109910028D01*
X138517463Y-109785105D01*
X136594292Y-109635749D01*
X134708589Y-109470947D01*
X132971837Y-109299682D01*
X131495522Y-109130941D01*
X130391130Y-108973709D01*
X129946953Y-108887107D01*
X128474148Y-108336421D01*
X127459283Y-107543067D01*
X126909546Y-106583317D01*
X126832128Y-105533438D01*
X127055639Y-104942135D01*
X128228338Y-104942135D01*
X128259216Y-105189288D01*
X128711694Y-105342804D01*
X129633893Y-105423620D01*
X130564674Y-105447882D01*
X132262876Y-105502121D01*
X133470538Y-105619066D01*
X134246863Y-105809692D01*
X134651055Y-106084978D01*
X134720881Y-106218472D01*
X134699331Y-106399055D01*
X134424494Y-106493870D01*
X133806805Y-106510865D01*
X132756699Y-106457988D01*
X132342257Y-106429567D01*
X130679677Y-106357853D01*
X129440840Y-106398698D01*
X128647355Y-106538457D01*
X128320828Y-106763486D01*
X128482865Y-107060141D01*
X129155073Y-107414778D01*
X130215407Y-107772625D01*
X130966598Y-107927717D01*
X132163291Y-108099884D01*
X133699462Y-108279503D01*
X135469086Y-108456955D01*
X137366137Y-108622617D01*
X139284590Y-108766868D01*
X141118419Y-108880087D01*
X142761600Y-108952652D01*
X143402717Y-108969332D01*
X145266304Y-109004347D01*
X145266304Y-107276981D01*
X145293274Y-106575251D01*
X146464197Y-106575251D01*
X146472567Y-108021093D01*
X146753904Y-109059192D01*
X147341634Y-109779312D01*
X147756528Y-110045904D01*
X148497389Y-110252390D01*
X149498494Y-110311247D01*
X150538318Y-110233573D01*
X151395336Y-110030462D01*
X151737611Y-109846498D01*
X152051902Y-109274238D01*
X152184914Y-108334458D01*
X152143519Y-107178765D01*
X151934585Y-105958770D01*
X151564984Y-104826080D01*
X151503939Y-104689808D01*
X151089673Y-103877824D01*
X150719391Y-103282786D01*
X150540332Y-103086014D01*
X150268229Y-102712499D01*
X150295704Y-102296456D01*
X150601874Y-102102173D01*
X151026668Y-102289048D01*
X151569967Y-102744154D01*
X151619739Y-102796047D01*
X152183992Y-103251550D01*
X152551343Y-103210177D01*
X152920610Y-102953222D01*
X153016493Y-102930434D01*
X153101122Y-103187979D01*
X153189892Y-103886874D01*
X153271585Y-104916508D01*
X153328778Y-106009917D01*
X153414882Y-107557439D01*
X153571955Y-108643901D01*
X153871668Y-109360415D01*
X154385695Y-109798096D01*
X155185707Y-110048056D01*
X156343377Y-110201408D01*
X156649077Y-110230844D01*
X158116628Y-110309643D01*
X159148240Y-110199885D01*
X159838799Y-109865074D01*
X160283191Y-109268710D01*
X160474367Y-108759427D01*
X160632999Y-107767861D01*
X160634409Y-107407607D01*
X161862857Y-107407607D01*
X161888272Y-108031212D01*
X161969565Y-109418477D01*
X163073913Y-109586364D01*
X164194540Y-109738013D01*
X164981233Y-109779262D01*
X165641440Y-109708333D01*
X166255967Y-109559114D01*
X167001051Y-109259606D01*
X167552848Y-108782676D01*
X167941244Y-108050873D01*
X168196130Y-106986745D01*
X168347394Y-105512843D01*
X168414470Y-103965760D01*
X168513060Y-100445651D01*
X167436449Y-100445651D01*
X166719201Y-100495585D01*
X166323595Y-100748521D01*
X166033376Y-101359164D01*
X165989213Y-101480977D01*
X165260692Y-103017713D01*
X164253118Y-104479518D01*
X163120358Y-105649983D01*
X162902424Y-105822517D01*
X162251611Y-106349045D01*
X161940801Y-106799631D01*
X161862857Y-107407607D01*
X160634409Y-107407607D01*
X160637857Y-106527042D01*
X160510820Y-105206476D01*
X160273769Y-103975670D01*
X159948586Y-103004128D01*
X159674468Y-102562791D01*
X159236866Y-101897781D01*
X158869574Y-101026694D01*
X158820080Y-100859782D01*
X158625916Y-100284998D01*
X159496383Y-100284998D01*
X159541261Y-100486080D01*
X159853991Y-101204218D01*
X160199932Y-101691810D01*
X160739057Y-102484197D01*
X161210727Y-103498603D01*
X161506725Y-104478233D01*
X161555434Y-104908334D01*
X161586929Y-105240613D01*
X161747243Y-105270084D01*
X162135128Y-104963426D01*
X162551842Y-104572093D01*
X163304565Y-103772027D01*
X163990876Y-102913045D01*
X164168030Y-102654347D01*
X164614147Y-101887868D01*
X164933673Y-101214220D01*
X164973221Y-101103304D01*
X165029947Y-100780632D01*
X164870839Y-100582420D01*
X164385460Y-100453938D01*
X163463377Y-100340452D01*
X163426055Y-100336522D01*
X162272936Y-100209014D01*
X161143636Y-100074018D01*
X160538478Y-99995385D01*
X159819780Y-99917188D01*
X159515807Y-99992375D01*
X159496383Y-100284998D01*
X158625916Y-100284998D01*
X158622588Y-100275146D01*
X158328028Y-99848255D01*
X157812422Y-99467858D01*
X156951795Y-99022706D01*
X156573518Y-98843841D01*
X154626903Y-97932247D01*
X154097093Y-98567754D01*
X153715619Y-99081707D01*
X153558098Y-99400718D01*
X153360879Y-99785848D01*
X152895073Y-100351681D01*
X152315697Y-100939664D01*
X151777768Y-101391244D01*
X151456750Y-101549999D01*
X151049564Y-101306126D01*
X150594401Y-100561711D01*
X150080787Y-99297560D01*
X149836954Y-98582064D01*
X149539792Y-97786135D01*
X149272256Y-97259664D01*
X149139311Y-97132608D01*
X148860237Y-97387550D01*
X148539749Y-98078567D01*
X148213370Y-99094949D01*
X147916619Y-100325981D01*
X147685020Y-101660953D01*
X147683958Y-101668619D01*
X147491705Y-102775162D01*
X147258696Y-103707202D01*
X147028717Y-104296784D01*
X146980629Y-104366555D01*
X146752300Y-104882561D01*
X146560726Y-105745405D01*
X146464197Y-106575251D01*
X145293274Y-106575251D01*
X145308166Y-106187769D01*
X145416216Y-105183608D01*
X145522560Y-104656102D01*
X145778816Y-103762590D01*
X144349190Y-103351200D01*
X141205987Y-102686525D01*
X137878881Y-102416065D01*
X134583815Y-102553222D01*
X133585494Y-102683224D01*
X132272096Y-102909216D01*
X131506406Y-103101926D01*
X131285217Y-103265339D01*
X131605322Y-103403438D01*
X132463514Y-103520208D01*
X132882768Y-103556183D01*
X134252366Y-103689444D01*
X135151536Y-103853262D01*
X135662002Y-104073776D01*
X135865494Y-104377124D01*
X135879348Y-104514574D01*
X135766330Y-104776757D01*
X135340473Y-104822845D01*
X134844021Y-104752846D01*
X133497301Y-104558776D01*
X132100068Y-104429782D01*
X130778574Y-104369336D01*
X129659071Y-104380907D01*
X128867812Y-104467965D01*
X128570935Y-104580406D01*
X128228338Y-104942135D01*
X127055639Y-104942135D01*
X127234218Y-104469702D01*
X128123004Y-103468376D01*
X129361413Y-102675411D01*
X131109404Y-102026635D01*
X133250748Y-101580463D01*
X135663865Y-101340146D01*
X138227177Y-101308939D01*
X140819103Y-101490093D01*
X143318065Y-101886862D01*
X144833262Y-102261440D01*
X145615698Y-102484063D01*
X146137304Y-102626465D01*
X146256811Y-102654347D01*
X146324736Y-102406979D01*
X146433037Y-101771171D01*
X146514397Y-101204890D01*
X146736152Y-100034407D01*
X147120086Y-98750141D01*
X147717098Y-97187848D01*
X147883360Y-96787499D01*
X147930697Y-96440345D01*
X147590324Y-96311982D01*
X147297473Y-96301308D01*
X146470008Y-96252080D01*
X145532431Y-96136706D01*
X145473369Y-96127141D01*
X144785850Y-95916716D01*
X144476447Y-95531983D01*
X144543745Y-94907852D01*
X144986326Y-93979232D01*
X145411414Y-93280184D01*
X145908996Y-92449114D01*
X146255731Y-91774399D01*
X146370652Y-91431914D01*
X146172052Y-91092210D01*
X145652153Y-90534997D01*
X144946378Y-89900643D01*
X143654141Y-88794066D01*
X142810400Y-87959434D01*
X142511810Y-87476845D01*
X144106860Y-87476845D01*
X145997995Y-89251363D01*
X147889130Y-91025880D01*
X146867277Y-92940759D01*
X145845425Y-94855639D01*
X147507115Y-95043637D01*
X148708920Y-95201719D01*
X149454534Y-95367133D01*
X149839348Y-95572749D01*
X149958754Y-95851435D01*
X149959782Y-95888757D01*
X150070879Y-96299326D01*
X150363570Y-97050834D01*
X150776956Y-97988147D01*
X150821214Y-98083189D01*
X151682645Y-99924026D01*
X152397261Y-98873426D01*
X152908603Y-98086355D01*
X153550948Y-97049617D01*
X153792849Y-96644805D01*
X155214215Y-96644805D01*
X155444506Y-96895187D01*
X156057376Y-97260387D01*
X156913554Y-97674748D01*
X157873772Y-98072615D01*
X158798759Y-98388333D01*
X159070652Y-98462827D01*
X159954179Y-98676591D01*
X160712350Y-98825584D01*
X161471302Y-98918999D01*
X162357169Y-98966029D01*
X163496087Y-98975866D01*
X165014191Y-98957703D01*
X165696739Y-98945736D01*
X167490058Y-98895501D01*
X168864850Y-98809256D01*
X169954365Y-98671856D01*
X170891855Y-98468155D01*
X171506277Y-98285415D01*
X173695878Y-97351614D01*
X175832426Y-95971828D01*
X176702973Y-95276009D01*
X177632034Y-94494445D01*
X177186126Y-93181052D01*
X176915617Y-92193307D01*
X176757295Y-91245849D01*
X176740217Y-90942339D01*
X176723673Y-90779025D01*
X177933107Y-90779025D01*
X177990747Y-91971283D01*
X178356379Y-92875039D01*
X179086056Y-93926942D01*
X180070379Y-94990976D01*
X181142225Y-95889534D01*
X181762189Y-96315658D01*
X182180709Y-96558741D01*
X182249347Y-96580434D01*
X182304103Y-96328432D01*
X182304454Y-95663259D01*
X182251062Y-94721167D01*
X182239657Y-94578803D01*
X182178705Y-93369238D01*
X182291610Y-92589525D01*
X182658364Y-92125379D01*
X183358959Y-91862516D01*
X184243141Y-91716409D01*
X185013207Y-91579251D01*
X185494180Y-91426222D01*
X185575000Y-91350867D01*
X185392469Y-91060669D01*
X184934602Y-90558451D01*
X184722980Y-90351109D01*
X183946550Y-89557483D01*
X183582340Y-88947664D01*
X183613975Y-88357317D01*
X184025080Y-87622108D01*
X184399645Y-87106275D01*
X185075940Y-86214022D01*
X185505336Y-85602482D01*
X185637478Y-85234049D01*
X185422016Y-85071119D01*
X184808597Y-85076088D01*
X183746867Y-85211352D01*
X182186475Y-85439305D01*
X182170606Y-85441578D01*
X180936898Y-85878738D01*
X179820959Y-86748751D01*
X178898124Y-87933929D01*
X178243728Y-89316583D01*
X177933107Y-90779025D01*
X176723673Y-90779025D01*
X176674354Y-90292160D01*
X176364427Y-89983058D01*
X175842934Y-89845910D01*
X175361749Y-89800962D01*
X174398568Y-89750333D01*
X173023509Y-89696311D01*
X171306693Y-89641181D01*
X169318240Y-89587232D01*
X167128269Y-89536748D01*
X165211251Y-89499181D01*
X155476850Y-89323560D01*
X155920490Y-90385339D01*
X156139150Y-91282043D01*
X156219054Y-92451762D01*
X156170773Y-93707327D01*
X156004877Y-94861570D01*
X155731939Y-95727323D01*
X155606999Y-95935663D01*
X155299544Y-96415974D01*
X155214215Y-96644805D01*
X153792849Y-96644805D01*
X154158656Y-96032641D01*
X154893414Y-94526420D01*
X155195878Y-93183232D01*
X155087337Y-91851216D01*
X154856169Y-91056989D01*
X154039277Y-89483317D01*
X152829543Y-88120250D01*
X151358747Y-87094053D01*
X150252482Y-86646068D01*
X149410741Y-86542188D01*
X148240022Y-86567018D01*
X146943169Y-86700736D01*
X145723025Y-86923522D01*
X144893647Y-87169705D01*
X144106860Y-87476845D01*
X142511810Y-87476845D01*
X142423898Y-87334759D01*
X142503376Y-86858049D01*
X143057577Y-86467315D01*
X144095243Y-86100568D01*
X145536250Y-85718051D01*
X146407062Y-85473302D01*
X146888284Y-85217362D01*
X146966219Y-85092724D01*
X148321671Y-85092724D01*
X148466731Y-85232732D01*
X148717962Y-85160809D01*
X149510266Y-85101667D01*
X150566080Y-85355286D01*
X151739671Y-85863731D01*
X152885307Y-86569066D01*
X153496094Y-87060376D01*
X154886611Y-88310571D01*
X164985560Y-88258590D01*
X167294577Y-88251585D01*
X169427877Y-88254494D01*
X171322857Y-88266515D01*
X172916915Y-88286847D01*
X174147451Y-88314689D01*
X174951861Y-88349238D01*
X175267545Y-88389694D01*
X175268160Y-88390261D01*
X175648375Y-88518233D01*
X176313405Y-88573839D01*
X176338606Y-88573912D01*
X177031130Y-88464901D01*
X177436927Y-88033117D01*
X177555333Y-87777387D01*
X178029026Y-86963818D01*
X178754310Y-86051747D01*
X179552602Y-85245576D01*
X180164431Y-84791119D01*
X180419622Y-84614501D01*
X180503350Y-84371797D01*
X180396049Y-83940678D01*
X180078153Y-83198815D01*
X179821273Y-82645673D01*
X179000609Y-81069265D01*
X178100125Y-79757436D01*
X176984452Y-78541699D01*
X175518217Y-77253565D01*
X175433378Y-77184319D01*
X174548482Y-76518770D01*
X173494035Y-75806918D01*
X172391535Y-75121068D01*
X171362480Y-74533525D01*
X170528368Y-74116594D01*
X170010696Y-73942579D01*
X169983960Y-73941303D01*
X169878816Y-74180440D01*
X169838043Y-74716796D01*
X169717949Y-75488320D01*
X169419728Y-76072350D01*
X169036473Y-76343782D01*
X168710344Y-76232300D01*
X168562367Y-75947540D01*
X168522538Y-75422450D01*
X168592630Y-74555029D01*
X168760779Y-73333387D01*
X168908074Y-72025448D01*
X169024925Y-70329298D01*
X169102937Y-68408461D01*
X169133713Y-66426459D01*
X169133579Y-66072825D01*
X169117108Y-64205485D01*
X169072744Y-62761345D01*
X168988742Y-61611667D01*
X168853357Y-60627713D01*
X168654841Y-59680747D01*
X168492538Y-59046924D01*
X168155488Y-57887204D01*
X167811667Y-56860566D01*
X167497621Y-56056908D01*
X167249895Y-55566124D01*
X167105035Y-55478113D01*
X167083735Y-55581521D01*
X166980238Y-57110540D01*
X166847178Y-58625874D01*
X166697207Y-60021569D01*
X166542982Y-61191672D01*
X166397157Y-62030227D01*
X166272385Y-62431280D01*
X166264548Y-62440451D01*
X166004937Y-62611209D01*
X165832344Y-62480218D01*
X165742260Y-61996455D01*
X165730174Y-61108896D01*
X165791574Y-59766519D01*
X165895462Y-58265744D01*
X165997818Y-56832789D01*
X166074666Y-55610129D01*
X166120641Y-54696194D01*
X166130380Y-54189417D01*
X166121352Y-54120258D01*
X165727256Y-53980851D01*
X165045540Y-53900830D01*
X164338957Y-53895012D01*
X163870261Y-53978214D01*
X163846622Y-53991979D01*
X163687372Y-54357258D01*
X163513768Y-55206806D01*
X163336821Y-56473298D01*
X163167541Y-58089414D01*
X163156405Y-58212316D01*
X162993220Y-59820137D01*
X162830226Y-61032875D01*
X162675652Y-61800498D01*
X162537733Y-62072976D01*
X162521739Y-62069564D01*
X162394565Y-61741029D01*
X162312443Y-60990248D01*
X162276328Y-59945385D01*
X162287174Y-58734605D01*
X162345936Y-57486071D01*
X162453569Y-56327949D01*
X162477593Y-56143454D01*
X162548256Y-55361150D01*
X162494243Y-55017141D01*
X162410557Y-55040501D01*
X162128984Y-55500671D01*
X161747345Y-56339190D01*
X161323924Y-57405431D01*
X160917009Y-58548761D01*
X160584885Y-59618553D01*
X160471643Y-60051269D01*
X160346163Y-60867198D01*
X160240323Y-62116214D01*
X160157161Y-63679479D01*
X160099713Y-65438157D01*
X160071016Y-67273410D01*
X160074107Y-69066401D01*
X160112024Y-70698292D01*
X160170731Y-71825817D01*
X160304506Y-73713591D01*
X158100079Y-74561578D01*
X156360396Y-75286270D01*
X154976696Y-76017809D01*
X153764544Y-76876376D01*
X152539507Y-77982153D01*
X151970337Y-78555850D01*
X150703358Y-80057808D01*
X149606931Y-81730704D01*
X148784984Y-83399633D01*
X148410343Y-84547025D01*
X148321671Y-85092724D01*
X146966219Y-85092724D01*
X147131347Y-84828642D01*
X147256886Y-84336517D01*
X147713132Y-82928274D01*
X148491849Y-81337542D01*
X149492964Y-79737289D01*
X150616402Y-78300485D01*
X150969206Y-77920091D01*
X152316723Y-76596800D01*
X153501673Y-75603000D01*
X154689198Y-74823770D01*
X156044441Y-74144188D01*
X156945177Y-73761470D01*
X157943236Y-73320916D01*
X158698251Y-72921451D01*
X159098416Y-72625379D01*
X159132904Y-72542369D01*
X159090531Y-72163830D01*
X159030928Y-71352322D01*
X158961957Y-70226480D01*
X158891479Y-68904937D01*
X158890360Y-68882408D01*
X158846426Y-65867453D01*
X159010881Y-63026848D01*
X159369388Y-60419186D01*
X159907614Y-58103060D01*
X160611225Y-56137062D01*
X161465884Y-54579784D01*
X162457259Y-53489818D01*
X162699182Y-53313981D01*
X163485608Y-52874651D01*
X164229890Y-52710628D01*
X165155412Y-52746040D01*
G37*
D12*
%TO.C,D2*%
X162940000Y-71764000D02*
X162940000Y-71920000D01*
X162940000Y-74080000D02*
X162940000Y-74236000D01*
X162940000Y-71764484D02*
G75*
G02*
X166171437Y-71920000I1560000J-1235516D01*
G01*
X163459039Y-71920000D02*
G75*
G02*
X165540961Y-71920000I1040961J-1080000D01*
G01*
X165540961Y-74080000D02*
G75*
G02*
X163459039Y-74080000I-1040961J1080000D01*
G01*
X166171437Y-74080000D02*
G75*
G02*
X162940000Y-74235516I-1671437J1080000D01*
G01*
%TO.C,C1*%
X154630000Y-81130000D02*
X162370000Y-81130000D01*
X154630000Y-83870000D02*
X154630000Y-81130000D01*
X162370000Y-81130000D02*
X162370000Y-83870000D01*
X162370000Y-83870000D02*
X154630000Y-83870000D01*
D14*
%TO.C,U2*%
X158180500Y-86381000D02*
X158180500Y-93239000D01*
X160240440Y-93239000D02*
X160896617Y-93239000D01*
X160896617Y-86381000D02*
X160163383Y-86381000D01*
X162703383Y-93239000D02*
X163436617Y-93239000D01*
X163436617Y-86381000D02*
X162703383Y-86381000D01*
X165243383Y-93239000D02*
X165976617Y-93239000D01*
X165976617Y-86381000D02*
X165243383Y-86381000D01*
X167783383Y-93239000D02*
X168516617Y-93239000D01*
X168516617Y-86381000D02*
X167783383Y-86381000D01*
X170323383Y-93239000D02*
X171056617Y-93239000D01*
X171056617Y-86381000D02*
X170323383Y-86381000D01*
X172863383Y-93239000D02*
X173596617Y-93239000D01*
X173596617Y-86381000D02*
X172863383Y-86381000D01*
X175403383Y-93239000D02*
X176136617Y-93239000D01*
X176136617Y-86381000D02*
X175403383Y-86381000D01*
X178119500Y-93239000D02*
X178119500Y-86381000D01*
D12*
%TO.C,D9*%
X144670000Y-104764000D02*
X144670000Y-104920000D01*
X144670000Y-107080000D02*
X144670000Y-107236000D01*
X144670000Y-104764484D02*
G75*
G02*
X147901437Y-104920000I1560000J-1235516D01*
G01*
X145189039Y-104920000D02*
G75*
G02*
X147270961Y-104920000I1040961J-1080000D01*
G01*
X147270961Y-107080000D02*
G75*
G02*
X145189039Y-107080000I-1040961J1080000D01*
G01*
X147901437Y-107080000D02*
G75*
G02*
X144670000Y-107235516I-1671437J1080000D01*
G01*
%TO.C,D1*%
X163170000Y-65264000D02*
X163170000Y-65420000D01*
X163170000Y-67580000D02*
X163170000Y-67736000D01*
X163170000Y-65264484D02*
G75*
G02*
X166401437Y-65420000I1560000J-1235516D01*
G01*
X163689039Y-65420000D02*
G75*
G02*
X165770961Y-65420000I1040961J-1080000D01*
G01*
X165770961Y-67580000D02*
G75*
G02*
X163689039Y-67580000I-1040961J1080000D01*
G01*
X166401437Y-67580000D02*
G75*
G02*
X163170000Y-67735516I-1671437J1080000D01*
G01*
%TO.C,R1*%
X166730000Y-95130000D02*
X166730000Y-95460000D01*
X166730000Y-97870000D02*
X166730000Y-97540000D01*
X173270000Y-95130000D02*
X166730000Y-95130000D01*
X173270000Y-95460000D02*
X173270000Y-95130000D01*
X173270000Y-97540000D02*
X173270000Y-97870000D01*
X173270000Y-97870000D02*
X166730000Y-97870000D01*
%TO.C,D6*%
X163940000Y-101764000D02*
X163940000Y-101920000D01*
X163940000Y-104080000D02*
X163940000Y-104236000D01*
X163940000Y-101764484D02*
G75*
G02*
X167171437Y-101920000I1560000J-1235516D01*
G01*
X164459039Y-101920000D02*
G75*
G02*
X166540961Y-101920000I1040961J-1080000D01*
G01*
X166540961Y-104080000D02*
G75*
G02*
X164459039Y-104080000I-1040961J1080000D01*
G01*
X167171437Y-104080000D02*
G75*
G02*
X163940000Y-104235516I-1671437J1080000D01*
G01*
%TO.C,D5*%
X179670000Y-88764000D02*
X179670000Y-88920000D01*
X179670000Y-91080000D02*
X179670000Y-91236000D01*
X179670000Y-88764484D02*
G75*
G02*
X182901437Y-88920000I1560000J-1235516D01*
G01*
X180189039Y-88920000D02*
G75*
G02*
X182270961Y-88920000I1040961J-1080000D01*
G01*
X182270961Y-91080000D02*
G75*
G02*
X180189039Y-91080000I-1040961J1080000D01*
G01*
X182901437Y-91080000D02*
G75*
G02*
X179670000Y-91235516I-1671437J1080000D01*
G01*
%TO.C,RV1*%
X132000000Y-102890000D02*
X132000000Y-108110000D01*
X132000000Y-102890000D02*
X134120000Y-102890000D01*
X132000000Y-108110000D02*
X141920000Y-108110000D01*
X134820000Y-102890000D02*
X141920000Y-102890000D01*
X141920000Y-102890000D02*
X141920000Y-108110000D01*
X134420000Y-102890000D02*
X134180000Y-102560000D01*
X134660000Y-102560000D01*
X134420000Y-102890000D01*
G36*
X134420000Y-102890000D02*
G01*
X134180000Y-102560000D01*
X134660000Y-102560000D01*
X134420000Y-102890000D01*
G37*
%TO.C,D10*%
X174670000Y-80264000D02*
X174670000Y-80420000D01*
X174670000Y-82580000D02*
X174670000Y-82736000D01*
X174670000Y-80264484D02*
G75*
G02*
X177901437Y-80420000I1560000J-1235516D01*
G01*
X175189039Y-80420000D02*
G75*
G02*
X177270961Y-80420000I1040961J-1080000D01*
G01*
X177270961Y-82580000D02*
G75*
G02*
X175189039Y-82580000I-1040961J1080000D01*
G01*
X177901437Y-82580000D02*
G75*
G02*
X174670000Y-82735516I-1671437J1080000D01*
G01*
%TO.C,J1*%
X150080000Y-109880000D02*
X150080000Y-108500000D01*
X151460000Y-109880000D02*
X150080000Y-109880000D01*
X152730000Y-107120000D02*
X155380000Y-107120000D01*
X152730000Y-109880000D02*
X152730000Y-107120000D01*
X152730000Y-109880000D02*
X155380000Y-109880000D01*
X155380000Y-109880000D02*
X155380000Y-107120000D01*
%TO.C,D3*%
X156440000Y-76264000D02*
X156440000Y-76420000D01*
X156440000Y-78580000D02*
X156440000Y-78736000D01*
X156440000Y-76264484D02*
G75*
G02*
X159671437Y-76420000I1560000J-1235516D01*
G01*
X156959039Y-76420000D02*
G75*
G02*
X159040961Y-76420000I1040961J-1080000D01*
G01*
X159040961Y-78580000D02*
G75*
G02*
X156959039Y-78580000I-1040961J1080000D01*
G01*
X159671437Y-78580000D02*
G75*
G02*
X156440000Y-78735516I-1671437J1080000D01*
G01*
%TO.C,R2*%
X156420000Y-96130000D02*
X162960000Y-96130000D01*
X156420000Y-96460000D02*
X156420000Y-96130000D01*
X156420000Y-98540000D02*
X156420000Y-98870000D01*
X156420000Y-98870000D02*
X162960000Y-98870000D01*
X162960000Y-96130000D02*
X162960000Y-96460000D01*
X162960000Y-98870000D02*
X162960000Y-98540000D01*
%TO.C,D4*%
X168710000Y-75764000D02*
X168710000Y-75920000D01*
X168710000Y-78080000D02*
X168710000Y-78236000D01*
X168710000Y-75764484D02*
G75*
G02*
X171941437Y-75920000I1560000J-1235516D01*
G01*
X169229039Y-75920000D02*
G75*
G02*
X171310961Y-75920000I1040961J-1080000D01*
G01*
X171310961Y-78080000D02*
G75*
G02*
X169229039Y-78080000I-1040961J1080000D01*
G01*
X171941437Y-78080000D02*
G75*
G02*
X168710000Y-78235516I-1671437J1080000D01*
G01*
%TO.C,D8*%
X149440000Y-99764000D02*
X149440000Y-99920000D01*
X149440000Y-102080000D02*
X149440000Y-102236000D01*
X149440000Y-99764484D02*
G75*
G02*
X152671437Y-99920000I1560000J-1235516D01*
G01*
X149959039Y-99920000D02*
G75*
G02*
X152040961Y-99920000I1040961J-1080000D01*
G01*
X152040961Y-102080000D02*
G75*
G02*
X149959039Y-102080000I-1040961J1080000D01*
G01*
X152671437Y-102080000D02*
G75*
G02*
X149440000Y-102235516I-1671437J1080000D01*
G01*
%TO.C,D7*%
X156440000Y-103264000D02*
X156440000Y-103420000D01*
X156440000Y-105580000D02*
X156440000Y-105736000D01*
X156440000Y-103264484D02*
G75*
G02*
X159671437Y-103420000I1560000J-1235516D01*
G01*
X156959039Y-103420000D02*
G75*
G02*
X159040961Y-103420000I1040961J-1080000D01*
G01*
X159040961Y-105580000D02*
G75*
G02*
X156959039Y-105580000I-1040961J1080000D01*
G01*
X159671437Y-105580000D02*
G75*
G02*
X156440000Y-105735516I-1671437J1080000D01*
G01*
%TO.C,U1*%
X149845000Y-85110000D02*
X149845000Y-95390000D01*
X149845000Y-95390000D02*
X151495000Y-95390000D01*
X153495000Y-95390000D02*
X155145000Y-95390000D01*
X155145000Y-85110000D02*
X149845000Y-85110000D01*
X155145000Y-95390000D02*
X155145000Y-85110000D01*
X151495000Y-95390000D02*
G75*
G02*
X153495000Y-95390000I1000000J0D01*
G01*
%TO.C,C4*%
X161695225Y-58525000D02*
X162195225Y-58525000D01*
X161945225Y-58275000D02*
X161945225Y-58775000D01*
X164500000Y-57420000D02*
X164500000Y-58960000D01*
X164500000Y-61040000D02*
X164500000Y-62580000D01*
X164540000Y-57420000D02*
X164540000Y-58960000D01*
X164540000Y-61040000D02*
X164540000Y-62580000D01*
X164580000Y-57421000D02*
X164580000Y-58960000D01*
X164580000Y-61040000D02*
X164580000Y-62579000D01*
X164620000Y-57423000D02*
X164620000Y-58960000D01*
X164620000Y-61040000D02*
X164620000Y-62577000D01*
X164660000Y-57425000D02*
X164660000Y-58960000D01*
X164660000Y-61040000D02*
X164660000Y-62575000D01*
X164700000Y-57428000D02*
X164700000Y-58960000D01*
X164700000Y-61040000D02*
X164700000Y-62572000D01*
X164740000Y-57431000D02*
X164740000Y-58960000D01*
X164740000Y-61040000D02*
X164740000Y-62569000D01*
X164780000Y-57435000D02*
X164780000Y-58960000D01*
X164780000Y-61040000D02*
X164780000Y-62565000D01*
X164820000Y-57440000D02*
X164820000Y-58960000D01*
X164820000Y-61040000D02*
X164820000Y-62560000D01*
X164860000Y-57445000D02*
X164860000Y-58960000D01*
X164860000Y-61040000D02*
X164860000Y-62555000D01*
X164900000Y-57451000D02*
X164900000Y-58960000D01*
X164900000Y-61040000D02*
X164900000Y-62549000D01*
X164940000Y-57457000D02*
X164940000Y-58960000D01*
X164940000Y-61040000D02*
X164940000Y-62543000D01*
X164980000Y-57464000D02*
X164980000Y-58960000D01*
X164980000Y-61040000D02*
X164980000Y-62536000D01*
X165020000Y-57472000D02*
X165020000Y-58960000D01*
X165020000Y-61040000D02*
X165020000Y-62528000D01*
X165060000Y-57481000D02*
X165060000Y-58960000D01*
X165060000Y-61040000D02*
X165060000Y-62519000D01*
X165100000Y-57490000D02*
X165100000Y-58960000D01*
X165100000Y-61040000D02*
X165100000Y-62510000D01*
X165140000Y-57499000D02*
X165140000Y-58960000D01*
X165140000Y-61040000D02*
X165140000Y-62501000D01*
X165180000Y-57510000D02*
X165180000Y-58960000D01*
X165180000Y-61040000D02*
X165180000Y-62490000D01*
X165220000Y-57521000D02*
X165220000Y-58960000D01*
X165220000Y-61040000D02*
X165220000Y-62479000D01*
X165260000Y-57533000D02*
X165260000Y-58960000D01*
X165260000Y-61040000D02*
X165260000Y-62467000D01*
X165300000Y-57545000D02*
X165300000Y-58960000D01*
X165300000Y-61040000D02*
X165300000Y-62455000D01*
X165340000Y-57558000D02*
X165340000Y-58960000D01*
X165340000Y-61040000D02*
X165340000Y-62442000D01*
X165380000Y-57572000D02*
X165380000Y-58960000D01*
X165380000Y-61040000D02*
X165380000Y-62428000D01*
X165420000Y-57587000D02*
X165420000Y-58960000D01*
X165420000Y-61040000D02*
X165420000Y-62413000D01*
X165460000Y-57602000D02*
X165460000Y-58960000D01*
X165460000Y-61040000D02*
X165460000Y-62398000D01*
X165500000Y-57618000D02*
X165500000Y-58960000D01*
X165500000Y-61040000D02*
X165500000Y-62382000D01*
X165540000Y-57635000D02*
X165540000Y-58960000D01*
X165540000Y-61040000D02*
X165540000Y-62365000D01*
X165580000Y-57653000D02*
X165580000Y-58960000D01*
X165580000Y-61040000D02*
X165580000Y-62347000D01*
X165620000Y-57671000D02*
X165620000Y-58960000D01*
X165620000Y-61040000D02*
X165620000Y-62329000D01*
X165660000Y-57691000D02*
X165660000Y-58960000D01*
X165660000Y-61040000D02*
X165660000Y-62309000D01*
X165700000Y-57711000D02*
X165700000Y-58960000D01*
X165700000Y-61040000D02*
X165700000Y-62289000D01*
X165740000Y-57732000D02*
X165740000Y-58960000D01*
X165740000Y-61040000D02*
X165740000Y-62268000D01*
X165780000Y-57754000D02*
X165780000Y-58960000D01*
X165780000Y-61040000D02*
X165780000Y-62246000D01*
X165820000Y-57777000D02*
X165820000Y-58960000D01*
X165820000Y-61040000D02*
X165820000Y-62223000D01*
X165860000Y-57801000D02*
X165860000Y-58960000D01*
X165860000Y-61040000D02*
X165860000Y-62199000D01*
X165900000Y-57825000D02*
X165900000Y-58960000D01*
X165900000Y-61040000D02*
X165900000Y-62175000D01*
X165940000Y-57851000D02*
X165940000Y-58960000D01*
X165940000Y-61040000D02*
X165940000Y-62149000D01*
X165980000Y-57878000D02*
X165980000Y-58960000D01*
X165980000Y-61040000D02*
X165980000Y-62122000D01*
X166020000Y-57906000D02*
X166020000Y-58960000D01*
X166020000Y-61040000D02*
X166020000Y-62094000D01*
X166060000Y-57935000D02*
X166060000Y-58960000D01*
X166060000Y-61040000D02*
X166060000Y-62065000D01*
X166100000Y-57965000D02*
X166100000Y-58960000D01*
X166100000Y-61040000D02*
X166100000Y-62035000D01*
X166140000Y-57997000D02*
X166140000Y-58960000D01*
X166140000Y-61040000D02*
X166140000Y-62003000D01*
X166180000Y-58030000D02*
X166180000Y-58960000D01*
X166180000Y-61040000D02*
X166180000Y-61970000D01*
X166220000Y-58064000D02*
X166220000Y-58960000D01*
X166220000Y-61040000D02*
X166220000Y-61936000D01*
X166260000Y-58099000D02*
X166260000Y-58960000D01*
X166260000Y-61040000D02*
X166260000Y-61901000D01*
X166300000Y-58136000D02*
X166300000Y-58960000D01*
X166300000Y-61040000D02*
X166300000Y-61864000D01*
X166340000Y-58175000D02*
X166340000Y-58960000D01*
X166340000Y-61040000D02*
X166340000Y-61825000D01*
X166380000Y-58215000D02*
X166380000Y-58960000D01*
X166380000Y-61040000D02*
X166380000Y-61785000D01*
X166420000Y-58257000D02*
X166420000Y-58960000D01*
X166420000Y-61040000D02*
X166420000Y-61743000D01*
X166460000Y-58301000D02*
X166460000Y-58960000D01*
X166460000Y-61040000D02*
X166460000Y-61699000D01*
X166500000Y-58348000D02*
X166500000Y-58960000D01*
X166500000Y-61040000D02*
X166500000Y-61652000D01*
X166540000Y-58396000D02*
X166540000Y-61604000D01*
X166580000Y-58447000D02*
X166580000Y-61553000D01*
X166620000Y-58501000D02*
X166620000Y-61499000D01*
X166660000Y-58557000D02*
X166660000Y-61443000D01*
X166700000Y-58617000D02*
X166700000Y-61383000D01*
X166740000Y-58681000D02*
X166740000Y-61319000D01*
X166780000Y-58749000D02*
X166780000Y-61251000D01*
X166820000Y-58823000D02*
X166820000Y-61177000D01*
X166860000Y-58902000D02*
X166860000Y-61098000D01*
X166900000Y-58989000D02*
X166900000Y-61011000D01*
X166940000Y-59086000D02*
X166940000Y-60914000D01*
X166980000Y-59195000D02*
X166980000Y-60805000D01*
X167020000Y-59323000D02*
X167020000Y-60677000D01*
X167060000Y-59483000D02*
X167060000Y-60517000D01*
X167100000Y-59717000D02*
X167100000Y-60283000D01*
X167120000Y-60000000D02*
G75*
G02*
X161880000Y-60000000I-2620000J0D01*
G01*
X161880000Y-60000000D02*
G75*
G02*
X167120000Y-60000000I2620000J0D01*
G01*
%TD*%
M02*
