%TF.GenerationSoftware,KiCad,Pcbnew,9.0.7-9.0.7~ubuntu24.04.1*%
%TF.CreationDate,2026-02-18T21:25:45+05:30*%
%TF.ProjectId,mudkip-themed-chaser,6d75646b-6970-42d7-9468-656d65642d63,rev?*%
%TF.SameCoordinates,Original*%
%TF.FileFunction,Legend,Bot*%
%TF.FilePolarity,Positive*%
%FSLAX46Y46*%
G04 Gerber Fmt 4.6, Leading zero omitted, Abs format (unit mm)*
G04 Created by KiCad (PCBNEW 9.0.7-9.0.7~ubuntu24.04.1) date 2026-02-18 21:25:45*
%MOMM*%
%LPD*%
G01*
G04 APERTURE LIST*
%ADD10C,0.375000*%
%ADD11C,0.500000*%
G04 APERTURE END LIST*
D10*
X168599998Y-100466970D02*
X169457141Y-100466970D01*
X169028570Y-100466970D02*
X169028570Y-98966970D01*
X169028570Y-98966970D02*
X169171427Y-99181256D01*
X169171427Y-99181256D02*
X169314284Y-99324113D01*
X169314284Y-99324113D02*
X169457141Y-99395542D01*
X167671427Y-98966970D02*
X167528570Y-98966970D01*
X167528570Y-98966970D02*
X167385713Y-99038399D01*
X167385713Y-99038399D02*
X167314285Y-99109827D01*
X167314285Y-99109827D02*
X167242856Y-99252684D01*
X167242856Y-99252684D02*
X167171427Y-99538399D01*
X167171427Y-99538399D02*
X167171427Y-99895542D01*
X167171427Y-99895542D02*
X167242856Y-100181256D01*
X167242856Y-100181256D02*
X167314285Y-100324113D01*
X167314285Y-100324113D02*
X167385713Y-100395542D01*
X167385713Y-100395542D02*
X167528570Y-100466970D01*
X167528570Y-100466970D02*
X167671427Y-100466970D01*
X167671427Y-100466970D02*
X167814285Y-100395542D01*
X167814285Y-100395542D02*
X167885713Y-100324113D01*
X167885713Y-100324113D02*
X167957142Y-100181256D01*
X167957142Y-100181256D02*
X168028570Y-99895542D01*
X168028570Y-99895542D02*
X168028570Y-99538399D01*
X168028570Y-99538399D02*
X167957142Y-99252684D01*
X167957142Y-99252684D02*
X167885713Y-99109827D01*
X167885713Y-99109827D02*
X167814285Y-99038399D01*
X167814285Y-99038399D02*
X167671427Y-98966970D01*
X166242856Y-98966970D02*
X166099999Y-98966970D01*
X166099999Y-98966970D02*
X165957142Y-99038399D01*
X165957142Y-99038399D02*
X165885714Y-99109827D01*
X165885714Y-99109827D02*
X165814285Y-99252684D01*
X165814285Y-99252684D02*
X165742856Y-99538399D01*
X165742856Y-99538399D02*
X165742856Y-99895542D01*
X165742856Y-99895542D02*
X165814285Y-100181256D01*
X165814285Y-100181256D02*
X165885714Y-100324113D01*
X165885714Y-100324113D02*
X165957142Y-100395542D01*
X165957142Y-100395542D02*
X166099999Y-100466970D01*
X166099999Y-100466970D02*
X166242856Y-100466970D01*
X166242856Y-100466970D02*
X166385714Y-100395542D01*
X166385714Y-100395542D02*
X166457142Y-100324113D01*
X166457142Y-100324113D02*
X166528571Y-100181256D01*
X166528571Y-100181256D02*
X166599999Y-99895542D01*
X166599999Y-99895542D02*
X166599999Y-99538399D01*
X166599999Y-99538399D02*
X166528571Y-99252684D01*
X166528571Y-99252684D02*
X166457142Y-99109827D01*
X166457142Y-99109827D02*
X166385714Y-99038399D01*
X166385714Y-99038399D02*
X166242856Y-98966970D01*
X164814285Y-98966970D02*
X164671428Y-98966970D01*
X164671428Y-98966970D02*
X164528571Y-99038399D01*
X164528571Y-99038399D02*
X164457143Y-99109827D01*
X164457143Y-99109827D02*
X164385714Y-99252684D01*
X164385714Y-99252684D02*
X164314285Y-99538399D01*
X164314285Y-99538399D02*
X164314285Y-99895542D01*
X164314285Y-99895542D02*
X164385714Y-100181256D01*
X164385714Y-100181256D02*
X164457143Y-100324113D01*
X164457143Y-100324113D02*
X164528571Y-100395542D01*
X164528571Y-100395542D02*
X164671428Y-100466970D01*
X164671428Y-100466970D02*
X164814285Y-100466970D01*
X164814285Y-100466970D02*
X164957143Y-100395542D01*
X164957143Y-100395542D02*
X165028571Y-100324113D01*
X165028571Y-100324113D02*
X165100000Y-100181256D01*
X165100000Y-100181256D02*
X165171428Y-99895542D01*
X165171428Y-99895542D02*
X165171428Y-99538399D01*
X165171428Y-99538399D02*
X165100000Y-99252684D01*
X165100000Y-99252684D02*
X165028571Y-99109827D01*
X165028571Y-99109827D02*
X164957143Y-99038399D01*
X164957143Y-99038399D02*
X164814285Y-98966970D01*
X163385714Y-98966970D02*
X163242857Y-98966970D01*
X163242857Y-98966970D02*
X163100000Y-99038399D01*
X163100000Y-99038399D02*
X163028572Y-99109827D01*
X163028572Y-99109827D02*
X162957143Y-99252684D01*
X162957143Y-99252684D02*
X162885714Y-99538399D01*
X162885714Y-99538399D02*
X162885714Y-99895542D01*
X162885714Y-99895542D02*
X162957143Y-100181256D01*
X162957143Y-100181256D02*
X163028572Y-100324113D01*
X163028572Y-100324113D02*
X163100000Y-100395542D01*
X163100000Y-100395542D02*
X163242857Y-100466970D01*
X163242857Y-100466970D02*
X163385714Y-100466970D01*
X163385714Y-100466970D02*
X163528572Y-100395542D01*
X163528572Y-100395542D02*
X163600000Y-100324113D01*
X163600000Y-100324113D02*
X163671429Y-100181256D01*
X163671429Y-100181256D02*
X163742857Y-99895542D01*
X163742857Y-99895542D02*
X163742857Y-99538399D01*
X163742857Y-99538399D02*
X163671429Y-99252684D01*
X163671429Y-99252684D02*
X163600000Y-99109827D01*
X163600000Y-99109827D02*
X163528572Y-99038399D01*
X163528572Y-99038399D02*
X163385714Y-98966970D01*
X162385715Y-100466970D02*
X161600001Y-99466970D01*
X162385715Y-99466970D02*
X161600001Y-100466970D01*
X160028572Y-99466970D02*
X159742858Y-100466970D01*
X159742858Y-100466970D02*
X159457143Y-99752684D01*
X159457143Y-99752684D02*
X159171429Y-100466970D01*
X159171429Y-100466970D02*
X158885715Y-99466970D01*
X157742857Y-100395542D02*
X157885714Y-100466970D01*
X157885714Y-100466970D02*
X158171429Y-100466970D01*
X158171429Y-100466970D02*
X158314286Y-100395542D01*
X158314286Y-100395542D02*
X158385714Y-100252684D01*
X158385714Y-100252684D02*
X158385714Y-99681256D01*
X158385714Y-99681256D02*
X158314286Y-99538399D01*
X158314286Y-99538399D02*
X158171429Y-99466970D01*
X158171429Y-99466970D02*
X157885714Y-99466970D01*
X157885714Y-99466970D02*
X157742857Y-99538399D01*
X157742857Y-99538399D02*
X157671429Y-99681256D01*
X157671429Y-99681256D02*
X157671429Y-99824113D01*
X157671429Y-99824113D02*
X158385714Y-99966970D01*
X156385715Y-100466970D02*
X156385715Y-99681256D01*
X156385715Y-99681256D02*
X156457143Y-99538399D01*
X156457143Y-99538399D02*
X156600000Y-99466970D01*
X156600000Y-99466970D02*
X156885715Y-99466970D01*
X156885715Y-99466970D02*
X157028572Y-99538399D01*
X156385715Y-100395542D02*
X156528572Y-100466970D01*
X156528572Y-100466970D02*
X156885715Y-100466970D01*
X156885715Y-100466970D02*
X157028572Y-100395542D01*
X157028572Y-100395542D02*
X157100000Y-100252684D01*
X157100000Y-100252684D02*
X157100000Y-100109827D01*
X157100000Y-100109827D02*
X157028572Y-99966970D01*
X157028572Y-99966970D02*
X156885715Y-99895542D01*
X156885715Y-99895542D02*
X156528572Y-99895542D01*
X156528572Y-99895542D02*
X156385715Y-99824113D01*
X155671429Y-100466970D02*
X155671429Y-98966970D01*
X155528572Y-99895542D02*
X155100000Y-100466970D01*
X155100000Y-99466970D02*
X155671429Y-100038399D01*
X153528571Y-99466970D02*
X152957143Y-99466970D01*
X153314286Y-98966970D02*
X153314286Y-100252684D01*
X153314286Y-100252684D02*
X153242857Y-100395542D01*
X153242857Y-100395542D02*
X153100000Y-100466970D01*
X153100000Y-100466970D02*
X152957143Y-100466970D01*
X152242857Y-100466970D02*
X152385714Y-100395542D01*
X152385714Y-100395542D02*
X152457143Y-100324113D01*
X152457143Y-100324113D02*
X152528571Y-100181256D01*
X152528571Y-100181256D02*
X152528571Y-99752684D01*
X152528571Y-99752684D02*
X152457143Y-99609827D01*
X152457143Y-99609827D02*
X152385714Y-99538399D01*
X152385714Y-99538399D02*
X152242857Y-99466970D01*
X152242857Y-99466970D02*
X152028571Y-99466970D01*
X152028571Y-99466970D02*
X151885714Y-99538399D01*
X151885714Y-99538399D02*
X151814286Y-99609827D01*
X151814286Y-99609827D02*
X151742857Y-99752684D01*
X151742857Y-99752684D02*
X151742857Y-100181256D01*
X151742857Y-100181256D02*
X151814286Y-100324113D01*
X151814286Y-100324113D02*
X151885714Y-100395542D01*
X151885714Y-100395542D02*
X152028571Y-100466970D01*
X152028571Y-100466970D02*
X152242857Y-100466970D01*
X163385714Y-101881886D02*
X163100000Y-102881886D01*
X163100000Y-102881886D02*
X162814285Y-102167600D01*
X162814285Y-102167600D02*
X162528571Y-102881886D01*
X162528571Y-102881886D02*
X162242857Y-101881886D01*
X161028571Y-102881886D02*
X161028571Y-102096172D01*
X161028571Y-102096172D02*
X161099999Y-101953315D01*
X161099999Y-101953315D02*
X161242856Y-101881886D01*
X161242856Y-101881886D02*
X161528571Y-101881886D01*
X161528571Y-101881886D02*
X161671428Y-101953315D01*
X161028571Y-102810458D02*
X161171428Y-102881886D01*
X161171428Y-102881886D02*
X161528571Y-102881886D01*
X161528571Y-102881886D02*
X161671428Y-102810458D01*
X161671428Y-102810458D02*
X161742856Y-102667600D01*
X161742856Y-102667600D02*
X161742856Y-102524743D01*
X161742856Y-102524743D02*
X161671428Y-102381886D01*
X161671428Y-102381886D02*
X161528571Y-102310458D01*
X161528571Y-102310458D02*
X161171428Y-102310458D01*
X161171428Y-102310458D02*
X161028571Y-102239029D01*
X160528570Y-101881886D02*
X159957142Y-101881886D01*
X160314285Y-101381886D02*
X160314285Y-102667600D01*
X160314285Y-102667600D02*
X160242856Y-102810458D01*
X160242856Y-102810458D02*
X160099999Y-102881886D01*
X160099999Y-102881886D02*
X159957142Y-102881886D01*
X158885713Y-102810458D02*
X159028570Y-102881886D01*
X159028570Y-102881886D02*
X159314285Y-102881886D01*
X159314285Y-102881886D02*
X159457142Y-102810458D01*
X159457142Y-102810458D02*
X159528570Y-102667600D01*
X159528570Y-102667600D02*
X159528570Y-102096172D01*
X159528570Y-102096172D02*
X159457142Y-101953315D01*
X159457142Y-101953315D02*
X159314285Y-101881886D01*
X159314285Y-101881886D02*
X159028570Y-101881886D01*
X159028570Y-101881886D02*
X158885713Y-101953315D01*
X158885713Y-101953315D02*
X158814285Y-102096172D01*
X158814285Y-102096172D02*
X158814285Y-102239029D01*
X158814285Y-102239029D02*
X159528570Y-102381886D01*
X158171428Y-102881886D02*
X158171428Y-101881886D01*
X158171428Y-102167600D02*
X158099999Y-102024743D01*
X158099999Y-102024743D02*
X158028571Y-101953315D01*
X158028571Y-101953315D02*
X157885713Y-101881886D01*
X157885713Y-101881886D02*
X157742856Y-101881886D01*
X164874428Y-58321428D02*
X163374428Y-58321428D01*
X164874428Y-58964286D02*
X164088714Y-58964286D01*
X164088714Y-58964286D02*
X163945857Y-58892857D01*
X163945857Y-58892857D02*
X163874428Y-58750000D01*
X163874428Y-58750000D02*
X163874428Y-58535714D01*
X163874428Y-58535714D02*
X163945857Y-58392857D01*
X163945857Y-58392857D02*
X164017285Y-58321428D01*
X164803000Y-60250000D02*
X164874428Y-60107143D01*
X164874428Y-60107143D02*
X164874428Y-59821429D01*
X164874428Y-59821429D02*
X164803000Y-59678571D01*
X164803000Y-59678571D02*
X164660142Y-59607143D01*
X164660142Y-59607143D02*
X164088714Y-59607143D01*
X164088714Y-59607143D02*
X163945857Y-59678571D01*
X163945857Y-59678571D02*
X163874428Y-59821429D01*
X163874428Y-59821429D02*
X163874428Y-60107143D01*
X163874428Y-60107143D02*
X163945857Y-60250000D01*
X163945857Y-60250000D02*
X164088714Y-60321429D01*
X164088714Y-60321429D02*
X164231571Y-60321429D01*
X164231571Y-60321429D02*
X164374428Y-59607143D01*
X164874428Y-60964285D02*
X163374428Y-60964285D01*
X164874428Y-61607143D02*
X164088714Y-61607143D01*
X164088714Y-61607143D02*
X163945857Y-61535714D01*
X163945857Y-61535714D02*
X163874428Y-61392857D01*
X163874428Y-61392857D02*
X163874428Y-61178571D01*
X163874428Y-61178571D02*
X163945857Y-61035714D01*
X163945857Y-61035714D02*
X164017285Y-60964285D01*
X164803000Y-62892857D02*
X164874428Y-62750000D01*
X164874428Y-62750000D02*
X164874428Y-62464286D01*
X164874428Y-62464286D02*
X164803000Y-62321428D01*
X164803000Y-62321428D02*
X164660142Y-62250000D01*
X164660142Y-62250000D02*
X164088714Y-62250000D01*
X164088714Y-62250000D02*
X163945857Y-62321428D01*
X163945857Y-62321428D02*
X163874428Y-62464286D01*
X163874428Y-62464286D02*
X163874428Y-62750000D01*
X163874428Y-62750000D02*
X163945857Y-62892857D01*
X163945857Y-62892857D02*
X164088714Y-62964286D01*
X164088714Y-62964286D02*
X164231571Y-62964286D01*
X164231571Y-62964286D02*
X164374428Y-62250000D01*
X164874428Y-63607142D02*
X163374428Y-63607142D01*
X164874428Y-64250000D02*
X164088714Y-64250000D01*
X164088714Y-64250000D02*
X163945857Y-64178571D01*
X163945857Y-64178571D02*
X163874428Y-64035714D01*
X163874428Y-64035714D02*
X163874428Y-63821428D01*
X163874428Y-63821428D02*
X163945857Y-63678571D01*
X163945857Y-63678571D02*
X164017285Y-63607142D01*
X164803000Y-65535714D02*
X164874428Y-65392857D01*
X164874428Y-65392857D02*
X164874428Y-65107143D01*
X164874428Y-65107143D02*
X164803000Y-64964285D01*
X164803000Y-64964285D02*
X164660142Y-64892857D01*
X164660142Y-64892857D02*
X164088714Y-64892857D01*
X164088714Y-64892857D02*
X163945857Y-64964285D01*
X163945857Y-64964285D02*
X163874428Y-65107143D01*
X163874428Y-65107143D02*
X163874428Y-65392857D01*
X163874428Y-65392857D02*
X163945857Y-65535714D01*
X163945857Y-65535714D02*
X164088714Y-65607143D01*
X164088714Y-65607143D02*
X164231571Y-65607143D01*
X164231571Y-65607143D02*
X164374428Y-64892857D01*
X164874428Y-66249999D02*
X163374428Y-66249999D01*
X164874428Y-66892857D02*
X164088714Y-66892857D01*
X164088714Y-66892857D02*
X163945857Y-66821428D01*
X163945857Y-66821428D02*
X163874428Y-66678571D01*
X163874428Y-66678571D02*
X163874428Y-66464285D01*
X163874428Y-66464285D02*
X163945857Y-66321428D01*
X163945857Y-66321428D02*
X164017285Y-66249999D01*
X164803000Y-68178571D02*
X164874428Y-68035714D01*
X164874428Y-68035714D02*
X164874428Y-67750000D01*
X164874428Y-67750000D02*
X164803000Y-67607142D01*
X164803000Y-67607142D02*
X164660142Y-67535714D01*
X164660142Y-67535714D02*
X164088714Y-67535714D01*
X164088714Y-67535714D02*
X163945857Y-67607142D01*
X163945857Y-67607142D02*
X163874428Y-67750000D01*
X163874428Y-67750000D02*
X163874428Y-68035714D01*
X163874428Y-68035714D02*
X163945857Y-68178571D01*
X163945857Y-68178571D02*
X164088714Y-68250000D01*
X164088714Y-68250000D02*
X164231571Y-68250000D01*
X164231571Y-68250000D02*
X164374428Y-67535714D01*
X164874428Y-68892856D02*
X163374428Y-68892856D01*
X164874428Y-69535714D02*
X164088714Y-69535714D01*
X164088714Y-69535714D02*
X163945857Y-69464285D01*
X163945857Y-69464285D02*
X163874428Y-69321428D01*
X163874428Y-69321428D02*
X163874428Y-69107142D01*
X163874428Y-69107142D02*
X163945857Y-68964285D01*
X163945857Y-68964285D02*
X164017285Y-68892856D01*
X164803000Y-70821428D02*
X164874428Y-70678571D01*
X164874428Y-70678571D02*
X164874428Y-70392857D01*
X164874428Y-70392857D02*
X164803000Y-70249999D01*
X164803000Y-70249999D02*
X164660142Y-70178571D01*
X164660142Y-70178571D02*
X164088714Y-70178571D01*
X164088714Y-70178571D02*
X163945857Y-70249999D01*
X163945857Y-70249999D02*
X163874428Y-70392857D01*
X163874428Y-70392857D02*
X163874428Y-70678571D01*
X163874428Y-70678571D02*
X163945857Y-70821428D01*
X163945857Y-70821428D02*
X164088714Y-70892857D01*
X164088714Y-70892857D02*
X164231571Y-70892857D01*
X164231571Y-70892857D02*
X164374428Y-70178571D01*
X164731571Y-71535713D02*
X164803000Y-71607142D01*
X164803000Y-71607142D02*
X164874428Y-71535713D01*
X164874428Y-71535713D02*
X164803000Y-71464285D01*
X164803000Y-71464285D02*
X164731571Y-71535713D01*
X164731571Y-71535713D02*
X164874428Y-71535713D01*
X164731571Y-72249999D02*
X164803000Y-72321428D01*
X164803000Y-72321428D02*
X164874428Y-72249999D01*
X164874428Y-72249999D02*
X164803000Y-72178571D01*
X164803000Y-72178571D02*
X164731571Y-72249999D01*
X164731571Y-72249999D02*
X164874428Y-72249999D01*
X164731571Y-72964285D02*
X164803000Y-73035714D01*
X164803000Y-73035714D02*
X164874428Y-72964285D01*
X164874428Y-72964285D02*
X164803000Y-72892857D01*
X164803000Y-72892857D02*
X164731571Y-72964285D01*
X164731571Y-72964285D02*
X164874428Y-72964285D01*
X164731571Y-73678571D02*
X164803000Y-73750000D01*
X164803000Y-73750000D02*
X164874428Y-73678571D01*
X164874428Y-73678571D02*
X164803000Y-73607143D01*
X164803000Y-73607143D02*
X164731571Y-73678571D01*
X164731571Y-73678571D02*
X164874428Y-73678571D01*
X173457143Y-75659512D02*
X173457143Y-76659512D01*
X173457143Y-75802369D02*
X173385714Y-75730941D01*
X173385714Y-75730941D02*
X173242857Y-75659512D01*
X173242857Y-75659512D02*
X173028571Y-75659512D01*
X173028571Y-75659512D02*
X172885714Y-75730941D01*
X172885714Y-75730941D02*
X172814286Y-75873798D01*
X172814286Y-75873798D02*
X172814286Y-76659512D01*
X171885714Y-76659512D02*
X172028571Y-76588084D01*
X172028571Y-76588084D02*
X172100000Y-76516655D01*
X172100000Y-76516655D02*
X172171428Y-76373798D01*
X172171428Y-76373798D02*
X172171428Y-75945226D01*
X172171428Y-75945226D02*
X172100000Y-75802369D01*
X172100000Y-75802369D02*
X172028571Y-75730941D01*
X172028571Y-75730941D02*
X171885714Y-75659512D01*
X171885714Y-75659512D02*
X171671428Y-75659512D01*
X171671428Y-75659512D02*
X171528571Y-75730941D01*
X171528571Y-75730941D02*
X171457143Y-75802369D01*
X171457143Y-75802369D02*
X171385714Y-75945226D01*
X171385714Y-75945226D02*
X171385714Y-76373798D01*
X171385714Y-76373798D02*
X171457143Y-76516655D01*
X171457143Y-76516655D02*
X171528571Y-76588084D01*
X171528571Y-76588084D02*
X171671428Y-76659512D01*
X171671428Y-76659512D02*
X171885714Y-76659512D01*
X170957142Y-75659512D02*
X170385714Y-75659512D01*
X170742857Y-75159512D02*
X170742857Y-76445226D01*
X170742857Y-76445226D02*
X170671428Y-76588084D01*
X170671428Y-76588084D02*
X170528571Y-76659512D01*
X170528571Y-76659512D02*
X170385714Y-76659512D01*
X168885714Y-75659512D02*
X168600000Y-76659512D01*
X168600000Y-76659512D02*
X168314285Y-75945226D01*
X168314285Y-75945226D02*
X168028571Y-76659512D01*
X168028571Y-76659512D02*
X167742857Y-75659512D01*
X166528571Y-76659512D02*
X166528571Y-75873798D01*
X166528571Y-75873798D02*
X166599999Y-75730941D01*
X166599999Y-75730941D02*
X166742856Y-75659512D01*
X166742856Y-75659512D02*
X167028571Y-75659512D01*
X167028571Y-75659512D02*
X167171428Y-75730941D01*
X166528571Y-76588084D02*
X166671428Y-76659512D01*
X166671428Y-76659512D02*
X167028571Y-76659512D01*
X167028571Y-76659512D02*
X167171428Y-76588084D01*
X167171428Y-76588084D02*
X167242856Y-76445226D01*
X167242856Y-76445226D02*
X167242856Y-76302369D01*
X167242856Y-76302369D02*
X167171428Y-76159512D01*
X167171428Y-76159512D02*
X167028571Y-76088084D01*
X167028571Y-76088084D02*
X166671428Y-76088084D01*
X166671428Y-76088084D02*
X166528571Y-76016655D01*
X166028570Y-75659512D02*
X165457142Y-75659512D01*
X165814285Y-75159512D02*
X165814285Y-76445226D01*
X165814285Y-76445226D02*
X165742856Y-76588084D01*
X165742856Y-76588084D02*
X165599999Y-76659512D01*
X165599999Y-76659512D02*
X165457142Y-76659512D01*
X164385713Y-76588084D02*
X164528570Y-76659512D01*
X164528570Y-76659512D02*
X164814285Y-76659512D01*
X164814285Y-76659512D02*
X164957142Y-76588084D01*
X164957142Y-76588084D02*
X165028570Y-76445226D01*
X165028570Y-76445226D02*
X165028570Y-75873798D01*
X165028570Y-75873798D02*
X164957142Y-75730941D01*
X164957142Y-75730941D02*
X164814285Y-75659512D01*
X164814285Y-75659512D02*
X164528570Y-75659512D01*
X164528570Y-75659512D02*
X164385713Y-75730941D01*
X164385713Y-75730941D02*
X164314285Y-75873798D01*
X164314285Y-75873798D02*
X164314285Y-76016655D01*
X164314285Y-76016655D02*
X165028570Y-76159512D01*
X163671428Y-76659512D02*
X163671428Y-75659512D01*
X163671428Y-75945226D02*
X163599999Y-75802369D01*
X163599999Y-75802369D02*
X163528571Y-75730941D01*
X163528571Y-75730941D02*
X163385713Y-75659512D01*
X163385713Y-75659512D02*
X163242856Y-75659512D01*
X162742857Y-76088084D02*
X161600000Y-76088084D01*
X160885714Y-75659512D02*
X160885714Y-77159512D01*
X160885714Y-75730941D02*
X160742857Y-75659512D01*
X160742857Y-75659512D02*
X160457142Y-75659512D01*
X160457142Y-75659512D02*
X160314285Y-75730941D01*
X160314285Y-75730941D02*
X160242857Y-75802369D01*
X160242857Y-75802369D02*
X160171428Y-75945226D01*
X160171428Y-75945226D02*
X160171428Y-76373798D01*
X160171428Y-76373798D02*
X160242857Y-76516655D01*
X160242857Y-76516655D02*
X160314285Y-76588084D01*
X160314285Y-76588084D02*
X160457142Y-76659512D01*
X160457142Y-76659512D02*
X160742857Y-76659512D01*
X160742857Y-76659512D02*
X160885714Y-76588084D01*
X159528571Y-76659512D02*
X159528571Y-75659512D01*
X159528571Y-75945226D02*
X159457142Y-75802369D01*
X159457142Y-75802369D02*
X159385714Y-75730941D01*
X159385714Y-75730941D02*
X159242856Y-75659512D01*
X159242856Y-75659512D02*
X159099999Y-75659512D01*
X158385714Y-76659512D02*
X158528571Y-76588084D01*
X158528571Y-76588084D02*
X158600000Y-76516655D01*
X158600000Y-76516655D02*
X158671428Y-76373798D01*
X158671428Y-76373798D02*
X158671428Y-75945226D01*
X158671428Y-75945226D02*
X158600000Y-75802369D01*
X158600000Y-75802369D02*
X158528571Y-75730941D01*
X158528571Y-75730941D02*
X158385714Y-75659512D01*
X158385714Y-75659512D02*
X158171428Y-75659512D01*
X158171428Y-75659512D02*
X158028571Y-75730941D01*
X158028571Y-75730941D02*
X157957143Y-75802369D01*
X157957143Y-75802369D02*
X157885714Y-75945226D01*
X157885714Y-75945226D02*
X157885714Y-76373798D01*
X157885714Y-76373798D02*
X157957143Y-76516655D01*
X157957143Y-76516655D02*
X158028571Y-76588084D01*
X158028571Y-76588084D02*
X158171428Y-76659512D01*
X158171428Y-76659512D02*
X158385714Y-76659512D01*
X157028571Y-76659512D02*
X157171428Y-76588084D01*
X157171428Y-76588084D02*
X157242857Y-76516655D01*
X157242857Y-76516655D02*
X157314285Y-76373798D01*
X157314285Y-76373798D02*
X157314285Y-75945226D01*
X157314285Y-75945226D02*
X157242857Y-75802369D01*
X157242857Y-75802369D02*
X157171428Y-75730941D01*
X157171428Y-75730941D02*
X157028571Y-75659512D01*
X157028571Y-75659512D02*
X156814285Y-75659512D01*
X156814285Y-75659512D02*
X156671428Y-75730941D01*
X156671428Y-75730941D02*
X156600000Y-75802369D01*
X156600000Y-75802369D02*
X156528571Y-75945226D01*
X156528571Y-75945226D02*
X156528571Y-76373798D01*
X156528571Y-76373798D02*
X156600000Y-76516655D01*
X156600000Y-76516655D02*
X156671428Y-76588084D01*
X156671428Y-76588084D02*
X156814285Y-76659512D01*
X156814285Y-76659512D02*
X157028571Y-76659512D01*
X156099999Y-75659512D02*
X155528571Y-75659512D01*
X155885714Y-76659512D02*
X155885714Y-75373798D01*
X155885714Y-75373798D02*
X155814285Y-75230941D01*
X155814285Y-75230941D02*
X155671428Y-75159512D01*
X155671428Y-75159512D02*
X155528571Y-75159512D01*
X168492857Y-79074428D02*
X168492857Y-78288714D01*
X168492857Y-78288714D02*
X168564285Y-78145857D01*
X168564285Y-78145857D02*
X168707142Y-78074428D01*
X168707142Y-78074428D02*
X168992857Y-78074428D01*
X168992857Y-78074428D02*
X169135714Y-78145857D01*
X168492857Y-79003000D02*
X168635714Y-79074428D01*
X168635714Y-79074428D02*
X168992857Y-79074428D01*
X168992857Y-79074428D02*
X169135714Y-79003000D01*
X169135714Y-79003000D02*
X169207142Y-78860142D01*
X169207142Y-78860142D02*
X169207142Y-78717285D01*
X169207142Y-78717285D02*
X169135714Y-78574428D01*
X169135714Y-78574428D02*
X168992857Y-78503000D01*
X168992857Y-78503000D02*
X168635714Y-78503000D01*
X168635714Y-78503000D02*
X168492857Y-78431571D01*
X167564285Y-79074428D02*
X167707142Y-79003000D01*
X167707142Y-79003000D02*
X167778571Y-78860142D01*
X167778571Y-78860142D02*
X167778571Y-77574428D01*
X167207142Y-78074428D02*
X166635714Y-78074428D01*
X166992857Y-77574428D02*
X166992857Y-78860142D01*
X166992857Y-78860142D02*
X166921428Y-79003000D01*
X166921428Y-79003000D02*
X166778571Y-79074428D01*
X166778571Y-79074428D02*
X166635714Y-79074428D01*
X166135714Y-79074428D02*
X166135714Y-77574428D01*
X165492857Y-79074428D02*
X165492857Y-78288714D01*
X165492857Y-78288714D02*
X165564285Y-78145857D01*
X165564285Y-78145857D02*
X165707142Y-78074428D01*
X165707142Y-78074428D02*
X165921428Y-78074428D01*
X165921428Y-78074428D02*
X166064285Y-78145857D01*
X166064285Y-78145857D02*
X166135714Y-78217285D01*
X164564285Y-79074428D02*
X164707142Y-79003000D01*
X164707142Y-79003000D02*
X164778571Y-78931571D01*
X164778571Y-78931571D02*
X164849999Y-78788714D01*
X164849999Y-78788714D02*
X164849999Y-78360142D01*
X164849999Y-78360142D02*
X164778571Y-78217285D01*
X164778571Y-78217285D02*
X164707142Y-78145857D01*
X164707142Y-78145857D02*
X164564285Y-78074428D01*
X164564285Y-78074428D02*
X164349999Y-78074428D01*
X164349999Y-78074428D02*
X164207142Y-78145857D01*
X164207142Y-78145857D02*
X164135714Y-78217285D01*
X164135714Y-78217285D02*
X164064285Y-78360142D01*
X164064285Y-78360142D02*
X164064285Y-78788714D01*
X164064285Y-78788714D02*
X164135714Y-78931571D01*
X164135714Y-78931571D02*
X164207142Y-79003000D01*
X164207142Y-79003000D02*
X164349999Y-79074428D01*
X164349999Y-79074428D02*
X164564285Y-79074428D01*
X162778571Y-78074428D02*
X162778571Y-79074428D01*
X163421428Y-78074428D02*
X163421428Y-78860142D01*
X163421428Y-78860142D02*
X163349999Y-79003000D01*
X163349999Y-79003000D02*
X163207142Y-79074428D01*
X163207142Y-79074428D02*
X162992856Y-79074428D01*
X162992856Y-79074428D02*
X162849999Y-79003000D01*
X162849999Y-79003000D02*
X162778571Y-78931571D01*
X161421428Y-78074428D02*
X161421428Y-79288714D01*
X161421428Y-79288714D02*
X161492856Y-79431571D01*
X161492856Y-79431571D02*
X161564285Y-79503000D01*
X161564285Y-79503000D02*
X161707142Y-79574428D01*
X161707142Y-79574428D02*
X161921428Y-79574428D01*
X161921428Y-79574428D02*
X162064285Y-79503000D01*
X161421428Y-79003000D02*
X161564285Y-79074428D01*
X161564285Y-79074428D02*
X161849999Y-79074428D01*
X161849999Y-79074428D02*
X161992856Y-79003000D01*
X161992856Y-79003000D02*
X162064285Y-78931571D01*
X162064285Y-78931571D02*
X162135713Y-78788714D01*
X162135713Y-78788714D02*
X162135713Y-78360142D01*
X162135713Y-78360142D02*
X162064285Y-78217285D01*
X162064285Y-78217285D02*
X161992856Y-78145857D01*
X161992856Y-78145857D02*
X161849999Y-78074428D01*
X161849999Y-78074428D02*
X161564285Y-78074428D01*
X161564285Y-78074428D02*
X161421428Y-78145857D01*
X160707142Y-79074428D02*
X160707142Y-77574428D01*
X160064285Y-79074428D02*
X160064285Y-78288714D01*
X160064285Y-78288714D02*
X160135713Y-78145857D01*
X160135713Y-78145857D02*
X160278570Y-78074428D01*
X160278570Y-78074428D02*
X160492856Y-78074428D01*
X160492856Y-78074428D02*
X160635713Y-78145857D01*
X160635713Y-78145857D02*
X160707142Y-78217285D01*
X171707142Y-80489344D02*
X171421428Y-81489344D01*
X171421428Y-81489344D02*
X171135713Y-80775058D01*
X171135713Y-80775058D02*
X170849999Y-81489344D01*
X170849999Y-81489344D02*
X170564285Y-80489344D01*
X169349999Y-81489344D02*
X169349999Y-80703630D01*
X169349999Y-80703630D02*
X169421427Y-80560773D01*
X169421427Y-80560773D02*
X169564284Y-80489344D01*
X169564284Y-80489344D02*
X169849999Y-80489344D01*
X169849999Y-80489344D02*
X169992856Y-80560773D01*
X169349999Y-81417916D02*
X169492856Y-81489344D01*
X169492856Y-81489344D02*
X169849999Y-81489344D01*
X169849999Y-81489344D02*
X169992856Y-81417916D01*
X169992856Y-81417916D02*
X170064284Y-81275058D01*
X170064284Y-81275058D02*
X170064284Y-81132201D01*
X170064284Y-81132201D02*
X169992856Y-80989344D01*
X169992856Y-80989344D02*
X169849999Y-80917916D01*
X169849999Y-80917916D02*
X169492856Y-80917916D01*
X169492856Y-80917916D02*
X169349999Y-80846487D01*
X168849998Y-80489344D02*
X168278570Y-80489344D01*
X168635713Y-79989344D02*
X168635713Y-81275058D01*
X168635713Y-81275058D02*
X168564284Y-81417916D01*
X168564284Y-81417916D02*
X168421427Y-81489344D01*
X168421427Y-81489344D02*
X168278570Y-81489344D01*
X167207141Y-81417916D02*
X167349998Y-81489344D01*
X167349998Y-81489344D02*
X167635713Y-81489344D01*
X167635713Y-81489344D02*
X167778570Y-81417916D01*
X167778570Y-81417916D02*
X167849998Y-81275058D01*
X167849998Y-81275058D02*
X167849998Y-80703630D01*
X167849998Y-80703630D02*
X167778570Y-80560773D01*
X167778570Y-80560773D02*
X167635713Y-80489344D01*
X167635713Y-80489344D02*
X167349998Y-80489344D01*
X167349998Y-80489344D02*
X167207141Y-80560773D01*
X167207141Y-80560773D02*
X167135713Y-80703630D01*
X167135713Y-80703630D02*
X167135713Y-80846487D01*
X167135713Y-80846487D02*
X167849998Y-80989344D01*
X166492856Y-81489344D02*
X166492856Y-80489344D01*
X166492856Y-80775058D02*
X166421427Y-80632201D01*
X166421427Y-80632201D02*
X166349999Y-80560773D01*
X166349999Y-80560773D02*
X166207141Y-80489344D01*
X166207141Y-80489344D02*
X166064284Y-80489344D01*
X164635713Y-80489344D02*
X164064285Y-80489344D01*
X164421428Y-79989344D02*
X164421428Y-81275058D01*
X164421428Y-81275058D02*
X164349999Y-81417916D01*
X164349999Y-81417916D02*
X164207142Y-81489344D01*
X164207142Y-81489344D02*
X164064285Y-81489344D01*
X163707142Y-80489344D02*
X163349999Y-81489344D01*
X162992856Y-80489344D02*
X163349999Y-81489344D01*
X163349999Y-81489344D02*
X163492856Y-81846487D01*
X163492856Y-81846487D02*
X163564285Y-81917916D01*
X163564285Y-81917916D02*
X163707142Y-81989344D01*
X162421428Y-80489344D02*
X162421428Y-81989344D01*
X162421428Y-80560773D02*
X162278571Y-80489344D01*
X162278571Y-80489344D02*
X161992856Y-80489344D01*
X161992856Y-80489344D02*
X161849999Y-80560773D01*
X161849999Y-80560773D02*
X161778571Y-80632201D01*
X161778571Y-80632201D02*
X161707142Y-80775058D01*
X161707142Y-80775058D02*
X161707142Y-81203630D01*
X161707142Y-81203630D02*
X161778571Y-81346487D01*
X161778571Y-81346487D02*
X161849999Y-81417916D01*
X161849999Y-81417916D02*
X161992856Y-81489344D01*
X161992856Y-81489344D02*
X162278571Y-81489344D01*
X162278571Y-81489344D02*
X162421428Y-81417916D01*
X160492856Y-81417916D02*
X160635713Y-81489344D01*
X160635713Y-81489344D02*
X160921428Y-81489344D01*
X160921428Y-81489344D02*
X161064285Y-81417916D01*
X161064285Y-81417916D02*
X161135713Y-81275058D01*
X161135713Y-81275058D02*
X161135713Y-80703630D01*
X161135713Y-80703630D02*
X161064285Y-80560773D01*
X161064285Y-80560773D02*
X160921428Y-80489344D01*
X160921428Y-80489344D02*
X160635713Y-80489344D01*
X160635713Y-80489344D02*
X160492856Y-80560773D01*
X160492856Y-80560773D02*
X160421428Y-80703630D01*
X160421428Y-80703630D02*
X160421428Y-80846487D01*
X160421428Y-80846487D02*
X161135713Y-80989344D01*
X158564285Y-81417916D02*
X158564285Y-81489344D01*
X158564285Y-81489344D02*
X158635714Y-81632201D01*
X158635714Y-81632201D02*
X158707142Y-81703630D01*
X158635714Y-80560773D02*
X158564285Y-80632201D01*
X158564285Y-80632201D02*
X158635714Y-80703630D01*
X158635714Y-80703630D02*
X158707142Y-80632201D01*
X158707142Y-80632201D02*
X158635714Y-80560773D01*
X158635714Y-80560773D02*
X158635714Y-80703630D01*
X158064285Y-82060773D02*
X157992856Y-81989344D01*
X157992856Y-81989344D02*
X157849999Y-81775058D01*
X157849999Y-81775058D02*
X157778571Y-81632201D01*
X157778571Y-81632201D02*
X157707142Y-81417916D01*
X157707142Y-81417916D02*
X157635713Y-81060773D01*
X157635713Y-81060773D02*
X157635713Y-80775058D01*
X157635713Y-80775058D02*
X157707142Y-80417916D01*
X157707142Y-80417916D02*
X157778571Y-80203630D01*
X157778571Y-80203630D02*
X157849999Y-80060773D01*
X157849999Y-80060773D02*
X157992856Y-79846487D01*
X157992856Y-79846487D02*
X158064285Y-79775058D01*
D11*
X178000000Y-87146941D02*
X178000000Y-84146941D01*
X178000000Y-84146941D02*
X177285714Y-84146941D01*
X177285714Y-84146941D02*
X176857143Y-84289798D01*
X176857143Y-84289798D02*
X176571428Y-84575512D01*
X176571428Y-84575512D02*
X176428571Y-84861226D01*
X176428571Y-84861226D02*
X176285714Y-85432655D01*
X176285714Y-85432655D02*
X176285714Y-85861226D01*
X176285714Y-85861226D02*
X176428571Y-86432655D01*
X176428571Y-86432655D02*
X176571428Y-86718369D01*
X176571428Y-86718369D02*
X176857143Y-87004084D01*
X176857143Y-87004084D02*
X177285714Y-87146941D01*
X177285714Y-87146941D02*
X178000000Y-87146941D01*
X173857143Y-87004084D02*
X174142857Y-87146941D01*
X174142857Y-87146941D02*
X174714286Y-87146941D01*
X174714286Y-87146941D02*
X175000000Y-87004084D01*
X175000000Y-87004084D02*
X175142857Y-86718369D01*
X175142857Y-86718369D02*
X175142857Y-85575512D01*
X175142857Y-85575512D02*
X175000000Y-85289798D01*
X175000000Y-85289798D02*
X174714286Y-85146941D01*
X174714286Y-85146941D02*
X174142857Y-85146941D01*
X174142857Y-85146941D02*
X173857143Y-85289798D01*
X173857143Y-85289798D02*
X173714286Y-85575512D01*
X173714286Y-85575512D02*
X173714286Y-85861226D01*
X173714286Y-85861226D02*
X175142857Y-86146941D01*
X172571428Y-87004084D02*
X172285714Y-87146941D01*
X172285714Y-87146941D02*
X171714285Y-87146941D01*
X171714285Y-87146941D02*
X171428571Y-87004084D01*
X171428571Y-87004084D02*
X171285714Y-86718369D01*
X171285714Y-86718369D02*
X171285714Y-86575512D01*
X171285714Y-86575512D02*
X171428571Y-86289798D01*
X171428571Y-86289798D02*
X171714285Y-86146941D01*
X171714285Y-86146941D02*
X172142857Y-86146941D01*
X172142857Y-86146941D02*
X172428571Y-86004084D01*
X172428571Y-86004084D02*
X172571428Y-85718369D01*
X172571428Y-85718369D02*
X172571428Y-85575512D01*
X172571428Y-85575512D02*
X172428571Y-85289798D01*
X172428571Y-85289798D02*
X172142857Y-85146941D01*
X172142857Y-85146941D02*
X171714285Y-85146941D01*
X171714285Y-85146941D02*
X171428571Y-85289798D01*
X170000000Y-87146941D02*
X170000000Y-85146941D01*
X170000000Y-84146941D02*
X170142857Y-84289798D01*
X170142857Y-84289798D02*
X170000000Y-84432655D01*
X170000000Y-84432655D02*
X169857143Y-84289798D01*
X169857143Y-84289798D02*
X170000000Y-84146941D01*
X170000000Y-84146941D02*
X170000000Y-84432655D01*
X167285715Y-85146941D02*
X167285715Y-87575512D01*
X167285715Y-87575512D02*
X167428572Y-87861226D01*
X167428572Y-87861226D02*
X167571429Y-88004084D01*
X167571429Y-88004084D02*
X167857143Y-88146941D01*
X167857143Y-88146941D02*
X168285715Y-88146941D01*
X168285715Y-88146941D02*
X168571429Y-88004084D01*
X167285715Y-87004084D02*
X167571429Y-87146941D01*
X167571429Y-87146941D02*
X168142857Y-87146941D01*
X168142857Y-87146941D02*
X168428572Y-87004084D01*
X168428572Y-87004084D02*
X168571429Y-86861226D01*
X168571429Y-86861226D02*
X168714286Y-86575512D01*
X168714286Y-86575512D02*
X168714286Y-85718369D01*
X168714286Y-85718369D02*
X168571429Y-85432655D01*
X168571429Y-85432655D02*
X168428572Y-85289798D01*
X168428572Y-85289798D02*
X168142857Y-85146941D01*
X168142857Y-85146941D02*
X167571429Y-85146941D01*
X167571429Y-85146941D02*
X167285715Y-85289798D01*
X165857143Y-85146941D02*
X165857143Y-87146941D01*
X165857143Y-85432655D02*
X165714286Y-85289798D01*
X165714286Y-85289798D02*
X165428571Y-85146941D01*
X165428571Y-85146941D02*
X165000000Y-85146941D01*
X165000000Y-85146941D02*
X164714286Y-85289798D01*
X164714286Y-85289798D02*
X164571429Y-85575512D01*
X164571429Y-85575512D02*
X164571429Y-87146941D01*
X162000000Y-87004084D02*
X162285714Y-87146941D01*
X162285714Y-87146941D02*
X162857143Y-87146941D01*
X162857143Y-87146941D02*
X163142857Y-87004084D01*
X163142857Y-87004084D02*
X163285714Y-86718369D01*
X163285714Y-86718369D02*
X163285714Y-85575512D01*
X163285714Y-85575512D02*
X163142857Y-85289798D01*
X163142857Y-85289798D02*
X162857143Y-85146941D01*
X162857143Y-85146941D02*
X162285714Y-85146941D01*
X162285714Y-85146941D02*
X162000000Y-85289798D01*
X162000000Y-85289798D02*
X161857143Y-85575512D01*
X161857143Y-85575512D02*
X161857143Y-85861226D01*
X161857143Y-85861226D02*
X163285714Y-86146941D01*
X159285714Y-87146941D02*
X159285714Y-84146941D01*
X159285714Y-87004084D02*
X159571428Y-87146941D01*
X159571428Y-87146941D02*
X160142856Y-87146941D01*
X160142856Y-87146941D02*
X160428571Y-87004084D01*
X160428571Y-87004084D02*
X160571428Y-86861226D01*
X160571428Y-86861226D02*
X160714285Y-86575512D01*
X160714285Y-86575512D02*
X160714285Y-85718369D01*
X160714285Y-85718369D02*
X160571428Y-85432655D01*
X160571428Y-85432655D02*
X160428571Y-85289798D01*
X160428571Y-85289798D02*
X160142856Y-85146941D01*
X160142856Y-85146941D02*
X159571428Y-85146941D01*
X159571428Y-85146941D02*
X159285714Y-85289798D01*
X155571428Y-87146941D02*
X155571428Y-84146941D01*
X155571428Y-85289798D02*
X155285714Y-85146941D01*
X155285714Y-85146941D02*
X154714285Y-85146941D01*
X154714285Y-85146941D02*
X154428571Y-85289798D01*
X154428571Y-85289798D02*
X154285714Y-85432655D01*
X154285714Y-85432655D02*
X154142856Y-85718369D01*
X154142856Y-85718369D02*
X154142856Y-86575512D01*
X154142856Y-86575512D02*
X154285714Y-86861226D01*
X154285714Y-86861226D02*
X154428571Y-87004084D01*
X154428571Y-87004084D02*
X154714285Y-87146941D01*
X154714285Y-87146941D02*
X155285714Y-87146941D01*
X155285714Y-87146941D02*
X155571428Y-87004084D01*
X153142856Y-85146941D02*
X152428570Y-87146941D01*
X151714285Y-85146941D02*
X152428570Y-87146941D01*
X152428570Y-87146941D02*
X152714285Y-87861226D01*
X152714285Y-87861226D02*
X152857142Y-88004084D01*
X152857142Y-88004084D02*
X153142856Y-88146941D01*
X181785715Y-91119630D02*
X180357144Y-91119630D01*
X182071429Y-91976773D02*
X181071429Y-88976773D01*
X181071429Y-88976773D02*
X180071429Y-91976773D01*
X179071429Y-91976773D02*
X179071429Y-89976773D01*
X179071429Y-90548201D02*
X178928572Y-90262487D01*
X178928572Y-90262487D02*
X178785715Y-90119630D01*
X178785715Y-90119630D02*
X178500000Y-89976773D01*
X178500000Y-89976773D02*
X178214286Y-89976773D01*
X177500000Y-89976773D02*
X176785714Y-91976773D01*
X176071429Y-89976773D02*
X176785714Y-91976773D01*
X176785714Y-91976773D02*
X177071429Y-92691058D01*
X177071429Y-92691058D02*
X177214286Y-92833916D01*
X177214286Y-92833916D02*
X177500000Y-92976773D01*
X173642858Y-91976773D02*
X173642858Y-90405344D01*
X173642858Y-90405344D02*
X173785715Y-90119630D01*
X173785715Y-90119630D02*
X174071429Y-89976773D01*
X174071429Y-89976773D02*
X174642858Y-89976773D01*
X174642858Y-89976773D02*
X174928572Y-90119630D01*
X173642858Y-91833916D02*
X173928572Y-91976773D01*
X173928572Y-91976773D02*
X174642858Y-91976773D01*
X174642858Y-91976773D02*
X174928572Y-91833916D01*
X174928572Y-91833916D02*
X175071429Y-91548201D01*
X175071429Y-91548201D02*
X175071429Y-91262487D01*
X175071429Y-91262487D02*
X174928572Y-90976773D01*
X174928572Y-90976773D02*
X174642858Y-90833916D01*
X174642858Y-90833916D02*
X173928572Y-90833916D01*
X173928572Y-90833916D02*
X173642858Y-90691058D01*
X172214286Y-89976773D02*
X172214286Y-91976773D01*
X172214286Y-90262487D02*
X172071429Y-90119630D01*
X172071429Y-90119630D02*
X171785714Y-89976773D01*
X171785714Y-89976773D02*
X171357143Y-89976773D01*
X171357143Y-89976773D02*
X171071429Y-90119630D01*
X171071429Y-90119630D02*
X170928572Y-90405344D01*
X170928572Y-90405344D02*
X170928572Y-91976773D01*
X169500000Y-90833916D02*
X167214286Y-90833916D01*
X164500000Y-89976773D02*
X164500000Y-92405344D01*
X164500000Y-92405344D02*
X164642857Y-92691058D01*
X164642857Y-92691058D02*
X164785714Y-92833916D01*
X164785714Y-92833916D02*
X165071428Y-92976773D01*
X165071428Y-92976773D02*
X165500000Y-92976773D01*
X165500000Y-92976773D02*
X165785714Y-92833916D01*
X164500000Y-91833916D02*
X164785714Y-91976773D01*
X164785714Y-91976773D02*
X165357142Y-91976773D01*
X165357142Y-91976773D02*
X165642857Y-91833916D01*
X165642857Y-91833916D02*
X165785714Y-91691058D01*
X165785714Y-91691058D02*
X165928571Y-91405344D01*
X165928571Y-91405344D02*
X165928571Y-90548201D01*
X165928571Y-90548201D02*
X165785714Y-90262487D01*
X165785714Y-90262487D02*
X165642857Y-90119630D01*
X165642857Y-90119630D02*
X165357142Y-89976773D01*
X165357142Y-89976773D02*
X164785714Y-89976773D01*
X164785714Y-89976773D02*
X164500000Y-90119630D01*
X163071428Y-91976773D02*
X163071428Y-89976773D01*
X163071428Y-88976773D02*
X163214285Y-89119630D01*
X163214285Y-89119630D02*
X163071428Y-89262487D01*
X163071428Y-89262487D02*
X162928571Y-89119630D01*
X162928571Y-89119630D02*
X163071428Y-88976773D01*
X163071428Y-88976773D02*
X163071428Y-89262487D01*
X162071428Y-89976773D02*
X160928571Y-89976773D01*
X161642857Y-88976773D02*
X161642857Y-91548201D01*
X161642857Y-91548201D02*
X161500000Y-91833916D01*
X161500000Y-91833916D02*
X161214285Y-91976773D01*
X161214285Y-91976773D02*
X160928571Y-91976773D01*
X159928571Y-90833916D02*
X157642857Y-90833916D01*
X156214285Y-91976773D02*
X156214285Y-88976773D01*
X156214285Y-90119630D02*
X155928571Y-89976773D01*
X155928571Y-89976773D02*
X155357142Y-89976773D01*
X155357142Y-89976773D02*
X155071428Y-90119630D01*
X155071428Y-90119630D02*
X154928571Y-90262487D01*
X154928571Y-90262487D02*
X154785713Y-90548201D01*
X154785713Y-90548201D02*
X154785713Y-91405344D01*
X154785713Y-91405344D02*
X154928571Y-91691058D01*
X154928571Y-91691058D02*
X155071428Y-91833916D01*
X155071428Y-91833916D02*
X155357142Y-91976773D01*
X155357142Y-91976773D02*
X155928571Y-91976773D01*
X155928571Y-91976773D02*
X156214285Y-91833916D01*
X153785713Y-89976773D02*
X153071427Y-91976773D01*
X152357142Y-89976773D02*
X153071427Y-91976773D01*
X153071427Y-91976773D02*
X153357142Y-92691058D01*
X153357142Y-92691058D02*
X153499999Y-92833916D01*
X153499999Y-92833916D02*
X153785713Y-92976773D01*
X151642856Y-89976773D02*
X150499999Y-89976773D01*
X151214285Y-88976773D02*
X151214285Y-91548201D01*
X151214285Y-91548201D02*
X151071428Y-91833916D01*
X151071428Y-91833916D02*
X150785713Y-91976773D01*
X150785713Y-91976773D02*
X150499999Y-91976773D01*
X148357142Y-91833916D02*
X148642856Y-91976773D01*
X148642856Y-91976773D02*
X149214285Y-91976773D01*
X149214285Y-91976773D02*
X149499999Y-91833916D01*
X149499999Y-91833916D02*
X149642856Y-91548201D01*
X149642856Y-91548201D02*
X149642856Y-90405344D01*
X149642856Y-90405344D02*
X149499999Y-90119630D01*
X149499999Y-90119630D02*
X149214285Y-89976773D01*
X149214285Y-89976773D02*
X148642856Y-89976773D01*
X148642856Y-89976773D02*
X148357142Y-90119630D01*
X148357142Y-90119630D02*
X148214285Y-90405344D01*
X148214285Y-90405344D02*
X148214285Y-90691058D01*
X148214285Y-90691058D02*
X149642856Y-90976773D01*
D10*
X166685713Y-105317285D02*
X166614285Y-105245857D01*
X166614285Y-105245857D02*
X166471428Y-105174428D01*
X166471428Y-105174428D02*
X166114285Y-105174428D01*
X166114285Y-105174428D02*
X165971428Y-105245857D01*
X165971428Y-105245857D02*
X165899999Y-105317285D01*
X165899999Y-105317285D02*
X165828570Y-105460142D01*
X165828570Y-105460142D02*
X165828570Y-105603000D01*
X165828570Y-105603000D02*
X165899999Y-105817285D01*
X165899999Y-105817285D02*
X166757142Y-106674428D01*
X166757142Y-106674428D02*
X165828570Y-106674428D01*
X165328571Y-106674428D02*
X164542857Y-105674428D01*
X165328571Y-105674428D02*
X164542857Y-106674428D01*
X162971428Y-105674428D02*
X162685714Y-106674428D01*
X162685714Y-106674428D02*
X162399999Y-105960142D01*
X162399999Y-105960142D02*
X162114285Y-106674428D01*
X162114285Y-106674428D02*
X161828571Y-105674428D01*
X160685713Y-106603000D02*
X160828570Y-106674428D01*
X160828570Y-106674428D02*
X161114285Y-106674428D01*
X161114285Y-106674428D02*
X161257142Y-106603000D01*
X161257142Y-106603000D02*
X161328570Y-106460142D01*
X161328570Y-106460142D02*
X161328570Y-105888714D01*
X161328570Y-105888714D02*
X161257142Y-105745857D01*
X161257142Y-105745857D02*
X161114285Y-105674428D01*
X161114285Y-105674428D02*
X160828570Y-105674428D01*
X160828570Y-105674428D02*
X160685713Y-105745857D01*
X160685713Y-105745857D02*
X160614285Y-105888714D01*
X160614285Y-105888714D02*
X160614285Y-106031571D01*
X160614285Y-106031571D02*
X161328570Y-106174428D01*
X159328571Y-106674428D02*
X159328571Y-105888714D01*
X159328571Y-105888714D02*
X159399999Y-105745857D01*
X159399999Y-105745857D02*
X159542856Y-105674428D01*
X159542856Y-105674428D02*
X159828571Y-105674428D01*
X159828571Y-105674428D02*
X159971428Y-105745857D01*
X159328571Y-106603000D02*
X159471428Y-106674428D01*
X159471428Y-106674428D02*
X159828571Y-106674428D01*
X159828571Y-106674428D02*
X159971428Y-106603000D01*
X159971428Y-106603000D02*
X160042856Y-106460142D01*
X160042856Y-106460142D02*
X160042856Y-106317285D01*
X160042856Y-106317285D02*
X159971428Y-106174428D01*
X159971428Y-106174428D02*
X159828571Y-106103000D01*
X159828571Y-106103000D02*
X159471428Y-106103000D01*
X159471428Y-106103000D02*
X159328571Y-106031571D01*
X158614285Y-106674428D02*
X158614285Y-105174428D01*
X158471428Y-106103000D02*
X158042856Y-106674428D01*
X158042856Y-105674428D02*
X158614285Y-106245857D01*
X156471427Y-105674428D02*
X155899999Y-105674428D01*
X156257142Y-105174428D02*
X156257142Y-106460142D01*
X156257142Y-106460142D02*
X156185713Y-106603000D01*
X156185713Y-106603000D02*
X156042856Y-106674428D01*
X156042856Y-106674428D02*
X155899999Y-106674428D01*
X155185713Y-106674428D02*
X155328570Y-106603000D01*
X155328570Y-106603000D02*
X155399999Y-106531571D01*
X155399999Y-106531571D02*
X155471427Y-106388714D01*
X155471427Y-106388714D02*
X155471427Y-105960142D01*
X155471427Y-105960142D02*
X155399999Y-105817285D01*
X155399999Y-105817285D02*
X155328570Y-105745857D01*
X155328570Y-105745857D02*
X155185713Y-105674428D01*
X155185713Y-105674428D02*
X154971427Y-105674428D01*
X154971427Y-105674428D02*
X154828570Y-105745857D01*
X154828570Y-105745857D02*
X154757142Y-105817285D01*
X154757142Y-105817285D02*
X154685713Y-105960142D01*
X154685713Y-105960142D02*
X154685713Y-106388714D01*
X154685713Y-106388714D02*
X154757142Y-106531571D01*
X154757142Y-106531571D02*
X154828570Y-106603000D01*
X154828570Y-106603000D02*
X154971427Y-106674428D01*
X154971427Y-106674428D02*
X155185713Y-106674428D01*
X152328570Y-106603000D02*
X152471427Y-106674428D01*
X152471427Y-106674428D02*
X152757142Y-106674428D01*
X152757142Y-106674428D02*
X152899999Y-106603000D01*
X152899999Y-106603000D02*
X152971427Y-106460142D01*
X152971427Y-106460142D02*
X152971427Y-105888714D01*
X152971427Y-105888714D02*
X152899999Y-105745857D01*
X152899999Y-105745857D02*
X152757142Y-105674428D01*
X152757142Y-105674428D02*
X152471427Y-105674428D01*
X152471427Y-105674428D02*
X152328570Y-105745857D01*
X152328570Y-105745857D02*
X152257142Y-105888714D01*
X152257142Y-105888714D02*
X152257142Y-106031571D01*
X152257142Y-106031571D02*
X152971427Y-106174428D01*
X151399999Y-106674428D02*
X151542856Y-106603000D01*
X151542856Y-106603000D02*
X151614285Y-106460142D01*
X151614285Y-106460142D02*
X151614285Y-105174428D01*
X150257142Y-106603000D02*
X150399999Y-106674428D01*
X150399999Y-106674428D02*
X150685714Y-106674428D01*
X150685714Y-106674428D02*
X150828571Y-106603000D01*
X150828571Y-106603000D02*
X150899999Y-106460142D01*
X150899999Y-106460142D02*
X150899999Y-105888714D01*
X150899999Y-105888714D02*
X150828571Y-105745857D01*
X150828571Y-105745857D02*
X150685714Y-105674428D01*
X150685714Y-105674428D02*
X150399999Y-105674428D01*
X150399999Y-105674428D02*
X150257142Y-105745857D01*
X150257142Y-105745857D02*
X150185714Y-105888714D01*
X150185714Y-105888714D02*
X150185714Y-106031571D01*
X150185714Y-106031571D02*
X150899999Y-106174428D01*
X148900000Y-106603000D02*
X149042857Y-106674428D01*
X149042857Y-106674428D02*
X149328571Y-106674428D01*
X149328571Y-106674428D02*
X149471428Y-106603000D01*
X149471428Y-106603000D02*
X149542857Y-106531571D01*
X149542857Y-106531571D02*
X149614285Y-106388714D01*
X149614285Y-106388714D02*
X149614285Y-105960142D01*
X149614285Y-105960142D02*
X149542857Y-105817285D01*
X149542857Y-105817285D02*
X149471428Y-105745857D01*
X149471428Y-105745857D02*
X149328571Y-105674428D01*
X149328571Y-105674428D02*
X149042857Y-105674428D01*
X149042857Y-105674428D02*
X148900000Y-105745857D01*
X148471428Y-105674428D02*
X147900000Y-105674428D01*
X148257143Y-105174428D02*
X148257143Y-106460142D01*
X148257143Y-106460142D02*
X148185714Y-106603000D01*
X148185714Y-106603000D02*
X148042857Y-106674428D01*
X148042857Y-106674428D02*
X147900000Y-106674428D01*
X147400000Y-106674428D02*
X147400000Y-105674428D01*
X147400000Y-105960142D02*
X147328571Y-105817285D01*
X147328571Y-105817285D02*
X147257143Y-105745857D01*
X147257143Y-105745857D02*
X147114285Y-105674428D01*
X147114285Y-105674428D02*
X146971428Y-105674428D01*
X146471429Y-106674428D02*
X146471429Y-105674428D01*
X146471429Y-105174428D02*
X146542857Y-105245857D01*
X146542857Y-105245857D02*
X146471429Y-105317285D01*
X146471429Y-105317285D02*
X146400000Y-105245857D01*
X146400000Y-105245857D02*
X146471429Y-105174428D01*
X146471429Y-105174428D02*
X146471429Y-105317285D01*
X145114286Y-106603000D02*
X145257143Y-106674428D01*
X145257143Y-106674428D02*
X145542857Y-106674428D01*
X145542857Y-106674428D02*
X145685714Y-106603000D01*
X145685714Y-106603000D02*
X145757143Y-106531571D01*
X145757143Y-106531571D02*
X145828571Y-106388714D01*
X145828571Y-106388714D02*
X145828571Y-105960142D01*
X145828571Y-105960142D02*
X145757143Y-105817285D01*
X145757143Y-105817285D02*
X145685714Y-105745857D01*
X145685714Y-105745857D02*
X145542857Y-105674428D01*
X145542857Y-105674428D02*
X145257143Y-105674428D01*
X145257143Y-105674428D02*
X145114286Y-105745857D01*
X144471429Y-106674428D02*
X144471429Y-105674428D01*
X144471429Y-105174428D02*
X144542857Y-105245857D01*
X144542857Y-105245857D02*
X144471429Y-105317285D01*
X144471429Y-105317285D02*
X144400000Y-105245857D01*
X144400000Y-105245857D02*
X144471429Y-105174428D01*
X144471429Y-105174428D02*
X144471429Y-105317285D01*
X143971428Y-105674428D02*
X143400000Y-105674428D01*
X143757143Y-105174428D02*
X143757143Y-106460142D01*
X143757143Y-106460142D02*
X143685714Y-106603000D01*
X143685714Y-106603000D02*
X143542857Y-106674428D01*
X143542857Y-106674428D02*
X143400000Y-106674428D01*
X143042857Y-105674428D02*
X142685714Y-106674428D01*
X142328571Y-105674428D02*
X142685714Y-106674428D01*
X142685714Y-106674428D02*
X142828571Y-107031571D01*
X142828571Y-107031571D02*
X142900000Y-107103000D01*
X142900000Y-107103000D02*
X143042857Y-107174428D01*
X140614286Y-106674428D02*
X140614286Y-105174428D01*
X140614286Y-105745857D02*
X140471429Y-105674428D01*
X140471429Y-105674428D02*
X140185714Y-105674428D01*
X140185714Y-105674428D02*
X140042857Y-105745857D01*
X140042857Y-105745857D02*
X139971429Y-105817285D01*
X139971429Y-105817285D02*
X139900000Y-105960142D01*
X139900000Y-105960142D02*
X139900000Y-106388714D01*
X139900000Y-106388714D02*
X139971429Y-106531571D01*
X139971429Y-106531571D02*
X140042857Y-106603000D01*
X140042857Y-106603000D02*
X140185714Y-106674428D01*
X140185714Y-106674428D02*
X140471429Y-106674428D01*
X140471429Y-106674428D02*
X140614286Y-106603000D01*
X139471428Y-105674428D02*
X138900000Y-105674428D01*
X139257143Y-105174428D02*
X139257143Y-106460142D01*
X139257143Y-106460142D02*
X139185714Y-106603000D01*
X139185714Y-106603000D02*
X139042857Y-106674428D01*
X139042857Y-106674428D02*
X138900000Y-106674428D01*
X138542857Y-105674428D02*
X138257143Y-106674428D01*
X138257143Y-106674428D02*
X137971428Y-105960142D01*
X137971428Y-105960142D02*
X137685714Y-106674428D01*
X137685714Y-106674428D02*
X137400000Y-105674428D01*
X135614285Y-106603000D02*
X135614285Y-106674428D01*
X135614285Y-106674428D02*
X135685714Y-106817285D01*
X135685714Y-106817285D02*
X135757142Y-106888714D01*
X135685714Y-105745857D02*
X135614285Y-105817285D01*
X135614285Y-105817285D02*
X135685714Y-105888714D01*
X135685714Y-105888714D02*
X135757142Y-105817285D01*
X135757142Y-105817285D02*
X135685714Y-105745857D01*
X135685714Y-105745857D02*
X135685714Y-105888714D01*
X134971428Y-106674428D02*
X134971428Y-105174428D01*
X134971428Y-105174428D02*
X134614285Y-105174428D01*
X134614285Y-105174428D02*
X134399999Y-105245857D01*
X134399999Y-105245857D02*
X134257142Y-105388714D01*
X134257142Y-105388714D02*
X134185713Y-105531571D01*
X134185713Y-105531571D02*
X134114285Y-105817285D01*
X134114285Y-105817285D02*
X134114285Y-106031571D01*
X134114285Y-106031571D02*
X134185713Y-106317285D01*
X134185713Y-106317285D02*
X134257142Y-106460142D01*
X134257142Y-106460142D02*
X134399999Y-106603000D01*
X134399999Y-106603000D02*
X134614285Y-106674428D01*
X134614285Y-106674428D02*
X134971428Y-106674428D01*
M02*
