%TF.GenerationSoftware,KiCad,Pcbnew,9.0.7-9.0.7~ubuntu24.04.1*%
%TF.CreationDate,2026-02-18T22:38:37+05:30*%
%TF.ProjectId,mudkip-themed-chaser,6d75646b-6970-42d7-9468-656d65642d63,rev?*%
%TF.SameCoordinates,Original*%
%TF.FileFunction,Copper,L2,Bot*%
%TF.FilePolarity,Positive*%
%FSLAX46Y46*%
G04 Gerber Fmt 4.6, Leading zero omitted, Abs format (unit mm)*
G04 Created by KiCad (PCBNEW 9.0.7-9.0.7~ubuntu24.04.1) date 2026-02-18 22:38:37*
%MOMM*%
%LPD*%
G01*
G04 APERTURE LIST*
G04 Aperture macros list*
%AMRoundRect*
0 Rectangle with rounded corners*
0 $1 Rounding radius*
0 $2 $3 $4 $5 $6 $7 $8 $9 X,Y pos of 4 corners*
0 Add a 4 corners polygon primitive as box body*
4,1,4,$2,$3,$4,$5,$6,$7,$8,$9,$2,$3,0*
0 Add four circle primitives for the rounded corners*
1,1,$1+$1,$2,$3*
1,1,$1+$1,$4,$5*
1,1,$1+$1,$6,$7*
1,1,$1+$1,$8,$9*
0 Add four rect primitives between the rounded corners*
20,1,$1+$1,$2,$3,$4,$5,0*
20,1,$1+$1,$4,$5,$6,$7,0*
20,1,$1+$1,$6,$7,$8,$9,0*
20,1,$1+$1,$8,$9,$2,$3,0*%
G04 Aperture macros list end*
%TA.AperFunction,ComponentPad*%
%ADD10C,2.000000*%
%TD*%
%TA.AperFunction,ComponentPad*%
%ADD11R,1.800000X1.800000*%
%TD*%
%TA.AperFunction,ComponentPad*%
%ADD12C,1.800000*%
%TD*%
%TA.AperFunction,ComponentPad*%
%ADD13R,1.295400X1.295400*%
%TD*%
%TA.AperFunction,ComponentPad*%
%ADD14C,1.295400*%
%TD*%
%TA.AperFunction,ComponentPad*%
%ADD15C,1.600000*%
%TD*%
%TA.AperFunction,ComponentPad*%
%ADD16RoundRect,0.412500X-0.412500X-0.412500X0.412500X-0.412500X0.412500X0.412500X-0.412500X0.412500X0*%
%TD*%
%TA.AperFunction,ComponentPad*%
%ADD17C,1.650000*%
%TD*%
%TA.AperFunction,ComponentPad*%
%ADD18R,1.700000X1.700000*%
%TD*%
%TA.AperFunction,ComponentPad*%
%ADD19C,1.700000*%
%TD*%
%TA.AperFunction,ComponentPad*%
%ADD20RoundRect,0.250000X0.550000X0.550000X-0.550000X0.550000X-0.550000X-0.550000X0.550000X-0.550000X0*%
%TD*%
%TA.AperFunction,ComponentPad*%
%ADD21RoundRect,0.250000X-0.550000X-0.550000X0.550000X-0.550000X0.550000X0.550000X-0.550000X0.550000X0*%
%TD*%
%TA.AperFunction,ViaPad*%
%ADD22C,0.600000*%
%TD*%
%TA.AperFunction,Conductor*%
%ADD23C,0.200000*%
%TD*%
G04 APERTURE END LIST*
D10*
%TO.P,C2,1*%
%TO.N,GND*%
X164500000Y-82500000D03*
%TO.P,C2,2*%
%TO.N,Net-(U1-CONT)*%
X169500000Y-82500000D03*
%TD*%
D11*
%TO.P,D2,1,K*%
%TO.N,Net-(D1-K)*%
X163230000Y-73000000D03*
D12*
%TO.P,D2,2,A*%
%TO.N,Net-(D2-A)*%
X165770000Y-73000000D03*
%TD*%
D10*
%TO.P,C1,1*%
%TO.N,+5V*%
X161000000Y-82500000D03*
%TO.P,C1,2*%
%TO.N,GND*%
X156000000Y-82500000D03*
%TD*%
D13*
%TO.P,U2,1,Q5*%
%TO.N,Net-(D6-A)*%
X159260000Y-93620000D03*
D14*
%TO.P,U2,2,Q1*%
%TO.N,Net-(D2-A)*%
X161800000Y-93620000D03*
%TO.P,U2,3,Q0*%
%TO.N,Net-(D1-A)*%
X164340000Y-93620000D03*
%TO.P,U2,4,Q2*%
%TO.N,Net-(D3-A)*%
X166880000Y-93620000D03*
%TO.P,U2,5,Q6*%
%TO.N,Net-(D7-A)*%
X169420000Y-93620000D03*
%TO.P,U2,6,Q7*%
%TO.N,Net-(D8-A)*%
X171960000Y-93620000D03*
%TO.P,U2,7,Q3*%
%TO.N,Net-(D4-A)*%
X174500000Y-93620000D03*
%TO.P,U2,8,VSS*%
%TO.N,GND*%
X177040000Y-93620000D03*
%TO.P,U2,9,Q8*%
%TO.N,Net-(D9-A)*%
X177040000Y-86000000D03*
%TO.P,U2,10,Q4*%
%TO.N,Net-(D5-A)*%
X174500000Y-86000000D03*
%TO.P,U2,11,Q9*%
%TO.N,Net-(D10-A)*%
X171960000Y-86000000D03*
%TO.P,U2,12,Cout*%
%TO.N,unconnected-(U2-Cout-Pad12)*%
X169420000Y-86000000D03*
%TO.P,U2,13,CKEN*%
%TO.N,GND*%
X166880000Y-86000000D03*
%TO.P,U2,14,CLK*%
%TO.N,OUT*%
X164340000Y-86000000D03*
%TO.P,U2,15,Reset*%
%TO.N,GND*%
X161800000Y-86000000D03*
%TO.P,U2,16,VDD*%
X159260000Y-86000000D03*
%TD*%
D11*
%TO.P,D9,1,K*%
%TO.N,Net-(D1-K)*%
X144960000Y-106000000D03*
D12*
%TO.P,D9,2,A*%
%TO.N,Net-(D9-A)*%
X147500000Y-106000000D03*
%TD*%
D11*
%TO.P,D1,1,K*%
%TO.N,Net-(D1-K)*%
X163460000Y-66500000D03*
D12*
%TO.P,D1,2,A*%
%TO.N,Net-(D1-A)*%
X166000000Y-66500000D03*
%TD*%
D15*
%TO.P,R1,1*%
%TO.N,Net-(U1-DISCH)*%
X173810000Y-96500000D03*
%TO.P,R1,2*%
%TO.N,+5V*%
X166190000Y-96500000D03*
%TD*%
D11*
%TO.P,D6,1,K*%
%TO.N,Net-(D1-K)*%
X164230000Y-103000000D03*
D12*
%TO.P,D6,2,A*%
%TO.N,Net-(D6-A)*%
X166770000Y-103000000D03*
%TD*%
D11*
%TO.P,D5,1,K*%
%TO.N,Net-(D1-K)*%
X179960000Y-90000000D03*
D12*
%TO.P,D5,2,A*%
%TO.N,Net-(D5-A)*%
X182500000Y-90000000D03*
%TD*%
D16*
%TO.P,RV1,1,1*%
%TO.N,Net-(U1-DISCH)*%
X134420000Y-105500000D03*
D17*
%TO.P,RV1,2,2*%
X136960000Y-105500000D03*
%TO.P,RV1,3,3*%
%TO.N,TR*%
X139500000Y-105500000D03*
%TD*%
D11*
%TO.P,D10,1,K*%
%TO.N,Net-(D1-K)*%
X174960000Y-81500000D03*
D12*
%TO.P,D10,2,A*%
%TO.N,Net-(D10-A)*%
X177500000Y-81500000D03*
%TD*%
D18*
%TO.P,J1,1,Pin_1*%
%TO.N,+5V*%
X151460000Y-108500000D03*
D19*
%TO.P,J1,2,Pin_2*%
%TO.N,GND*%
X154000000Y-108500000D03*
%TD*%
D11*
%TO.P,D3,1,K*%
%TO.N,Net-(D1-K)*%
X156730000Y-77500000D03*
D12*
%TO.P,D3,2,A*%
%TO.N,Net-(D3-A)*%
X159270000Y-77500000D03*
%TD*%
D15*
%TO.P,R2,1*%
%TO.N,Net-(D1-K)*%
X155880000Y-97500000D03*
%TO.P,R2,2*%
%TO.N,GND*%
X163500000Y-97500000D03*
%TD*%
D11*
%TO.P,D4,1,K*%
%TO.N,Net-(D1-K)*%
X169000000Y-77000000D03*
D12*
%TO.P,D4,2,A*%
%TO.N,Net-(D4-A)*%
X171540000Y-77000000D03*
%TD*%
D11*
%TO.P,D8,1,K*%
%TO.N,Net-(D1-K)*%
X149730000Y-101000000D03*
D12*
%TO.P,D8,2,A*%
%TO.N,Net-(D8-A)*%
X152270000Y-101000000D03*
%TD*%
D11*
%TO.P,D7,1,K*%
%TO.N,Net-(D1-K)*%
X156730000Y-104500000D03*
D12*
%TO.P,D7,2,A*%
%TO.N,Net-(D7-A)*%
X159270000Y-104500000D03*
%TD*%
D20*
%TO.P,U1,1,GND*%
%TO.N,GND*%
X156305000Y-94060000D03*
D15*
%TO.P,U1,2,TRIG*%
%TO.N,TR*%
X156305000Y-91520000D03*
%TO.P,U1,3,OUT*%
%TO.N,OUT*%
X156305000Y-88980000D03*
%TO.P,U1,4,~{RST}*%
%TO.N,+5V*%
X156305000Y-86440000D03*
%TO.P,U1,5,CONT*%
%TO.N,Net-(U1-CONT)*%
X148685000Y-86440000D03*
%TO.P,U1,6,THRES*%
%TO.N,TR*%
X148685000Y-88980000D03*
%TO.P,U1,7,DISCH*%
%TO.N,Net-(U1-DISCH)*%
X148685000Y-91520000D03*
%TO.P,U1,8,VCC*%
%TO.N,+5V*%
X148685000Y-94060000D03*
%TD*%
D21*
%TO.P,C4,1*%
%TO.N,TR*%
X163500000Y-60000000D03*
D15*
%TO.P,C4,2*%
%TO.N,GND*%
X165500000Y-60000000D03*
%TD*%
D22*
%TO.N,GND*%
X170201000Y-89436227D03*
%TO.N,+5V*%
X155250000Y-99250000D03*
X150750000Y-102500000D03*
%TO.N,TR*%
X149250000Y-99500000D03*
%TO.N,Net-(D6-A)*%
X165750000Y-99500000D03*
%TO.N,Net-(D8-A)*%
X170000000Y-97250000D03*
%TD*%
D23*
%TO.N,GND*%
X164700001Y-72371528D02*
X164500000Y-72571529D01*
X155202081Y-108500000D02*
X157931000Y-105771081D01*
X159260000Y-91105000D02*
X156305000Y-94060000D01*
X157931000Y-103069000D02*
X163500000Y-97500000D01*
X157931000Y-105771081D02*
X157931000Y-103069000D01*
X156000000Y-82500000D02*
X159260000Y-85760000D01*
X164700001Y-60799999D02*
X164700001Y-72371528D01*
X159260000Y-85760000D02*
X159260000Y-86000000D01*
X159260000Y-86000000D02*
X159260000Y-91105000D01*
X170201000Y-89436227D02*
X172856227Y-89436227D01*
X165500000Y-60000000D02*
X164700001Y-60799999D01*
X154000000Y-108500000D02*
X155202081Y-108500000D01*
X172856227Y-89436227D02*
X177040000Y-93620000D01*
X164500000Y-72571529D02*
X164500000Y-82500000D01*
%TO.N,+5V*%
X152468471Y-102500000D02*
X155250000Y-99718471D01*
X155250000Y-99718471D02*
X155250000Y-99250000D01*
X150750000Y-102500000D02*
X152468471Y-102500000D01*
%TO.N,TR*%
X150187000Y-98563000D02*
X149250000Y-99500000D01*
X152750000Y-79078000D02*
X152750000Y-84915000D01*
X156312950Y-75515050D02*
X152750000Y-79078000D01*
X159556479Y-63943521D02*
X159556479Y-75515050D01*
X148685000Y-88980000D02*
X150187000Y-90482000D01*
X163500000Y-60000000D02*
X159556479Y-63943521D01*
X159556479Y-75515050D02*
X156312950Y-75515050D01*
X152750000Y-84915000D02*
X148685000Y-88980000D01*
X150187000Y-90482000D02*
X150187000Y-98563000D01*
%TO.N,Net-(D1-K)*%
X173500000Y-81500000D02*
X174960000Y-81500000D01*
X149730000Y-101000000D02*
X153230000Y-97500000D01*
X174960000Y-81500000D02*
X179960000Y-86500000D01*
X154699000Y-79531000D02*
X154699000Y-96319000D01*
X154699000Y-96319000D02*
X155880000Y-97500000D01*
X156730000Y-77500000D02*
X154699000Y-79531000D01*
X156730000Y-77500000D02*
X157406000Y-78176000D01*
X179960000Y-86500000D02*
X179960000Y-90000000D01*
X169000000Y-77000000D02*
X173500000Y-81500000D01*
X153230000Y-97500000D02*
X155880000Y-97500000D01*
%TO.N,Net-(D1-A)*%
X165288700Y-86249635D02*
X165288700Y-92671300D01*
X165288700Y-92671300D02*
X164340000Y-93620000D01*
X166000000Y-66500000D02*
X166971000Y-67471000D01*
X166971000Y-84567335D02*
X165288700Y-86249635D01*
X166971000Y-67471000D02*
X166971000Y-84567335D01*
%TO.N,Net-(D2-A)*%
X165801000Y-83038892D02*
X165801000Y-73031000D01*
X163199000Y-92221000D02*
X163199000Y-85640892D01*
X165801000Y-73031000D02*
X165770000Y-73000000D01*
X163199000Y-85640892D02*
X165801000Y-83038892D01*
X161800000Y-93620000D02*
X163199000Y-92221000D01*
%TO.N,Net-(D6-A)*%
X166770000Y-100520000D02*
X166770000Y-103000000D01*
X165750000Y-99500000D02*
X166770000Y-100520000D01*
%TO.N,Net-(D7-A)*%
X159270000Y-104500000D02*
X165089000Y-98681000D01*
X166382950Y-94750000D02*
X168290000Y-94750000D01*
X165089000Y-96043950D02*
X166382950Y-94750000D01*
X168290000Y-94750000D02*
X169420000Y-93620000D01*
X165089000Y-98681000D02*
X165089000Y-96043950D01*
%TO.N,Net-(D8-A)*%
X170000000Y-97250000D02*
X170000000Y-95580000D01*
X170000000Y-95580000D02*
X171960000Y-93620000D01*
%TO.N,Net-(D9-A)*%
X156051665Y-103250000D02*
X165288700Y-94012965D01*
X165288700Y-94012965D02*
X165288700Y-93500000D01*
X147500000Y-106000000D02*
X150250000Y-103250000D01*
X150250000Y-103250000D02*
X156051665Y-103250000D01*
X165288700Y-93500000D02*
X171840000Y-86948700D01*
X171840000Y-86948700D02*
X176091300Y-86948700D01*
X176091300Y-86948700D02*
X177040000Y-86000000D01*
%TO.N,Net-(U1-DISCH)*%
X138661000Y-107201000D02*
X140799000Y-107201000D01*
X145500000Y-102500000D02*
X148256471Y-102500000D01*
X148256471Y-102500000D02*
X148529000Y-102227471D01*
X140799000Y-107201000D02*
X145500000Y-102500000D01*
X148529000Y-102227471D02*
X148529000Y-97471000D01*
X149786000Y-92621000D02*
X148685000Y-91520000D01*
X136960000Y-105500000D02*
X138661000Y-107201000D01*
X148529000Y-97471000D02*
X149786000Y-96214000D01*
X149786000Y-96214000D02*
X149786000Y-92621000D01*
%TD*%
%TA.AperFunction,Conductor*%
%TO.N,GND*%
G36*
X179014485Y-80964944D02*
G01*
X179065299Y-81004607D01*
X179141307Y-81105619D01*
X179148406Y-81116133D01*
X179290696Y-81352049D01*
X179304147Y-81383474D01*
X179537419Y-82239073D01*
X179537420Y-82239073D01*
X179538397Y-82242656D01*
X179548825Y-82292482D01*
X179555678Y-82306037D01*
X179559674Y-82320693D01*
X179559675Y-82320696D01*
X179559675Y-82320697D01*
X179583442Y-82361448D01*
X179586988Y-82367969D01*
X179642633Y-82478033D01*
X179935503Y-83057329D01*
X179956428Y-83098717D01*
X179983878Y-83154887D01*
X179986136Y-83157481D01*
X179987689Y-83160552D01*
X180028819Y-83206522D01*
X180029928Y-83207779D01*
X180467420Y-83710269D01*
X180473823Y-83717623D01*
X180474707Y-83719396D01*
X180517078Y-83767303D01*
X180559056Y-83815518D01*
X180559132Y-83815605D01*
X180560212Y-83816544D01*
X180560217Y-83816549D01*
X180562009Y-83818107D01*
X180562012Y-83818109D01*
X180562014Y-83818111D01*
X180615047Y-83853225D01*
X180615655Y-83853631D01*
X180643151Y-83872146D01*
X180671021Y-83890913D01*
X180678372Y-83895152D01*
X181202800Y-84242384D01*
X181202799Y-84242384D01*
X181203379Y-84242768D01*
X181255493Y-84278136D01*
X181258235Y-84279089D01*
X181260658Y-84280693D01*
X181319788Y-84300488D01*
X181321125Y-84300944D01*
X181983671Y-84531190D01*
X182031029Y-84550819D01*
X182045729Y-84552756D01*
X182057683Y-84556911D01*
X182057684Y-84556912D01*
X182057689Y-84556913D01*
X182059737Y-84557625D01*
X182107251Y-84561083D01*
X182114430Y-84561817D01*
X182844905Y-84658147D01*
X182896697Y-84667781D01*
X182910049Y-84666738D01*
X182923329Y-84668490D01*
X182972356Y-84662045D01*
X182978780Y-84661372D01*
X184636238Y-84531992D01*
X184643240Y-84533094D01*
X184701846Y-84526871D01*
X184760561Y-84522288D01*
X184760564Y-84522287D01*
X184768517Y-84520602D01*
X184768676Y-84521354D01*
X184781728Y-84518388D01*
X185490129Y-84443172D01*
X185499030Y-84444019D01*
X185504454Y-84442485D01*
X185539337Y-84447855D01*
X185627983Y-84474844D01*
X185679036Y-84490388D01*
X185735583Y-84526614D01*
X185814089Y-84614902D01*
X185846361Y-84651195D01*
X185874767Y-84706794D01*
X185916777Y-84896589D01*
X185913612Y-84961786D01*
X185854955Y-85141893D01*
X185835025Y-85179500D01*
X185340978Y-85816346D01*
X185332008Y-85827908D01*
X185326706Y-85832162D01*
X185291710Y-85879852D01*
X185290671Y-85881193D01*
X185255406Y-85926653D01*
X185251306Y-85933669D01*
X185250619Y-85933267D01*
X185244112Y-85944721D01*
X184268029Y-87274959D01*
X184268028Y-87274958D01*
X184264601Y-87279627D01*
X184236339Y-87311463D01*
X184225799Y-87332508D01*
X184219594Y-87340966D01*
X184219594Y-87340968D01*
X184211864Y-87351504D01*
X184211858Y-87351515D01*
X184198497Y-87385835D01*
X184193821Y-87396369D01*
X183985257Y-87812877D01*
X183979118Y-87825136D01*
X183972452Y-87833306D01*
X183949699Y-87883886D01*
X183948543Y-87886196D01*
X183948534Y-87886216D01*
X183924838Y-87933538D01*
X183922717Y-87943873D01*
X183918391Y-87953492D01*
X183909501Y-88008260D01*
X183908983Y-88010784D01*
X183898342Y-88062628D01*
X183897761Y-88070735D01*
X183897583Y-88070722D01*
X183896770Y-88086694D01*
X183841694Y-88426033D01*
X183840612Y-88432696D01*
X183830318Y-88469954D01*
X183830103Y-88497448D01*
X183828580Y-88506833D01*
X183828580Y-88506836D01*
X183825696Y-88524609D01*
X183825696Y-88524610D01*
X183828910Y-88556372D01*
X183829589Y-88563087D01*
X183829289Y-88601735D01*
X183836197Y-88628351D01*
X183837155Y-88637805D01*
X183837156Y-88637811D01*
X183838970Y-88655726D01*
X183850294Y-88685566D01*
X183854383Y-88698403D01*
X183855344Y-88702104D01*
X183944148Y-89044193D01*
X183944557Y-89055414D01*
X183960659Y-89107804D01*
X183961354Y-89110479D01*
X183974440Y-89160884D01*
X183977492Y-89168419D01*
X183977426Y-89168445D01*
X183979833Y-89174029D01*
X183979898Y-89174000D01*
X183983277Y-89181386D01*
X184010947Y-89225522D01*
X184010948Y-89225522D01*
X184012414Y-89227860D01*
X184039440Y-89275526D01*
X184047313Y-89283523D01*
X184054507Y-89294997D01*
X184054507Y-89294998D01*
X184054508Y-89294999D01*
X184301646Y-89689188D01*
X184307161Y-89698935D01*
X184324210Y-89732528D01*
X184332374Y-89741623D01*
X184339497Y-89749559D01*
X184351651Y-89768945D01*
X184383333Y-89798401D01*
X184858616Y-90327951D01*
X185486643Y-91027686D01*
X185494830Y-91039236D01*
X185495299Y-91038893D01*
X185500098Y-91045442D01*
X185538760Y-91085848D01*
X185541447Y-91088747D01*
X185578816Y-91130382D01*
X185584987Y-91135669D01*
X185584606Y-91136113D01*
X185595504Y-91145151D01*
X185979659Y-91546634D01*
X185980896Y-91548413D01*
X185981876Y-91549012D01*
X186001639Y-91578254D01*
X186041422Y-91660291D01*
X186053756Y-91719201D01*
X186050979Y-91790834D01*
X186034821Y-91847400D01*
X185982190Y-91939806D01*
X185938769Y-91984445D01*
X185853882Y-92035956D01*
X185813303Y-92051651D01*
X185220361Y-92167358D01*
X185210922Y-92169199D01*
X185209099Y-92169087D01*
X185146326Y-92181805D01*
X185145743Y-92181919D01*
X185079930Y-92194761D01*
X185072331Y-92196796D01*
X183648603Y-92485263D01*
X183648602Y-92485262D01*
X183635406Y-92487935D01*
X183623865Y-92487747D01*
X183571006Y-92500985D01*
X183568215Y-92501551D01*
X183517572Y-92511812D01*
X183517571Y-92511812D01*
X183507226Y-92516959D01*
X183496029Y-92519764D01*
X183448412Y-92546222D01*
X183445880Y-92547483D01*
X183445881Y-92547483D01*
X183399585Y-92570519D01*
X183392846Y-92575058D01*
X183392833Y-92575040D01*
X183379163Y-92584704D01*
X182720794Y-92950547D01*
X182720795Y-92950548D01*
X182712836Y-92954970D01*
X182711619Y-92955283D01*
X182655262Y-92986964D01*
X182654864Y-92987186D01*
X182654862Y-92987186D01*
X182598693Y-93018399D01*
X182597924Y-93018976D01*
X182597925Y-93018977D01*
X182596743Y-93019862D01*
X182550648Y-93064912D01*
X182550212Y-93065336D01*
X182504039Y-93110019D01*
X182503039Y-93111279D01*
X182502527Y-93111923D01*
X182469666Y-93167362D01*
X182469467Y-93167696D01*
X182436289Y-93223048D01*
X182435943Y-93224258D01*
X182435301Y-93225342D01*
X182435299Y-93225345D01*
X182435298Y-93225349D01*
X182417934Y-93287301D01*
X182417935Y-93287302D01*
X182417833Y-93287667D01*
X182400098Y-93349766D01*
X182400077Y-93351022D01*
X182400014Y-93351249D01*
X182397617Y-93359801D01*
X182397615Y-93359802D01*
X182397616Y-93359802D01*
X182196825Y-94076238D01*
X182187477Y-94099913D01*
X182186823Y-94101171D01*
X182186822Y-94101173D01*
X182176393Y-94148421D01*
X182174708Y-94155152D01*
X182161644Y-94201767D01*
X182161643Y-94201778D01*
X182161627Y-94203191D01*
X182161480Y-94215986D01*
X182158418Y-94229863D01*
X182160727Y-94281680D01*
X182160688Y-94285154D01*
X182160134Y-94333546D01*
X182160135Y-94333549D01*
X182160485Y-94334920D01*
X182164225Y-94360103D01*
X182230410Y-95844314D01*
X182230532Y-95849387D01*
X182234122Y-96836379D01*
X182232091Y-96859186D01*
X182134734Y-97390340D01*
X182129059Y-97402999D01*
X182128109Y-97413502D01*
X182110613Y-97444154D01*
X182052532Y-97518764D01*
X181995819Y-97559573D01*
X181968782Y-97565790D01*
X181911088Y-97572392D01*
X181845927Y-97562194D01*
X181845712Y-97562097D01*
X181393782Y-97357868D01*
X181372981Y-97345922D01*
X181348970Y-97328846D01*
X180295860Y-96579888D01*
X178070157Y-94996997D01*
X178068256Y-94995645D01*
X178023408Y-94961162D01*
X178014660Y-94957528D01*
X178006950Y-94952045D01*
X178006944Y-94952042D01*
X177956129Y-94933123D01*
X177951833Y-94931432D01*
X177901707Y-94910613D01*
X177893857Y-94908502D01*
X177893948Y-94908161D01*
X177891444Y-94907538D01*
X177891366Y-94907881D01*
X177883441Y-94906062D01*
X177829415Y-94900936D01*
X177829415Y-94900937D01*
X177827127Y-94900720D01*
X177771064Y-94893284D01*
X177761673Y-94894510D01*
X177752251Y-94893617D01*
X177752250Y-94893617D01*
X177752249Y-94893617D01*
X177698779Y-94902641D01*
X177694212Y-94903325D01*
X177640387Y-94910358D01*
X177631634Y-94913973D01*
X177622304Y-94915549D01*
X177570887Y-94939066D01*
X177568747Y-94939951D01*
X177568718Y-94939964D01*
X177518589Y-94960672D01*
X177518587Y-94960673D01*
X177518583Y-94960675D01*
X177511543Y-94964730D01*
X177511368Y-94964427D01*
X177509157Y-94965756D01*
X177509343Y-94966053D01*
X177502459Y-94970367D01*
X177460645Y-95004934D01*
X177457030Y-95007811D01*
X175494246Y-96510877D01*
X175491885Y-96512641D01*
X175307530Y-96646989D01*
X175241757Y-96670563D01*
X175173681Y-96654836D01*
X175124914Y-96604801D01*
X175110500Y-96546776D01*
X175110500Y-96397648D01*
X175078477Y-96195465D01*
X175040470Y-96078492D01*
X175015220Y-96000781D01*
X175015218Y-96000778D01*
X175015218Y-96000776D01*
X174962244Y-95896810D01*
X174922287Y-95818390D01*
X174903416Y-95792416D01*
X174801971Y-95652786D01*
X174657213Y-95508028D01*
X174491613Y-95387715D01*
X174491612Y-95387714D01*
X174491610Y-95387713D01*
X174425144Y-95353847D01*
X174309223Y-95294781D01*
X174114534Y-95231522D01*
X173930125Y-95202315D01*
X173912352Y-95199500D01*
X173707648Y-95199500D01*
X173689875Y-95202315D01*
X173505465Y-95231522D01*
X173310776Y-95294781D01*
X173128386Y-95387715D01*
X172962786Y-95508028D01*
X172818028Y-95652786D01*
X172697715Y-95818386D01*
X172604781Y-96000776D01*
X172541522Y-96195465D01*
X172509500Y-96397648D01*
X172509500Y-96602351D01*
X172541522Y-96804534D01*
X172604781Y-96999223D01*
X172668691Y-97124653D01*
X172692387Y-97171158D01*
X172697715Y-97181613D01*
X172818028Y-97347213D01*
X172962786Y-97491971D01*
X173128385Y-97612284D01*
X173128387Y-97612285D01*
X173128390Y-97612287D01*
X173301975Y-97700733D01*
X173309758Y-97708083D01*
X173319795Y-97711805D01*
X173334715Y-97731655D01*
X173352771Y-97748708D01*
X173355344Y-97759099D01*
X173361776Y-97767656D01*
X173363596Y-97792423D01*
X173369566Y-97816529D01*
X173366113Y-97826661D01*
X173366898Y-97837338D01*
X173355039Y-97859156D01*
X173347029Y-97882664D01*
X173337763Y-97890943D01*
X173333533Y-97898727D01*
X173305321Y-97919933D01*
X173138646Y-98011370D01*
X173124150Y-98018145D01*
X171857220Y-98513384D01*
X171842347Y-98518142D01*
X170527249Y-98849212D01*
X170506798Y-98852091D01*
X170502140Y-98852861D01*
X170502139Y-98852862D01*
X170502137Y-98852862D01*
X170502134Y-98852863D01*
X170453467Y-98867639D01*
X170450604Y-98868508D01*
X170398416Y-98881647D01*
X170387741Y-98887595D01*
X170375016Y-98891459D01*
X169962748Y-99016636D01*
X169941330Y-99021121D01*
X169930844Y-99022364D01*
X169930836Y-99022367D01*
X169894317Y-99036946D01*
X169894316Y-99036946D01*
X169889413Y-99038904D01*
X169846747Y-99051859D01*
X169828460Y-99063236D01*
X169818263Y-99067307D01*
X169818260Y-99067309D01*
X169808446Y-99071227D01*
X169808444Y-99071228D01*
X169776937Y-99094764D01*
X169776938Y-99094765D01*
X169772710Y-99097923D01*
X169734854Y-99121479D01*
X169720132Y-99137204D01*
X169711331Y-99143780D01*
X169711329Y-99143780D01*
X169711329Y-99143781D01*
X169404087Y-99373316D01*
X169399006Y-99376917D01*
X169357328Y-99404906D01*
X169356107Y-99405982D01*
X169339882Y-99421019D01*
X169338720Y-99422152D01*
X169307652Y-99461575D01*
X169307653Y-99461576D01*
X169305707Y-99464045D01*
X169270669Y-99504187D01*
X169265054Y-99515637D01*
X169257159Y-99525657D01*
X169257158Y-99525658D01*
X169237351Y-99571788D01*
X169234750Y-99577448D01*
X169058676Y-99936584D01*
X169054675Y-99944743D01*
X169038129Y-99968821D01*
X169025794Y-100003650D01*
X169022637Y-100010091D01*
X169022637Y-100010092D01*
X169009527Y-100036835D01*
X169005645Y-100056587D01*
X169000863Y-100074058D01*
X168994140Y-100093044D01*
X168994139Y-100093051D01*
X168991801Y-100122740D01*
X168991802Y-100122741D01*
X168991239Y-100129895D01*
X168984116Y-100166148D01*
X168986093Y-100195290D01*
X168985381Y-100204348D01*
X168985381Y-100204350D01*
X168947404Y-100686977D01*
X168943349Y-100710124D01*
X168941645Y-100716320D01*
X168941645Y-100716321D01*
X168941357Y-100759735D01*
X168940978Y-100768635D01*
X168937571Y-100811945D01*
X168937571Y-100811949D01*
X168938743Y-100818272D01*
X168940815Y-100841684D01*
X168909974Y-105506575D01*
X168909274Y-105518941D01*
X168790305Y-106631365D01*
X168785946Y-106653247D01*
X168515567Y-107570287D01*
X168505344Y-107594860D01*
X168099527Y-108334588D01*
X168081903Y-108359081D01*
X167550863Y-108934035D01*
X167526708Y-108954283D01*
X166865973Y-109377983D01*
X166838991Y-109390988D01*
X166034551Y-109664789D01*
X166008914Y-109670573D01*
X165050955Y-109781926D01*
X165028984Y-109782519D01*
X163915271Y-109713647D01*
X163898531Y-109711460D01*
X162073854Y-109345345D01*
X162059743Y-109342513D01*
X162052640Y-109339264D01*
X161995243Y-109329572D01*
X161993369Y-109329196D01*
X161993367Y-109329195D01*
X161938197Y-109318126D01*
X161930089Y-109317581D01*
X161930131Y-109316950D01*
X161916217Y-109316229D01*
X161615306Y-109265422D01*
X161604597Y-109263614D01*
X161601689Y-109262328D01*
X161539681Y-109252654D01*
X161538876Y-109252518D01*
X161538874Y-109252517D01*
X161477521Y-109242158D01*
X161475454Y-109242109D01*
X161473909Y-109242062D01*
X161471763Y-109241983D01*
X161409823Y-109248637D01*
X161409031Y-109248722D01*
X161346593Y-109254643D01*
X161343609Y-109255753D01*
X161341835Y-109255943D01*
X161340448Y-109256093D01*
X161282644Y-109278436D01*
X161281272Y-109278956D01*
X161244994Y-109292460D01*
X161222538Y-109300819D01*
X161210366Y-109306372D01*
X160884939Y-109432157D01*
X160879858Y-109434120D01*
X160837660Y-109446307D01*
X160818635Y-109457785D01*
X160808541Y-109461687D01*
X160808538Y-109461687D01*
X160797923Y-109465791D01*
X160797909Y-109465799D01*
X160766830Y-109488489D01*
X160757777Y-109494508D01*
X159694570Y-110136052D01*
X159655244Y-110151391D01*
X158576670Y-110370967D01*
X158547428Y-110373377D01*
X157332766Y-110329221D01*
X157319380Y-110328006D01*
X155982805Y-110133127D01*
X155980417Y-110132755D01*
X155102298Y-109987187D01*
X155098646Y-109986525D01*
X154698584Y-109907837D01*
X154636604Y-109875584D01*
X154601900Y-109814943D01*
X154605490Y-109745165D01*
X154646235Y-109688406D01*
X154666221Y-109675683D01*
X154707552Y-109654624D01*
X154761716Y-109615270D01*
X154761717Y-109615270D01*
X154129408Y-108982962D01*
X154192993Y-108965925D01*
X154307007Y-108900099D01*
X154400099Y-108807007D01*
X154465925Y-108692993D01*
X154482962Y-108629408D01*
X155115270Y-109261717D01*
X155115270Y-109261716D01*
X155154622Y-109207554D01*
X155251095Y-109018217D01*
X155316757Y-108816130D01*
X155316757Y-108816127D01*
X155350000Y-108606246D01*
X155350000Y-108393753D01*
X155316757Y-108183872D01*
X155316757Y-108183869D01*
X155251095Y-107981782D01*
X155154624Y-107792449D01*
X155115270Y-107738282D01*
X155115269Y-107738282D01*
X154482962Y-108370590D01*
X154465925Y-108307007D01*
X154400099Y-108192993D01*
X154307007Y-108099901D01*
X154192993Y-108034075D01*
X154129409Y-108017037D01*
X154761716Y-107384728D01*
X154707550Y-107345375D01*
X154518217Y-107248904D01*
X154316129Y-107183242D01*
X154106246Y-107150000D01*
X153893754Y-107150000D01*
X153683872Y-107183242D01*
X153683869Y-107183242D01*
X153481782Y-107248904D01*
X153292439Y-107345380D01*
X153238282Y-107384727D01*
X153238282Y-107384728D01*
X153870591Y-108017037D01*
X153807007Y-108034075D01*
X153692993Y-108099901D01*
X153599901Y-108192993D01*
X153534075Y-108307007D01*
X153517037Y-108370591D01*
X152846818Y-107700372D01*
X152813333Y-107639049D01*
X152813330Y-107639036D01*
X152810499Y-107626015D01*
X152810499Y-107602128D01*
X152804091Y-107542517D01*
X152775926Y-107467002D01*
X152753798Y-107407673D01*
X152753793Y-107407664D01*
X152667547Y-107292455D01*
X152667544Y-107292452D01*
X152552335Y-107206206D01*
X152552328Y-107206202D01*
X152417482Y-107155908D01*
X152417483Y-107155908D01*
X152357883Y-107149501D01*
X152357881Y-107149500D01*
X152357873Y-107149500D01*
X152357864Y-107149500D01*
X150562129Y-107149500D01*
X150562123Y-107149501D01*
X150502516Y-107155908D01*
X150367671Y-107206202D01*
X150367664Y-107206206D01*
X150252455Y-107292452D01*
X150252452Y-107292455D01*
X150166206Y-107407664D01*
X150166202Y-107407671D01*
X150115908Y-107542517D01*
X150109501Y-107602116D01*
X150109500Y-107602135D01*
X150109500Y-109397870D01*
X150109501Y-109397876D01*
X150115908Y-109457483D01*
X150166202Y-109592328D01*
X150166206Y-109592335D01*
X150252452Y-109707544D01*
X150252455Y-109707547D01*
X150367664Y-109793793D01*
X150367671Y-109793797D01*
X150502517Y-109844091D01*
X150502516Y-109844091D01*
X150509444Y-109844835D01*
X150562127Y-109850500D01*
X151446164Y-109850499D01*
X151513202Y-109870183D01*
X151558957Y-109922987D01*
X151568901Y-109992146D01*
X151539876Y-110055702D01*
X151481098Y-110093476D01*
X151477651Y-110094434D01*
X150543595Y-110339660D01*
X150510463Y-110343714D01*
X149368900Y-110328575D01*
X149335139Y-110323424D01*
X148223093Y-109992119D01*
X148193130Y-109978652D01*
X147116861Y-109310927D01*
X147112471Y-109306474D01*
X147060955Y-109276242D01*
X147040600Y-109263614D01*
X147010191Y-109244748D01*
X147003578Y-109241760D01*
X146991885Y-109235710D01*
X146626199Y-109021111D01*
X146622481Y-109017491D01*
X146569424Y-108987793D01*
X146568332Y-108987152D01*
X146568331Y-108987151D01*
X146517013Y-108957037D01*
X146512950Y-108955320D01*
X146512758Y-108955226D01*
X146511533Y-108954737D01*
X146511532Y-108954736D01*
X146507490Y-108953126D01*
X146449762Y-108938478D01*
X146447317Y-108937831D01*
X146389966Y-108922027D01*
X146385615Y-108921423D01*
X146372179Y-108918794D01*
X145959288Y-108814032D01*
X145959288Y-108814031D01*
X145956699Y-108813374D01*
X145903864Y-108797537D01*
X145893016Y-108797217D01*
X145882489Y-108794546D01*
X145829928Y-108795245D01*
X145824631Y-108795202D01*
X144812235Y-108765388D01*
X144812037Y-108765382D01*
X138038395Y-108555066D01*
X138030522Y-108554571D01*
X134691059Y-108237497D01*
X134683066Y-108236475D01*
X131381360Y-107704797D01*
X131366050Y-107701325D01*
X130135668Y-107339045D01*
X130107250Y-107326635D01*
X129309373Y-106851522D01*
X129275981Y-106822436D01*
X128819891Y-106252235D01*
X128797514Y-106208910D01*
X128753768Y-106056111D01*
X128591484Y-105489275D01*
X128586980Y-105446760D01*
X128650723Y-104506826D01*
X128662290Y-104462319D01*
X129054027Y-103631925D01*
X129079109Y-103596539D01*
X129822769Y-102863313D01*
X129851469Y-102842205D01*
X129987803Y-102769482D01*
X130990781Y-102234473D01*
X131012851Y-102225312D01*
X133584063Y-101438594D01*
X133601732Y-101434574D01*
X136227952Y-101035902D01*
X136244549Y-101034514D01*
X138912313Y-100991597D01*
X138926977Y-100992230D01*
X141549612Y-101261842D01*
X141640779Y-101271215D01*
X141650091Y-101272531D01*
X144999237Y-101876124D01*
X145009324Y-101881171D01*
X145020575Y-101881976D01*
X145040009Y-101896523D01*
X145061722Y-101907387D01*
X145067479Y-101917086D01*
X145076509Y-101923846D01*
X145084993Y-101946592D01*
X145097385Y-101967469D01*
X145096984Y-101978741D01*
X145100927Y-101989311D01*
X145095766Y-102013034D01*
X145094905Y-102037295D01*
X145088088Y-102048332D01*
X145086076Y-102057584D01*
X145064925Y-102085838D01*
X145019481Y-102131283D01*
X140852364Y-106298400D01*
X140791041Y-106331885D01*
X140721349Y-106326901D01*
X140665416Y-106285029D01*
X140640999Y-106219565D01*
X140654197Y-106154426D01*
X140728389Y-106008816D01*
X140792862Y-105810389D01*
X140801231Y-105757547D01*
X140825500Y-105604324D01*
X140825500Y-105395675D01*
X140792862Y-105189610D01*
X140736261Y-105015413D01*
X140728389Y-104991184D01*
X140728387Y-104991181D01*
X140728387Y-104991179D01*
X140659515Y-104856010D01*
X140633670Y-104805286D01*
X140511035Y-104636495D01*
X140363505Y-104488965D01*
X140194714Y-104366330D01*
X140180638Y-104359158D01*
X140008820Y-104271612D01*
X139810389Y-104207137D01*
X139604324Y-104174500D01*
X139604319Y-104174500D01*
X139395681Y-104174500D01*
X139395676Y-104174500D01*
X139189610Y-104207137D01*
X138991179Y-104271612D01*
X138805285Y-104366330D01*
X138636493Y-104488966D01*
X138488966Y-104636493D01*
X138366330Y-104805285D01*
X138340485Y-104856010D01*
X138292510Y-104906806D01*
X138224690Y-104923601D01*
X138158555Y-104901064D01*
X138119515Y-104856010D01*
X138093669Y-104805285D01*
X138059683Y-104758508D01*
X137971035Y-104636495D01*
X137823505Y-104488965D01*
X137654714Y-104366330D01*
X137640638Y-104359158D01*
X137468820Y-104271612D01*
X137270389Y-104207137D01*
X137064324Y-104174500D01*
X137064319Y-104174500D01*
X136855681Y-104174500D01*
X136855676Y-104174500D01*
X136649610Y-104207137D01*
X136451179Y-104271612D01*
X136265285Y-104366330D01*
X136096493Y-104488966D01*
X135948966Y-104636493D01*
X135878883Y-104732954D01*
X135823552Y-104775619D01*
X135753939Y-104781598D01*
X135692144Y-104748992D01*
X135668080Y-104716363D01*
X135602425Y-104587507D01*
X135481645Y-104438354D01*
X135383844Y-104359158D01*
X135332494Y-104317576D01*
X135161492Y-104230446D01*
X135161491Y-104230445D01*
X135161490Y-104230445D01*
X134976109Y-104180772D01*
X134896409Y-104174500D01*
X134896402Y-104174500D01*
X133943598Y-104174500D01*
X133943590Y-104174500D01*
X133863890Y-104180772D01*
X133678509Y-104230445D01*
X133507507Y-104317575D01*
X133358354Y-104438354D01*
X133237575Y-104587507D01*
X133150445Y-104758509D01*
X133100772Y-104943890D01*
X133094500Y-105023590D01*
X133094500Y-105976409D01*
X133100772Y-106056109D01*
X133148128Y-106232840D01*
X133150446Y-106241492D01*
X133237576Y-106412494D01*
X133283778Y-106469549D01*
X133358354Y-106561645D01*
X133406337Y-106600500D01*
X133507506Y-106682424D01*
X133678508Y-106769554D01*
X133863889Y-106819227D01*
X133943598Y-106825500D01*
X133943606Y-106825500D01*
X134896394Y-106825500D01*
X134896402Y-106825500D01*
X134976111Y-106819227D01*
X135161492Y-106769554D01*
X135332494Y-106682424D01*
X135481645Y-106561645D01*
X135602424Y-106412494D01*
X135668080Y-106283636D01*
X135716054Y-106232840D01*
X135783875Y-106216045D01*
X135850010Y-106238582D01*
X135878879Y-106267041D01*
X135948965Y-106363505D01*
X136096495Y-106511035D01*
X136265286Y-106633670D01*
X136333001Y-106668172D01*
X136451179Y-106728387D01*
X136451181Y-106728387D01*
X136451184Y-106728389D01*
X136528351Y-106753462D01*
X136649610Y-106792862D01*
X136855676Y-106825500D01*
X136855681Y-106825500D01*
X137064324Y-106825500D01*
X137164222Y-106809677D01*
X137270389Y-106792862D01*
X137298682Y-106783668D01*
X137368522Y-106781672D01*
X137424683Y-106813918D01*
X138176139Y-107565374D01*
X138176149Y-107565385D01*
X138180479Y-107569715D01*
X138180480Y-107569716D01*
X138292284Y-107681520D01*
X138373288Y-107728287D01*
X138429215Y-107760577D01*
X138581942Y-107801500D01*
X138581943Y-107801500D01*
X140712331Y-107801500D01*
X140712347Y-107801501D01*
X140719943Y-107801501D01*
X140878054Y-107801501D01*
X140878057Y-107801501D01*
X141030785Y-107760577D01*
X141086712Y-107728287D01*
X141167716Y-107681520D01*
X141279520Y-107569716D01*
X141279520Y-107569714D01*
X141289724Y-107559511D01*
X141289728Y-107559506D01*
X143347821Y-105501412D01*
X143409142Y-105467929D01*
X143478834Y-105472913D01*
X143534767Y-105514785D01*
X143559184Y-105580249D01*
X143559500Y-105589095D01*
X143559500Y-106947870D01*
X143559501Y-106947876D01*
X143565908Y-107007483D01*
X143616202Y-107142328D01*
X143616206Y-107142335D01*
X143702452Y-107257544D01*
X143702455Y-107257547D01*
X143817664Y-107343793D01*
X143817671Y-107343797D01*
X143952517Y-107394091D01*
X143952516Y-107394091D01*
X143959444Y-107394835D01*
X144012127Y-107400500D01*
X145907872Y-107400499D01*
X145967483Y-107394091D01*
X146102331Y-107343796D01*
X146217546Y-107257546D01*
X146303796Y-107142331D01*
X146331429Y-107068243D01*
X146333601Y-107062420D01*
X146375471Y-107006486D01*
X146440936Y-106982068D01*
X146509209Y-106996919D01*
X146537464Y-107018071D01*
X146587636Y-107068243D01*
X146587641Y-107068247D01*
X146708299Y-107155909D01*
X146765978Y-107197815D01*
X146894375Y-107263237D01*
X146962393Y-107297895D01*
X146962396Y-107297896D01*
X147050848Y-107326635D01*
X147172049Y-107366015D01*
X147389778Y-107400500D01*
X147389779Y-107400500D01*
X147610221Y-107400500D01*
X147610222Y-107400500D01*
X147827951Y-107366015D01*
X148037606Y-107297895D01*
X148234022Y-107197815D01*
X148412365Y-107068242D01*
X148568242Y-106912365D01*
X148697815Y-106734022D01*
X148797895Y-106537606D01*
X148866015Y-106327951D01*
X148900500Y-106110222D01*
X148900500Y-105889778D01*
X148866015Y-105672049D01*
X148843188Y-105601794D01*
X148841193Y-105531953D01*
X148873436Y-105475797D01*
X150462416Y-103886819D01*
X150523739Y-103853334D01*
X150550097Y-103850500D01*
X155205500Y-103850500D01*
X155272539Y-103870185D01*
X155318294Y-103922989D01*
X155329500Y-103974500D01*
X155329500Y-105447870D01*
X155329501Y-105447876D01*
X155335908Y-105507483D01*
X155386202Y-105642328D01*
X155386206Y-105642335D01*
X155472452Y-105757544D01*
X155472455Y-105757547D01*
X155587664Y-105843793D01*
X155587671Y-105843797D01*
X155722517Y-105894091D01*
X155722516Y-105894091D01*
X155729444Y-105894835D01*
X155782127Y-105900500D01*
X157677872Y-105900499D01*
X157737483Y-105894091D01*
X157872331Y-105843796D01*
X157987546Y-105757546D01*
X158073796Y-105642331D01*
X158096951Y-105580249D01*
X158103601Y-105562420D01*
X158145471Y-105506486D01*
X158210936Y-105482068D01*
X158279209Y-105496919D01*
X158307464Y-105518071D01*
X158357636Y-105568243D01*
X158357641Y-105568247D01*
X158415538Y-105610311D01*
X158535978Y-105697815D01*
X158664375Y-105763237D01*
X158732393Y-105797895D01*
X158732396Y-105797896D01*
X158837221Y-105831955D01*
X158942049Y-105866015D01*
X159159778Y-105900500D01*
X159159779Y-105900500D01*
X159380221Y-105900500D01*
X159380222Y-105900500D01*
X159597951Y-105866015D01*
X159807606Y-105797895D01*
X160004022Y-105697815D01*
X160182365Y-105568242D01*
X160338242Y-105412365D01*
X160467815Y-105234022D01*
X160567895Y-105037606D01*
X160636015Y-104827951D01*
X160670500Y-104610222D01*
X160670500Y-104389778D01*
X160636015Y-104172049D01*
X160613188Y-104101794D01*
X160611193Y-104031953D01*
X160643436Y-103975797D01*
X162617820Y-102001414D01*
X162679142Y-101967930D01*
X162748834Y-101972914D01*
X162804767Y-102014786D01*
X162829184Y-102080250D01*
X162829500Y-102089096D01*
X162829500Y-103947870D01*
X162829501Y-103947876D01*
X162835908Y-104007483D01*
X162886202Y-104142328D01*
X162886206Y-104142335D01*
X162972452Y-104257544D01*
X162972455Y-104257547D01*
X163087664Y-104343793D01*
X163087671Y-104343797D01*
X163222517Y-104394091D01*
X163222516Y-104394091D01*
X163229444Y-104394835D01*
X163282127Y-104400500D01*
X165177872Y-104400499D01*
X165237483Y-104394091D01*
X165372331Y-104343796D01*
X165487546Y-104257546D01*
X165573796Y-104142331D01*
X165601429Y-104068243D01*
X165603601Y-104062420D01*
X165645471Y-104006486D01*
X165710936Y-103982068D01*
X165779209Y-103996919D01*
X165807464Y-104018071D01*
X165857636Y-104068243D01*
X165857641Y-104068247D01*
X165959603Y-104142326D01*
X166035978Y-104197815D01*
X166164375Y-104263237D01*
X166232393Y-104297895D01*
X166232396Y-104297896D01*
X166334602Y-104331104D01*
X166442049Y-104366015D01*
X166659778Y-104400500D01*
X166659779Y-104400500D01*
X166880221Y-104400500D01*
X166880222Y-104400500D01*
X167097951Y-104366015D01*
X167307606Y-104297895D01*
X167504022Y-104197815D01*
X167682365Y-104068242D01*
X167838242Y-103912365D01*
X167967815Y-103734022D01*
X168067895Y-103537606D01*
X168136015Y-103327951D01*
X168170500Y-103110222D01*
X168170500Y-102889778D01*
X168136015Y-102672049D01*
X168082665Y-102507853D01*
X168067896Y-102462396D01*
X168067895Y-102462393D01*
X168033237Y-102394375D01*
X167967815Y-102265978D01*
X167909501Y-102185715D01*
X167838247Y-102087641D01*
X167838243Y-102087636D01*
X167682363Y-101931756D01*
X167682358Y-101931752D01*
X167504023Y-101802185D01*
X167438204Y-101768648D01*
X167387409Y-101720674D01*
X167370500Y-101658164D01*
X167370500Y-100609059D01*
X167370501Y-100609046D01*
X167370501Y-100440945D01*
X167370501Y-100440943D01*
X167329577Y-100288215D01*
X167292544Y-100224073D01*
X167292544Y-100224071D01*
X167250524Y-100151290D01*
X167250521Y-100151286D01*
X167250520Y-100151284D01*
X167138716Y-100039480D01*
X167138715Y-100039479D01*
X167134385Y-100035149D01*
X167134374Y-100035139D01*
X166584574Y-99485339D01*
X166551089Y-99424016D01*
X166550638Y-99421849D01*
X166519738Y-99266510D01*
X166519737Y-99266503D01*
X166503242Y-99226680D01*
X166459397Y-99120827D01*
X166459390Y-99120814D01*
X166371789Y-98989711D01*
X166371786Y-98989707D01*
X166260292Y-98878213D01*
X166260288Y-98878210D01*
X166129185Y-98790609D01*
X166129172Y-98790602D01*
X165983501Y-98730264D01*
X165983489Y-98730261D01*
X165828845Y-98699500D01*
X165828842Y-98699500D01*
X165813500Y-98699500D01*
X165746461Y-98679815D01*
X165700706Y-98627011D01*
X165689500Y-98575500D01*
X165689500Y-97875475D01*
X165709185Y-97808436D01*
X165761989Y-97762681D01*
X165831147Y-97752737D01*
X165851820Y-97757545D01*
X165885458Y-97768475D01*
X165885461Y-97768475D01*
X165885466Y-97768477D01*
X166087648Y-97800500D01*
X166087649Y-97800500D01*
X166292351Y-97800500D01*
X166292352Y-97800500D01*
X166494534Y-97768477D01*
X166689219Y-97705220D01*
X166871610Y-97612287D01*
X166964590Y-97544732D01*
X167037213Y-97491971D01*
X167037215Y-97491968D01*
X167037219Y-97491966D01*
X167181966Y-97347219D01*
X167181968Y-97347215D01*
X167181971Y-97347213D01*
X167249407Y-97254394D01*
X167302287Y-97181610D01*
X167395220Y-96999219D01*
X167458477Y-96804534D01*
X167490500Y-96602352D01*
X167490500Y-96397648D01*
X167483203Y-96351580D01*
X167458477Y-96195465D01*
X167420470Y-96078492D01*
X167395220Y-96000781D01*
X167395218Y-96000778D01*
X167395218Y-96000776D01*
X167342244Y-95896810D01*
X167302287Y-95818390D01*
X167283416Y-95792416D01*
X167181971Y-95652786D01*
X167091366Y-95562181D01*
X167057881Y-95500858D01*
X167062865Y-95431166D01*
X167104737Y-95375233D01*
X167170201Y-95350816D01*
X167179047Y-95350500D01*
X168203331Y-95350500D01*
X168203347Y-95350501D01*
X168210943Y-95350501D01*
X168369054Y-95350501D01*
X168369057Y-95350501D01*
X168521785Y-95309577D01*
X168598613Y-95265220D01*
X168598617Y-95265218D01*
X168658709Y-95230524D01*
X168658708Y-95230524D01*
X168658716Y-95230520D01*
X168770520Y-95118716D01*
X168770520Y-95118714D01*
X168780724Y-95108511D01*
X168780728Y-95108506D01*
X169104882Y-94784351D01*
X169166203Y-94750868D01*
X169211955Y-94749561D01*
X169329635Y-94768200D01*
X169329637Y-94768200D01*
X169510364Y-94768200D01*
X169510365Y-94768200D01*
X169670731Y-94742800D01*
X169702006Y-94746841D01*
X169733461Y-94749091D01*
X169736391Y-94751284D01*
X169740023Y-94751754D01*
X169764149Y-94772063D01*
X169789395Y-94790962D01*
X169790674Y-94794392D01*
X169793475Y-94796750D01*
X169802789Y-94826875D01*
X169813812Y-94856427D01*
X169813033Y-94860004D01*
X169814115Y-94863502D01*
X169805664Y-94893881D01*
X169798960Y-94924700D01*
X169795986Y-94928672D01*
X169795390Y-94930816D01*
X169777810Y-94952953D01*
X169631286Y-95099478D01*
X169631285Y-95099478D01*
X169631284Y-95099479D01*
X169519479Y-95211284D01*
X169507795Y-95231523D01*
X169486781Y-95267921D01*
X169440423Y-95348215D01*
X169399499Y-95500943D01*
X169399499Y-95500945D01*
X169399499Y-95669046D01*
X169399500Y-95669059D01*
X169399500Y-96670234D01*
X169379815Y-96737273D01*
X169378602Y-96739125D01*
X169290609Y-96870814D01*
X169290602Y-96870827D01*
X169230264Y-97016498D01*
X169230261Y-97016510D01*
X169199500Y-97171153D01*
X169199500Y-97328846D01*
X169230261Y-97483489D01*
X169230264Y-97483501D01*
X169290602Y-97629172D01*
X169290609Y-97629185D01*
X169378210Y-97760288D01*
X169378213Y-97760292D01*
X169489707Y-97871786D01*
X169489711Y-97871789D01*
X169620814Y-97959390D01*
X169620827Y-97959397D01*
X169766498Y-98019735D01*
X169766503Y-98019737D01*
X169921153Y-98050499D01*
X169921156Y-98050500D01*
X169921158Y-98050500D01*
X170078844Y-98050500D01*
X170078845Y-98050499D01*
X170233497Y-98019737D01*
X170379179Y-97959394D01*
X170510289Y-97871789D01*
X170621789Y-97760289D01*
X170709394Y-97629179D01*
X170769737Y-97483497D01*
X170800500Y-97328842D01*
X170800500Y-97171158D01*
X170800500Y-97171155D01*
X170800499Y-97171153D01*
X170792569Y-97131286D01*
X170769737Y-97016503D01*
X170763223Y-97000776D01*
X170709397Y-96870827D01*
X170709390Y-96870814D01*
X170621398Y-96739125D01*
X170600520Y-96672447D01*
X170600500Y-96670234D01*
X170600500Y-95880097D01*
X170620185Y-95813058D01*
X170636819Y-95792416D01*
X171134879Y-95294356D01*
X171644883Y-94784351D01*
X171706204Y-94750868D01*
X171751955Y-94749561D01*
X171869635Y-94768200D01*
X171869637Y-94768200D01*
X172050364Y-94768200D01*
X172050365Y-94768200D01*
X172228871Y-94739927D01*
X172400756Y-94684078D01*
X172561788Y-94602028D01*
X172643879Y-94542385D01*
X172707996Y-94495803D01*
X172707998Y-94495800D01*
X172708002Y-94495798D01*
X172835798Y-94368002D01*
X172835800Y-94367998D01*
X172835803Y-94367996D01*
X172895990Y-94285154D01*
X172942028Y-94221788D01*
X173024078Y-94060756D01*
X173079927Y-93888871D01*
X173108200Y-93710365D01*
X173108200Y-93529635D01*
X173351800Y-93529635D01*
X173351800Y-93710365D01*
X173354000Y-93724254D01*
X173380072Y-93888867D01*
X173380072Y-93888869D01*
X173380073Y-93888871D01*
X173435922Y-94060756D01*
X173517840Y-94221529D01*
X173517974Y-94221791D01*
X173624196Y-94367996D01*
X173752003Y-94495803D01*
X173882260Y-94590438D01*
X173898212Y-94602028D01*
X174059244Y-94684078D01*
X174231129Y-94739927D01*
X174409635Y-94768200D01*
X174409636Y-94768200D01*
X174590364Y-94768200D01*
X174590365Y-94768200D01*
X174768871Y-94739927D01*
X174940756Y-94684078D01*
X175101788Y-94602028D01*
X175183879Y-94542385D01*
X175247996Y-94495803D01*
X175247998Y-94495800D01*
X175248002Y-94495798D01*
X175375798Y-94368002D01*
X175375800Y-94367998D01*
X175375803Y-94367996D01*
X175435990Y-94285154D01*
X175482028Y-94221788D01*
X175564078Y-94060756D01*
X175619927Y-93888871D01*
X175648200Y-93710365D01*
X175648200Y-93529635D01*
X175646253Y-93517341D01*
X175894252Y-93517341D01*
X175894252Y-93722657D01*
X175920559Y-93888751D01*
X175976386Y-94060566D01*
X176058401Y-94221529D01*
X176069558Y-94236886D01*
X176069559Y-94236886D01*
X176646300Y-93660145D01*
X176646300Y-93671832D01*
X176673130Y-93771962D01*
X176724962Y-93861737D01*
X176798263Y-93935038D01*
X176888038Y-93986870D01*
X176988168Y-94013700D01*
X176999853Y-94013700D01*
X176423112Y-94590438D01*
X176423112Y-94590439D01*
X176438477Y-94601602D01*
X176599433Y-94683613D01*
X176771249Y-94739440D01*
X176949669Y-94767700D01*
X177130331Y-94767700D01*
X177308750Y-94739440D01*
X177480566Y-94683613D01*
X177641528Y-94601599D01*
X177641532Y-94601597D01*
X177656886Y-94590440D01*
X177656887Y-94590439D01*
X177080148Y-94013700D01*
X177091832Y-94013700D01*
X177191962Y-93986870D01*
X177281737Y-93935038D01*
X177355038Y-93861737D01*
X177406870Y-93771962D01*
X177433700Y-93671832D01*
X177433700Y-93660147D01*
X178010440Y-94236887D01*
X178010440Y-94236886D01*
X178021597Y-94221532D01*
X178021599Y-94221528D01*
X178103613Y-94060566D01*
X178159440Y-93888750D01*
X178187700Y-93710331D01*
X178187700Y-93529668D01*
X178159440Y-93351249D01*
X178103613Y-93179433D01*
X178021602Y-93018477D01*
X178010439Y-93003112D01*
X177433700Y-93579851D01*
X177433700Y-93568168D01*
X177406870Y-93468038D01*
X177355038Y-93378263D01*
X177281737Y-93304962D01*
X177191962Y-93253130D01*
X177091832Y-93226300D01*
X177080147Y-93226300D01*
X177656886Y-92649559D01*
X177656886Y-92649558D01*
X177641529Y-92638401D01*
X177480566Y-92556386D01*
X177308750Y-92500559D01*
X177130331Y-92472300D01*
X176949669Y-92472300D01*
X176771249Y-92500559D01*
X176599433Y-92556386D01*
X176438476Y-92638397D01*
X176438472Y-92638400D01*
X176423112Y-92649558D01*
X176423112Y-92649559D01*
X176999854Y-93226300D01*
X176988168Y-93226300D01*
X176888038Y-93253130D01*
X176798263Y-93304962D01*
X176724962Y-93378263D01*
X176673130Y-93468038D01*
X176646300Y-93568168D01*
X176646300Y-93579853D01*
X176069559Y-93003112D01*
X176069558Y-93003112D01*
X176058400Y-93018472D01*
X176058397Y-93018476D01*
X175976386Y-93179433D01*
X175920559Y-93351248D01*
X175894252Y-93517341D01*
X175646253Y-93517341D01*
X175619927Y-93351129D01*
X175564078Y-93179244D01*
X175482028Y-93018212D01*
X175474933Y-93008446D01*
X175375803Y-92872003D01*
X175247996Y-92744196D01*
X175101791Y-92637974D01*
X175101790Y-92637973D01*
X175101788Y-92637972D01*
X174940756Y-92555922D01*
X174768871Y-92500073D01*
X174768869Y-92500072D01*
X174768867Y-92500072D01*
X174630823Y-92478208D01*
X174590365Y-92471800D01*
X174409635Y-92471800D01*
X174369177Y-92478208D01*
X174231132Y-92500072D01*
X174195000Y-92511812D01*
X174085217Y-92547483D01*
X174059241Y-92555923D01*
X173898208Y-92637974D01*
X173752003Y-92744196D01*
X173624196Y-92872003D01*
X173517974Y-93018208D01*
X173435923Y-93179241D01*
X173380072Y-93351132D01*
X173354672Y-93511500D01*
X173351800Y-93529635D01*
X173108200Y-93529635D01*
X173079927Y-93351129D01*
X173024078Y-93179244D01*
X172942028Y-93018212D01*
X172934933Y-93008446D01*
X172835803Y-92872003D01*
X172707996Y-92744196D01*
X172561791Y-92637974D01*
X172561790Y-92637973D01*
X172561788Y-92637972D01*
X172400756Y-92555922D01*
X172228871Y-92500073D01*
X172228869Y-92500072D01*
X172228867Y-92500072D01*
X172090823Y-92478208D01*
X172050365Y-92471800D01*
X171869635Y-92471800D01*
X171829177Y-92478208D01*
X171691132Y-92500072D01*
X171655000Y-92511812D01*
X171545217Y-92547483D01*
X171519241Y-92555923D01*
X171358208Y-92637974D01*
X171212003Y-92744196D01*
X171084196Y-92872003D01*
X170977974Y-93018208D01*
X170895923Y-93179241D01*
X170840072Y-93351132D01*
X170812473Y-93525386D01*
X170782544Y-93588521D01*
X170723232Y-93625452D01*
X170653370Y-93624454D01*
X170595137Y-93585844D01*
X170567527Y-93525386D01*
X170557173Y-93460013D01*
X170539927Y-93351129D01*
X170484078Y-93179244D01*
X170402028Y-93018212D01*
X170394933Y-93008446D01*
X170295803Y-92872003D01*
X170167996Y-92744196D01*
X170021791Y-92637974D01*
X170021790Y-92637973D01*
X170021788Y-92637972D01*
X169860756Y-92555922D01*
X169688871Y-92500073D01*
X169688869Y-92500072D01*
X169688867Y-92500072D01*
X169550823Y-92478208D01*
X169510365Y-92471800D01*
X169329635Y-92471800D01*
X169289177Y-92478208D01*
X169151132Y-92500072D01*
X169115000Y-92511812D01*
X169005217Y-92547483D01*
X168979241Y-92555923D01*
X168818208Y-92637974D01*
X168672003Y-92744196D01*
X168544196Y-92872003D01*
X168437974Y-93018208D01*
X168355923Y-93179241D01*
X168300072Y-93351132D01*
X168272473Y-93525386D01*
X168242544Y-93588521D01*
X168183232Y-93625452D01*
X168113370Y-93624454D01*
X168055137Y-93585844D01*
X168027527Y-93525386D01*
X168017173Y-93460013D01*
X167999927Y-93351129D01*
X167944078Y-93179244D01*
X167862028Y-93018212D01*
X167854933Y-93008446D01*
X167755803Y-92872003D01*
X167627996Y-92744196D01*
X167481791Y-92637974D01*
X167481790Y-92637973D01*
X167481788Y-92637972D01*
X167320756Y-92555922D01*
X167316415Y-92553710D01*
X167317254Y-92552062D01*
X167268998Y-92513188D01*
X167246923Y-92446897D01*
X167264191Y-92379195D01*
X167283158Y-92354775D01*
X172052416Y-87585519D01*
X172113739Y-87552034D01*
X172140097Y-87549200D01*
X176004631Y-87549200D01*
X176004647Y-87549201D01*
X176012243Y-87549201D01*
X176170354Y-87549201D01*
X176170357Y-87549201D01*
X176323085Y-87508277D01*
X176381903Y-87474318D01*
X176460016Y-87429220D01*
X176571820Y-87317416D01*
X176571820Y-87317414D01*
X176582023Y-87307212D01*
X176582027Y-87307206D01*
X176724882Y-87164351D01*
X176786203Y-87130868D01*
X176831955Y-87129561D01*
X176949635Y-87148200D01*
X176949637Y-87148200D01*
X177130364Y-87148200D01*
X177130365Y-87148200D01*
X177308871Y-87119927D01*
X177480756Y-87064078D01*
X177641788Y-86982028D01*
X177775528Y-86884861D01*
X177787996Y-86875803D01*
X177787998Y-86875800D01*
X177788002Y-86875798D01*
X177915798Y-86748002D01*
X177915800Y-86747998D01*
X177915803Y-86747996D01*
X177971632Y-86671153D01*
X178022028Y-86601788D01*
X178104078Y-86440756D01*
X178159927Y-86268871D01*
X178188200Y-86090365D01*
X178188200Y-85909635D01*
X178185383Y-85891850D01*
X178194337Y-85822558D01*
X178239333Y-85769106D01*
X178306085Y-85748466D01*
X178373398Y-85767190D01*
X178395537Y-85784772D01*
X179323181Y-86712416D01*
X179356666Y-86773739D01*
X179359500Y-86800097D01*
X179359500Y-88475500D01*
X179339815Y-88542539D01*
X179287011Y-88588294D01*
X179235501Y-88599500D01*
X179012130Y-88599500D01*
X179012123Y-88599501D01*
X178952516Y-88605908D01*
X178817671Y-88656202D01*
X178817664Y-88656206D01*
X178702455Y-88742452D01*
X178702452Y-88742455D01*
X178616206Y-88857664D01*
X178616202Y-88857671D01*
X178565908Y-88992517D01*
X178559501Y-89052116D01*
X178559500Y-89052135D01*
X178559500Y-90947870D01*
X178559501Y-90947876D01*
X178565908Y-91007483D01*
X178616202Y-91142328D01*
X178616206Y-91142335D01*
X178702452Y-91257544D01*
X178702455Y-91257547D01*
X178817664Y-91343793D01*
X178817671Y-91343797D01*
X178952517Y-91394091D01*
X178952516Y-91394091D01*
X178959444Y-91394835D01*
X179012127Y-91400500D01*
X180907872Y-91400499D01*
X180967483Y-91394091D01*
X181102331Y-91343796D01*
X181217546Y-91257546D01*
X181303796Y-91142331D01*
X181308253Y-91130382D01*
X181333601Y-91062420D01*
X181375471Y-91006486D01*
X181440936Y-90982068D01*
X181509209Y-90996919D01*
X181537464Y-91018071D01*
X181587636Y-91068243D01*
X181587641Y-91068247D01*
X181680441Y-91135669D01*
X181765978Y-91197815D01*
X181894375Y-91263237D01*
X181962393Y-91297895D01*
X181962396Y-91297896D01*
X182067221Y-91331955D01*
X182172049Y-91366015D01*
X182389778Y-91400500D01*
X182389779Y-91400500D01*
X182610221Y-91400500D01*
X182610222Y-91400500D01*
X182827951Y-91366015D01*
X183037606Y-91297895D01*
X183234022Y-91197815D01*
X183412365Y-91068242D01*
X183568242Y-90912365D01*
X183697815Y-90734022D01*
X183797895Y-90537606D01*
X183866015Y-90327951D01*
X183900500Y-90110222D01*
X183900500Y-89889778D01*
X183866015Y-89672049D01*
X183797895Y-89462394D01*
X183797895Y-89462393D01*
X183751383Y-89371110D01*
X183697815Y-89265978D01*
X183631011Y-89174029D01*
X183568247Y-89087641D01*
X183568243Y-89087636D01*
X183412363Y-88931756D01*
X183412358Y-88931752D01*
X183234025Y-88802187D01*
X183234024Y-88802186D01*
X183234022Y-88802185D01*
X183116791Y-88742452D01*
X183037606Y-88702104D01*
X183037603Y-88702103D01*
X182827952Y-88633985D01*
X182719086Y-88616742D01*
X182610222Y-88599500D01*
X182389778Y-88599500D01*
X182317201Y-88610995D01*
X182172047Y-88633985D01*
X181962396Y-88702103D01*
X181962393Y-88702104D01*
X181765974Y-88802187D01*
X181587641Y-88931752D01*
X181587636Y-88931756D01*
X181537463Y-88981929D01*
X181476140Y-89015413D01*
X181406448Y-89010428D01*
X181350515Y-88968557D01*
X181333601Y-88937580D01*
X181303797Y-88857671D01*
X181303793Y-88857664D01*
X181217547Y-88742455D01*
X181217544Y-88742452D01*
X181102335Y-88656206D01*
X181102328Y-88656202D01*
X180967482Y-88605908D01*
X180967483Y-88605908D01*
X180907883Y-88599501D01*
X180907881Y-88599500D01*
X180907873Y-88599500D01*
X180907865Y-88599500D01*
X180684500Y-88599500D01*
X180617461Y-88579815D01*
X180571706Y-88527011D01*
X180560500Y-88475500D01*
X180560500Y-86589059D01*
X180560501Y-86589046D01*
X180560501Y-86420945D01*
X180560501Y-86420943D01*
X180519577Y-86268215D01*
X180490639Y-86218095D01*
X180440520Y-86131284D01*
X180328716Y-86019480D01*
X180328715Y-86019479D01*
X180324385Y-86015149D01*
X180324374Y-86015139D01*
X177421416Y-83112181D01*
X177387931Y-83050858D01*
X177392915Y-82981166D01*
X177434787Y-82925233D01*
X177500251Y-82900816D01*
X177509097Y-82900500D01*
X177610221Y-82900500D01*
X177610222Y-82900500D01*
X177827951Y-82866015D01*
X178037606Y-82797895D01*
X178234022Y-82697815D01*
X178412365Y-82568242D01*
X178568242Y-82412365D01*
X178697815Y-82234022D01*
X178797895Y-82037606D01*
X178866015Y-81827951D01*
X178900500Y-81610222D01*
X178900500Y-81389778D01*
X178866015Y-81172049D01*
X178848284Y-81117480D01*
X178846290Y-81047640D01*
X178882370Y-80987807D01*
X178945071Y-80956979D01*
X179014485Y-80964944D01*
G37*
%TD.AperFunction*%
%TA.AperFunction,Conductor*%
G36*
X153534075Y-108692993D02*
G01*
X153599901Y-108807007D01*
X153692993Y-108900099D01*
X153807007Y-108965925D01*
X153870590Y-108982962D01*
X153225068Y-109628483D01*
X153221071Y-109647510D01*
X153215241Y-109653422D01*
X153212489Y-109661257D01*
X153191074Y-109677936D01*
X153172018Y-109697265D01*
X153162490Y-109700198D01*
X153157366Y-109704190D01*
X153123028Y-109712350D01*
X152890782Y-109733430D01*
X152822238Y-109719886D01*
X152771897Y-109671435D01*
X152755742Y-109603458D01*
X152763391Y-109566605D01*
X152804091Y-109457483D01*
X152810500Y-109397873D01*
X152810499Y-109387312D01*
X152830179Y-109320275D01*
X152846818Y-109299626D01*
X153517037Y-108629408D01*
X153534075Y-108692993D01*
G37*
%TD.AperFunction*%
%TA.AperFunction,Conductor*%
G36*
X163100000Y-97552661D02*
G01*
X163127259Y-97654394D01*
X163179920Y-97745606D01*
X163254394Y-97820080D01*
X163345606Y-97872741D01*
X163447339Y-97900000D01*
X163453552Y-97900000D01*
X162774076Y-98579474D01*
X162818650Y-98611859D01*
X163000968Y-98704755D01*
X163195582Y-98767990D01*
X163397683Y-98800000D01*
X163602317Y-98800000D01*
X163804417Y-98767990D01*
X163829218Y-98759931D01*
X163899059Y-98757934D01*
X163958893Y-98794012D01*
X163989723Y-98856712D01*
X163981761Y-98926127D01*
X163955221Y-98965542D01*
X159794202Y-103126561D01*
X159732879Y-103160046D01*
X159668203Y-103156811D01*
X159643584Y-103148812D01*
X159597952Y-103133985D01*
X159489086Y-103116742D01*
X159380222Y-103099500D01*
X159159778Y-103099500D01*
X159092082Y-103110222D01*
X158942047Y-103133985D01*
X158732396Y-103202103D01*
X158732393Y-103202104D01*
X158535974Y-103302187D01*
X158357641Y-103431752D01*
X158357636Y-103431756D01*
X158307463Y-103481929D01*
X158246140Y-103515413D01*
X158176448Y-103510428D01*
X158120515Y-103468557D01*
X158103601Y-103437580D01*
X158073797Y-103357671D01*
X158073793Y-103357664D01*
X157987547Y-103242455D01*
X157987544Y-103242452D01*
X157872335Y-103156206D01*
X157872328Y-103156202D01*
X157737482Y-103105908D01*
X157737483Y-103105908D01*
X157677883Y-103099501D01*
X157677881Y-103099500D01*
X157677873Y-103099500D01*
X157677865Y-103099500D01*
X157350761Y-103099500D01*
X157283722Y-103079815D01*
X157237967Y-103027011D01*
X157228023Y-102957853D01*
X157257048Y-102894297D01*
X157263080Y-102887819D01*
X158430225Y-101720674D01*
X162126170Y-98024728D01*
X162187489Y-97991246D01*
X162257181Y-97996230D01*
X162313114Y-98038102D01*
X162324332Y-98056117D01*
X162388141Y-98181350D01*
X162388147Y-98181359D01*
X162420523Y-98225921D01*
X162420524Y-98225922D01*
X163100000Y-97546446D01*
X163100000Y-97552661D01*
G37*
%TD.AperFunction*%
%TA.AperFunction,Conductor*%
G36*
X165654426Y-54576508D02*
G01*
X165696177Y-54590481D01*
X166654299Y-55115738D01*
X166687568Y-55142316D01*
X167066838Y-55571123D01*
X167443301Y-55996756D01*
X167462363Y-56025574D01*
X168031998Y-57221191D01*
X168038765Y-57238696D01*
X168886291Y-60046808D01*
X168889077Y-60057846D01*
X169471645Y-62912955D01*
X169473680Y-62926978D01*
X169725347Y-65814171D01*
X169725679Y-65830748D01*
X169589482Y-68734987D01*
X169589068Y-68743812D01*
X169588786Y-68744713D01*
X169585993Y-68809399D01*
X169585992Y-68809423D01*
X169585971Y-68809882D01*
X169582675Y-68880160D01*
X169582760Y-68884291D01*
X169504162Y-70704951D01*
X169503820Y-70710243D01*
X169391839Y-72010428D01*
X169342803Y-72579778D01*
X169335330Y-72617632D01*
X169337172Y-72645150D01*
X169336358Y-72654606D01*
X169336357Y-72654607D01*
X169334805Y-72672629D01*
X169340373Y-72703960D01*
X169342008Y-72717368D01*
X169370170Y-73137861D01*
X169370507Y-73142906D01*
X169369846Y-73188405D01*
X169374894Y-73208407D01*
X169375643Y-73219587D01*
X169376273Y-73228990D01*
X169389331Y-73267277D01*
X169392196Y-73276950D01*
X169402099Y-73316181D01*
X169406688Y-73324403D01*
X169415770Y-73344802D01*
X169418811Y-73353720D01*
X169441340Y-73387334D01*
X169444148Y-73391523D01*
X169466324Y-73431256D01*
X169480692Y-73446048D01*
X169486937Y-73455365D01*
X169492113Y-73463086D01*
X169492183Y-73463191D01*
X169522645Y-73489828D01*
X169529957Y-73496768D01*
X169762999Y-73736693D01*
X169766851Y-73740658D01*
X169794343Y-73774523D01*
X169812583Y-73787741D01*
X169820069Y-73795448D01*
X169820070Y-73795450D01*
X169828278Y-73803900D01*
X169828280Y-73803901D01*
X169860144Y-73822921D01*
X169860989Y-73823425D01*
X169870193Y-73829489D01*
X169901054Y-73851853D01*
X169904880Y-73853316D01*
X169912056Y-73856061D01*
X169912057Y-73856061D01*
X169922097Y-73859901D01*
X169941438Y-73871446D01*
X169983401Y-73883347D01*
X170729055Y-74168526D01*
X170740427Y-74173541D01*
X171192114Y-74400498D01*
X173235974Y-75427465D01*
X173250960Y-75436367D01*
X175479860Y-76981958D01*
X175494820Y-76994160D01*
X176356280Y-77816472D01*
X177435047Y-78846215D01*
X177449491Y-78860002D01*
X177462955Y-78875142D01*
X178404171Y-80125989D01*
X178428750Y-80191393D01*
X178414067Y-80259702D01*
X178364784Y-80309230D01*
X178296548Y-80324251D01*
X178239029Y-80303341D01*
X178238178Y-80304731D01*
X178234030Y-80302189D01*
X178037606Y-80202104D01*
X178037603Y-80202103D01*
X177827952Y-80133985D01*
X177719086Y-80116742D01*
X177610222Y-80099500D01*
X177389778Y-80099500D01*
X177317201Y-80110995D01*
X177172047Y-80133985D01*
X176962396Y-80202103D01*
X176962393Y-80202104D01*
X176765974Y-80302187D01*
X176587641Y-80431752D01*
X176587636Y-80431756D01*
X176537463Y-80481929D01*
X176476140Y-80515413D01*
X176406448Y-80510428D01*
X176350515Y-80468557D01*
X176333601Y-80437580D01*
X176303797Y-80357671D01*
X176303793Y-80357664D01*
X176217547Y-80242455D01*
X176217544Y-80242452D01*
X176102335Y-80156206D01*
X176102328Y-80156202D01*
X175967482Y-80105908D01*
X175967483Y-80105908D01*
X175907883Y-80099501D01*
X175907881Y-80099500D01*
X175907873Y-80099500D01*
X175907864Y-80099500D01*
X174012129Y-80099500D01*
X174012123Y-80099501D01*
X173952516Y-80105908D01*
X173817671Y-80156202D01*
X173817664Y-80156206D01*
X173702455Y-80242452D01*
X173702452Y-80242455D01*
X173616206Y-80357664D01*
X173616202Y-80357671D01*
X173572443Y-80474997D01*
X173530572Y-80530931D01*
X173465108Y-80555348D01*
X173396835Y-80540496D01*
X173368580Y-80519345D01*
X171461416Y-78612181D01*
X171427931Y-78550858D01*
X171432915Y-78481166D01*
X171474787Y-78425233D01*
X171540251Y-78400816D01*
X171549097Y-78400500D01*
X171650221Y-78400500D01*
X171650222Y-78400500D01*
X171867951Y-78366015D01*
X172077606Y-78297895D01*
X172274022Y-78197815D01*
X172452365Y-78068242D01*
X172608242Y-77912365D01*
X172737815Y-77734022D01*
X172837895Y-77537606D01*
X172906015Y-77327951D01*
X172940500Y-77110222D01*
X172940500Y-76889778D01*
X172906015Y-76672049D01*
X172854895Y-76514716D01*
X172837896Y-76462396D01*
X172837895Y-76462393D01*
X172775464Y-76339868D01*
X172737815Y-76265978D01*
X172696734Y-76209435D01*
X172608247Y-76087641D01*
X172608243Y-76087636D01*
X172452363Y-75931756D01*
X172452358Y-75931752D01*
X172274025Y-75802187D01*
X172274024Y-75802186D01*
X172274022Y-75802185D01*
X172211096Y-75770122D01*
X172077606Y-75702104D01*
X172077603Y-75702103D01*
X171867952Y-75633985D01*
X171759086Y-75616742D01*
X171650222Y-75599500D01*
X171429778Y-75599500D01*
X171357201Y-75610995D01*
X171212047Y-75633985D01*
X171002396Y-75702103D01*
X171002393Y-75702104D01*
X170805974Y-75802187D01*
X170627641Y-75931752D01*
X170627636Y-75931756D01*
X170577463Y-75981929D01*
X170516140Y-76015413D01*
X170446448Y-76010428D01*
X170390515Y-75968557D01*
X170373601Y-75937580D01*
X170343797Y-75857671D01*
X170343793Y-75857664D01*
X170257547Y-75742455D01*
X170257544Y-75742452D01*
X170142335Y-75656206D01*
X170142328Y-75656202D01*
X170007482Y-75605908D01*
X170007483Y-75605908D01*
X169947883Y-75599501D01*
X169947881Y-75599500D01*
X169947873Y-75599500D01*
X169947864Y-75599500D01*
X168052129Y-75599500D01*
X168052123Y-75599501D01*
X167992516Y-75605908D01*
X167857671Y-75656202D01*
X167857664Y-75656206D01*
X167769811Y-75721974D01*
X167704347Y-75746392D01*
X167636074Y-75731541D01*
X167586668Y-75682136D01*
X167571500Y-75622708D01*
X167571500Y-67391945D01*
X167571500Y-67391943D01*
X167530577Y-67239216D01*
X167530573Y-67239209D01*
X167451524Y-67102290D01*
X167451518Y-67102282D01*
X167373438Y-67024202D01*
X167339953Y-66962879D01*
X167343189Y-66898201D01*
X167366013Y-66827958D01*
X167366013Y-66827956D01*
X167366015Y-66827951D01*
X167400500Y-66610222D01*
X167400500Y-66389778D01*
X167366015Y-66172049D01*
X167297895Y-65962394D01*
X167297895Y-65962393D01*
X167249739Y-65867883D01*
X167197815Y-65765978D01*
X167139501Y-65685715D01*
X167068247Y-65587641D01*
X167068243Y-65587636D01*
X166912363Y-65431756D01*
X166912358Y-65431752D01*
X166734025Y-65302187D01*
X166734024Y-65302186D01*
X166734022Y-65302185D01*
X166616791Y-65242452D01*
X166537606Y-65202104D01*
X166537603Y-65202103D01*
X166327952Y-65133985D01*
X166219086Y-65116742D01*
X166110222Y-65099500D01*
X165889778Y-65099500D01*
X165817201Y-65110995D01*
X165672047Y-65133985D01*
X165462396Y-65202103D01*
X165462393Y-65202104D01*
X165265974Y-65302187D01*
X165087641Y-65431752D01*
X165087636Y-65431756D01*
X165037463Y-65481929D01*
X164976140Y-65515413D01*
X164906448Y-65510428D01*
X164850515Y-65468557D01*
X164833601Y-65437580D01*
X164803797Y-65357671D01*
X164803793Y-65357664D01*
X164717547Y-65242455D01*
X164717544Y-65242452D01*
X164602335Y-65156206D01*
X164602328Y-65156202D01*
X164467482Y-65105908D01*
X164467483Y-65105908D01*
X164407883Y-65099501D01*
X164407881Y-65099500D01*
X164407873Y-65099500D01*
X164407864Y-65099500D01*
X162512129Y-65099500D01*
X162512123Y-65099501D01*
X162452516Y-65105908D01*
X162317671Y-65156202D01*
X162317664Y-65156206D01*
X162202455Y-65242452D01*
X162202452Y-65242455D01*
X162116206Y-65357664D01*
X162116202Y-65357671D01*
X162065908Y-65492517D01*
X162059501Y-65552116D01*
X162059500Y-65552135D01*
X162059500Y-67447870D01*
X162059501Y-67447876D01*
X162065908Y-67507483D01*
X162116202Y-67642328D01*
X162116206Y-67642335D01*
X162202452Y-67757544D01*
X162202455Y-67757547D01*
X162317664Y-67843793D01*
X162317671Y-67843797D01*
X162452517Y-67894091D01*
X162452516Y-67894091D01*
X162459444Y-67894835D01*
X162512127Y-67900500D01*
X164407872Y-67900499D01*
X164467483Y-67894091D01*
X164602331Y-67843796D01*
X164717546Y-67757546D01*
X164803796Y-67642331D01*
X164831429Y-67568243D01*
X164833601Y-67562420D01*
X164875471Y-67506486D01*
X164940936Y-67482068D01*
X165009209Y-67496919D01*
X165037464Y-67518071D01*
X165087636Y-67568243D01*
X165087641Y-67568247D01*
X165189603Y-67642326D01*
X165265978Y-67697815D01*
X165394375Y-67763237D01*
X165462393Y-67797895D01*
X165462396Y-67797896D01*
X165567221Y-67831955D01*
X165672049Y-67866015D01*
X165889778Y-67900500D01*
X165889779Y-67900500D01*
X166110220Y-67900500D01*
X166110222Y-67900500D01*
X166227104Y-67881987D01*
X166296395Y-67890941D01*
X166349847Y-67935937D01*
X166370487Y-68002688D01*
X166370500Y-68004460D01*
X166370500Y-71551869D01*
X166350815Y-71618908D01*
X166298011Y-71664663D01*
X166228853Y-71674607D01*
X166208183Y-71669800D01*
X166097953Y-71633985D01*
X166097954Y-71633985D01*
X165934654Y-71608121D01*
X165880222Y-71599500D01*
X165659778Y-71599500D01*
X165587201Y-71610995D01*
X165442047Y-71633985D01*
X165232396Y-71702103D01*
X165232393Y-71702104D01*
X165035974Y-71802187D01*
X164857641Y-71931752D01*
X164857636Y-71931756D01*
X164807463Y-71981929D01*
X164746140Y-72015413D01*
X164676448Y-72010428D01*
X164620515Y-71968557D01*
X164603601Y-71937580D01*
X164573797Y-71857671D01*
X164573793Y-71857664D01*
X164487547Y-71742455D01*
X164487544Y-71742452D01*
X164372335Y-71656206D01*
X164372328Y-71656202D01*
X164237482Y-71605908D01*
X164237483Y-71605908D01*
X164177883Y-71599501D01*
X164177881Y-71599500D01*
X164177873Y-71599500D01*
X164177864Y-71599500D01*
X162282129Y-71599500D01*
X162282123Y-71599501D01*
X162222516Y-71605908D01*
X162087671Y-71656202D01*
X162087664Y-71656206D01*
X161972455Y-71742452D01*
X161972452Y-71742455D01*
X161886206Y-71857664D01*
X161886202Y-71857671D01*
X161835908Y-71992517D01*
X161829501Y-72052116D01*
X161829500Y-72052135D01*
X161829500Y-73947870D01*
X161829501Y-73947876D01*
X161835908Y-74007483D01*
X161886202Y-74142328D01*
X161886206Y-74142335D01*
X161972452Y-74257544D01*
X161972455Y-74257547D01*
X162087664Y-74343793D01*
X162087671Y-74343797D01*
X162222517Y-74394091D01*
X162222516Y-74394091D01*
X162229444Y-74394835D01*
X162282127Y-74400500D01*
X164177872Y-74400499D01*
X164237483Y-74394091D01*
X164372331Y-74343796D01*
X164487546Y-74257546D01*
X164573796Y-74142331D01*
X164601429Y-74068243D01*
X164603601Y-74062420D01*
X164645471Y-74006486D01*
X164710936Y-73982068D01*
X164779209Y-73996919D01*
X164807464Y-74018071D01*
X164857636Y-74068243D01*
X164857641Y-74068247D01*
X164998730Y-74170753D01*
X165035978Y-74197815D01*
X165132795Y-74247146D01*
X165183591Y-74295121D01*
X165200500Y-74357631D01*
X165200500Y-80979742D01*
X165180815Y-81046781D01*
X165128011Y-81092536D01*
X165058853Y-81102480D01*
X165038182Y-81097673D01*
X164851247Y-81036934D01*
X164851248Y-81036934D01*
X164618052Y-81000000D01*
X164381948Y-81000000D01*
X164148752Y-81036934D01*
X163924197Y-81109897D01*
X163713830Y-81217084D01*
X163630894Y-81277340D01*
X164370591Y-82017037D01*
X164307007Y-82034075D01*
X164192993Y-82099901D01*
X164099901Y-82192993D01*
X164034075Y-82307007D01*
X164017037Y-82370590D01*
X163277340Y-81630894D01*
X163217084Y-81713830D01*
X163109897Y-81924197D01*
X163036934Y-82148752D01*
X163000000Y-82381947D01*
X163000000Y-82618052D01*
X163036934Y-82851247D01*
X163109897Y-83075802D01*
X163217087Y-83286174D01*
X163277338Y-83369104D01*
X163277340Y-83369105D01*
X164017037Y-82629408D01*
X164034075Y-82692993D01*
X164099901Y-82807007D01*
X164192993Y-82900099D01*
X164307007Y-82965925D01*
X164370589Y-82982962D01*
X163630893Y-83722658D01*
X163713828Y-83782914D01*
X163888956Y-83872146D01*
X163939752Y-83920120D01*
X163956547Y-83987941D01*
X163934010Y-84054076D01*
X163920342Y-84070312D01*
X162830286Y-85160370D01*
X162718481Y-85272174D01*
X162718475Y-85272182D01*
X162683263Y-85333172D01*
X162683259Y-85333180D01*
X162678524Y-85341383D01*
X162639423Y-85409107D01*
X162607826Y-85527025D01*
X162605364Y-85533353D01*
X162592544Y-85549982D01*
X162577486Y-85576065D01*
X162193700Y-85959852D01*
X162193700Y-85948168D01*
X162166870Y-85848038D01*
X162115038Y-85758263D01*
X162041737Y-85684962D01*
X161951962Y-85633130D01*
X161851832Y-85606300D01*
X161840147Y-85606300D01*
X162416886Y-85029559D01*
X162416886Y-85029558D01*
X162401529Y-85018401D01*
X162240566Y-84936386D01*
X162068750Y-84880559D01*
X161890331Y-84852300D01*
X161709669Y-84852300D01*
X161531249Y-84880559D01*
X161359433Y-84936386D01*
X161198476Y-85018397D01*
X161198472Y-85018400D01*
X161183112Y-85029558D01*
X161183112Y-85029559D01*
X161759854Y-85606300D01*
X161748168Y-85606300D01*
X161648038Y-85633130D01*
X161558263Y-85684962D01*
X161484962Y-85758263D01*
X161433130Y-85848038D01*
X161406300Y-85948168D01*
X161406300Y-85959853D01*
X160829559Y-85383112D01*
X160829558Y-85383112D01*
X160818400Y-85398472D01*
X160818397Y-85398476D01*
X160736386Y-85559433D01*
X160680559Y-85731249D01*
X160654000Y-85898935D01*
X160654000Y-86101063D01*
X160680559Y-86268750D01*
X160736386Y-86440566D01*
X160818401Y-86601529D01*
X160829558Y-86616886D01*
X160829559Y-86616886D01*
X161406300Y-86040145D01*
X161406300Y-86051832D01*
X161433130Y-86151962D01*
X161484962Y-86241737D01*
X161558263Y-86315038D01*
X161648038Y-86366870D01*
X161748168Y-86393700D01*
X161759853Y-86393700D01*
X161183112Y-86970438D01*
X161183112Y-86970439D01*
X161198477Y-86981602D01*
X161359433Y-87063613D01*
X161531249Y-87119440D01*
X161709669Y-87147700D01*
X161890331Y-87147700D01*
X162068750Y-87119440D01*
X162240566Y-87063613D01*
X162401526Y-86981600D01*
X162401614Y-86981537D01*
X162401656Y-86981521D01*
X162405682Y-86979055D01*
X162406200Y-86979900D01*
X162467420Y-86958057D01*
X162535474Y-86973882D01*
X162584169Y-87023988D01*
X162598500Y-87081855D01*
X162598500Y-91920902D01*
X162578815Y-91987941D01*
X162562181Y-92008583D01*
X162115118Y-92455645D01*
X162053795Y-92489130D01*
X162008040Y-92490437D01*
X161890365Y-92471800D01*
X161709635Y-92471800D01*
X161669177Y-92478208D01*
X161531132Y-92500072D01*
X161495000Y-92511812D01*
X161385217Y-92547483D01*
X161359241Y-92555923D01*
X161198208Y-92637974D01*
X161052003Y-92744196D01*
X160924196Y-92872003D01*
X160817974Y-93018208D01*
X160735923Y-93179241D01*
X160680072Y-93351132D01*
X160654672Y-93511500D01*
X160624743Y-93574635D01*
X160565431Y-93611566D01*
X160495568Y-93610568D01*
X160437336Y-93571958D01*
X160409222Y-93507994D01*
X160408199Y-93492102D01*
X160408199Y-92924429D01*
X160408198Y-92924423D01*
X160408197Y-92924416D01*
X160402999Y-92876057D01*
X160401791Y-92864816D01*
X160351497Y-92729971D01*
X160351493Y-92729964D01*
X160265247Y-92614755D01*
X160265244Y-92614752D01*
X160150035Y-92528506D01*
X160150028Y-92528502D01*
X160015182Y-92478208D01*
X160015183Y-92478208D01*
X159955583Y-92471801D01*
X159955581Y-92471800D01*
X159955573Y-92471800D01*
X159955564Y-92471800D01*
X158564429Y-92471800D01*
X158564423Y-92471801D01*
X158504816Y-92478208D01*
X158369971Y-92528502D01*
X158369964Y-92528506D01*
X158254755Y-92614752D01*
X158254752Y-92614755D01*
X158168506Y-92729964D01*
X158168502Y-92729971D01*
X158118208Y-92864817D01*
X158114374Y-92900485D01*
X158111801Y-92924423D01*
X158111800Y-92924435D01*
X158111800Y-94315570D01*
X158111801Y-94315576D01*
X158118208Y-94375183D01*
X158168502Y-94510028D01*
X158168506Y-94510035D01*
X158254752Y-94625244D01*
X158254755Y-94625247D01*
X158369964Y-94711493D01*
X158369971Y-94711497D01*
X158504817Y-94761791D01*
X158504816Y-94761791D01*
X158511744Y-94762535D01*
X158564427Y-94768200D01*
X159955572Y-94768199D01*
X160015183Y-94761791D01*
X160150031Y-94711496D01*
X160265246Y-94625246D01*
X160351496Y-94510031D01*
X160401791Y-94375183D01*
X160408200Y-94315573D01*
X160408199Y-93747895D01*
X160427883Y-93680859D01*
X160480687Y-93635104D01*
X160549846Y-93625160D01*
X160613402Y-93654185D01*
X160651176Y-93712963D01*
X160654672Y-93728500D01*
X160680072Y-93888867D01*
X160680072Y-93888869D01*
X160680073Y-93888871D01*
X160735922Y-94060756D01*
X160817840Y-94221529D01*
X160817974Y-94221791D01*
X160924196Y-94367996D01*
X161052003Y-94495803D01*
X161182260Y-94590438D01*
X161198212Y-94602028D01*
X161359244Y-94684078D01*
X161531129Y-94739927D01*
X161709635Y-94768200D01*
X161709636Y-94768200D01*
X161890364Y-94768200D01*
X161890365Y-94768200D01*
X162068871Y-94739927D01*
X162240756Y-94684078D01*
X162401788Y-94602028D01*
X162483879Y-94542385D01*
X162547996Y-94495803D01*
X162547998Y-94495800D01*
X162548002Y-94495798D01*
X162675798Y-94368002D01*
X162675800Y-94367998D01*
X162675803Y-94367996D01*
X162735990Y-94285154D01*
X162782028Y-94221788D01*
X162864078Y-94060756D01*
X162919927Y-93888871D01*
X162947527Y-93714612D01*
X162977456Y-93651478D01*
X163036768Y-93614547D01*
X163106630Y-93615545D01*
X163164863Y-93654155D01*
X163192473Y-93714613D01*
X163220072Y-93888867D01*
X163220072Y-93888869D01*
X163220073Y-93888871D01*
X163275922Y-94060756D01*
X163357840Y-94221529D01*
X163357974Y-94221791D01*
X163464196Y-94367996D01*
X163592001Y-94495801D01*
X163685732Y-94563899D01*
X163728399Y-94619229D01*
X163734378Y-94688842D01*
X163701773Y-94750637D01*
X163700529Y-94751899D01*
X155839249Y-102613181D01*
X155777926Y-102646666D01*
X155751568Y-102649500D01*
X153467568Y-102649500D01*
X153400529Y-102629815D01*
X153354774Y-102577011D01*
X153344830Y-102507853D01*
X153373855Y-102444297D01*
X153379887Y-102437819D01*
X153936535Y-101881171D01*
X155608506Y-100209198D01*
X155608511Y-100209195D01*
X155618714Y-100198991D01*
X155618716Y-100198991D01*
X155730520Y-100087187D01*
X155804301Y-99959394D01*
X155809577Y-99950256D01*
X155848657Y-99804409D01*
X155849311Y-99802282D01*
X155853724Y-99795600D01*
X155869044Y-99765781D01*
X155868405Y-99765354D01*
X155959390Y-99629185D01*
X155959390Y-99629184D01*
X155959394Y-99629179D01*
X156019737Y-99483497D01*
X156050500Y-99328842D01*
X156050500Y-99171158D01*
X156050500Y-99171155D01*
X156050499Y-99171153D01*
X156035304Y-99094764D01*
X156019737Y-99016503D01*
X155993664Y-98953558D01*
X155986196Y-98884092D01*
X156017471Y-98821613D01*
X156077559Y-98785960D01*
X156088820Y-98783636D01*
X156184534Y-98768477D01*
X156379219Y-98705220D01*
X156561610Y-98612287D01*
X156685779Y-98522074D01*
X156727213Y-98491971D01*
X156727215Y-98491968D01*
X156727219Y-98491966D01*
X156871966Y-98347219D01*
X156871968Y-98347215D01*
X156871971Y-98347213D01*
X156956131Y-98231375D01*
X156992287Y-98181610D01*
X157085220Y-97999219D01*
X157148477Y-97804534D01*
X157180500Y-97602352D01*
X157180500Y-97397648D01*
X157159132Y-97262735D01*
X157148477Y-97195465D01*
X157091296Y-97019481D01*
X157085220Y-97000781D01*
X157085218Y-97000778D01*
X157085218Y-97000776D01*
X157042984Y-96917889D01*
X156992287Y-96818390D01*
X156977251Y-96797695D01*
X156871971Y-96652786D01*
X156727213Y-96508028D01*
X156561613Y-96387715D01*
X156561612Y-96387714D01*
X156561610Y-96387713D01*
X156504363Y-96358544D01*
X156379223Y-96294781D01*
X156184534Y-96231522D01*
X156009995Y-96203878D01*
X155982352Y-96199500D01*
X155777648Y-96199500D01*
X155739599Y-96205526D01*
X155575468Y-96231522D01*
X155566717Y-96234365D01*
X155561154Y-96236173D01*
X155545941Y-96236607D01*
X155531684Y-96241925D01*
X155511729Y-96237584D01*
X155491313Y-96238167D01*
X155477226Y-96230078D01*
X155463411Y-96227073D01*
X155435157Y-96205922D01*
X155335819Y-96106584D01*
X155302334Y-96045261D01*
X155299500Y-96018903D01*
X155299500Y-95420886D01*
X155319185Y-95353847D01*
X155371989Y-95308092D01*
X155441147Y-95298148D01*
X155462504Y-95303180D01*
X155602302Y-95349505D01*
X155602309Y-95349506D01*
X155705019Y-95359999D01*
X156054999Y-95359999D01*
X156055000Y-95359998D01*
X156055000Y-94375686D01*
X156059394Y-94380080D01*
X156150606Y-94432741D01*
X156252339Y-94460000D01*
X156357661Y-94460000D01*
X156459394Y-94432741D01*
X156550606Y-94380080D01*
X156555000Y-94375686D01*
X156555000Y-95359999D01*
X156904972Y-95359999D01*
X156904986Y-95359998D01*
X157007697Y-95349505D01*
X157174119Y-95294358D01*
X157174124Y-95294356D01*
X157323345Y-95202315D01*
X157447315Y-95078345D01*
X157539356Y-94929124D01*
X157539358Y-94929119D01*
X157594505Y-94762697D01*
X157594506Y-94762690D01*
X157604999Y-94659986D01*
X157605000Y-94659973D01*
X157605000Y-94310000D01*
X156620686Y-94310000D01*
X156625080Y-94305606D01*
X156677741Y-94214394D01*
X156705000Y-94112661D01*
X156705000Y-94007339D01*
X156677741Y-93905606D01*
X156625080Y-93814394D01*
X156620686Y-93810000D01*
X157604999Y-93810000D01*
X157604999Y-93460028D01*
X157604998Y-93460013D01*
X157594505Y-93357302D01*
X157539358Y-93190880D01*
X157539356Y-93190875D01*
X157447315Y-93041654D01*
X157323345Y-92917684D01*
X157174124Y-92825643D01*
X157174119Y-92825641D01*
X157091931Y-92798407D01*
X157034486Y-92758634D01*
X157007663Y-92694119D01*
X157019978Y-92625343D01*
X157058049Y-92580383D01*
X157152219Y-92511966D01*
X157296966Y-92367219D01*
X157296968Y-92367215D01*
X157296971Y-92367213D01*
X157384844Y-92246264D01*
X157417287Y-92201610D01*
X157510220Y-92019219D01*
X157573477Y-91824534D01*
X157605500Y-91622352D01*
X157605500Y-91417648D01*
X157597135Y-91364833D01*
X157573477Y-91215465D01*
X157531828Y-91087284D01*
X157510220Y-91020781D01*
X157510218Y-91020778D01*
X157510218Y-91020776D01*
X157454978Y-90912363D01*
X157417287Y-90838390D01*
X157399775Y-90814286D01*
X157296971Y-90672786D01*
X157152213Y-90528028D01*
X156986614Y-90407715D01*
X156968022Y-90398242D01*
X156893917Y-90360483D01*
X156843123Y-90312511D01*
X156826328Y-90244690D01*
X156848865Y-90178555D01*
X156893917Y-90139516D01*
X156986610Y-90092287D01*
X157067809Y-90033293D01*
X157152213Y-89971971D01*
X157152215Y-89971968D01*
X157152219Y-89971966D01*
X157296966Y-89827219D01*
X157296968Y-89827215D01*
X157296971Y-89827213D01*
X157390169Y-89698935D01*
X157417287Y-89661610D01*
X157510220Y-89479219D01*
X157573477Y-89284534D01*
X157605500Y-89082352D01*
X157605500Y-88877648D01*
X157573477Y-88675466D01*
X157567218Y-88656204D01*
X157530286Y-88542539D01*
X157510220Y-88480781D01*
X157510218Y-88480778D01*
X157510218Y-88480776D01*
X157476503Y-88414607D01*
X157417287Y-88298390D01*
X157409556Y-88287749D01*
X157296971Y-88132786D01*
X157152213Y-87988028D01*
X156986614Y-87867715D01*
X156964466Y-87856430D01*
X156893917Y-87820483D01*
X156843123Y-87772511D01*
X156826328Y-87704690D01*
X156848865Y-87638555D01*
X156893917Y-87599516D01*
X156986610Y-87552287D01*
X157047185Y-87508277D01*
X157152213Y-87431971D01*
X157152215Y-87431968D01*
X157152219Y-87431966D01*
X157296966Y-87287219D01*
X157296968Y-87287215D01*
X157296971Y-87287213D01*
X157371941Y-87184024D01*
X157417287Y-87121610D01*
X157510220Y-86939219D01*
X157554925Y-86801632D01*
X157573476Y-86744538D01*
X157573476Y-86744537D01*
X157573477Y-86744534D01*
X157605500Y-86542352D01*
X157605500Y-86337648D01*
X157573477Y-86135466D01*
X157573476Y-86135462D01*
X157573476Y-86135461D01*
X157510980Y-85943120D01*
X157510979Y-85943118D01*
X157510220Y-85940781D01*
X157494367Y-85909668D01*
X158112300Y-85909668D01*
X158112300Y-86090331D01*
X158140559Y-86268750D01*
X158196386Y-86440566D01*
X158278401Y-86601529D01*
X158289558Y-86616886D01*
X158289559Y-86616886D01*
X158866300Y-86040145D01*
X158866300Y-86051832D01*
X158893130Y-86151962D01*
X158944962Y-86241737D01*
X159018263Y-86315038D01*
X159108038Y-86366870D01*
X159208168Y-86393700D01*
X159219853Y-86393700D01*
X158643112Y-86970438D01*
X158643112Y-86970439D01*
X158658477Y-86981602D01*
X158819433Y-87063613D01*
X158991249Y-87119440D01*
X159169669Y-87147700D01*
X159350331Y-87147700D01*
X159528750Y-87119440D01*
X159700566Y-87063613D01*
X159861528Y-86981599D01*
X159861532Y-86981597D01*
X159876886Y-86970440D01*
X159876887Y-86970439D01*
X159300148Y-86393700D01*
X159311832Y-86393700D01*
X159411962Y-86366870D01*
X159501737Y-86315038D01*
X159575038Y-86241737D01*
X159626870Y-86151962D01*
X159653700Y-86051832D01*
X159653700Y-86040147D01*
X160230440Y-86616887D01*
X160230440Y-86616886D01*
X160241597Y-86601532D01*
X160241599Y-86601528D01*
X160323613Y-86440566D01*
X160379440Y-86268750D01*
X160406000Y-86101063D01*
X160406000Y-85898935D01*
X160379440Y-85731249D01*
X160323613Y-85559433D01*
X160241602Y-85398477D01*
X160230439Y-85383112D01*
X160230438Y-85383112D01*
X159653700Y-85959851D01*
X159653700Y-85948168D01*
X159626870Y-85848038D01*
X159575038Y-85758263D01*
X159501737Y-85684962D01*
X159411962Y-85633130D01*
X159311832Y-85606300D01*
X159300147Y-85606300D01*
X159876886Y-85029559D01*
X159876886Y-85029558D01*
X159861529Y-85018401D01*
X159700566Y-84936386D01*
X159528750Y-84880559D01*
X159350331Y-84852300D01*
X159169669Y-84852300D01*
X158991249Y-84880559D01*
X158819433Y-84936386D01*
X158658476Y-85018397D01*
X158658472Y-85018400D01*
X158643112Y-85029558D01*
X158643112Y-85029559D01*
X159219854Y-85606300D01*
X159208168Y-85606300D01*
X159108038Y-85633130D01*
X159018263Y-85684962D01*
X158944962Y-85758263D01*
X158893130Y-85848038D01*
X158866300Y-85948168D01*
X158866300Y-85959853D01*
X158289559Y-85383112D01*
X158289558Y-85383112D01*
X158278400Y-85398472D01*
X158278397Y-85398476D01*
X158196386Y-85559433D01*
X158140559Y-85731249D01*
X158112300Y-85909668D01*
X157494367Y-85909668D01*
X157488898Y-85898935D01*
X157417287Y-85758390D01*
X157389673Y-85720382D01*
X157296971Y-85592786D01*
X157152213Y-85448028D01*
X156986613Y-85327715D01*
X156986612Y-85327714D01*
X156986610Y-85327713D01*
X156929653Y-85298691D01*
X156804223Y-85234781D01*
X156681013Y-85194748D01*
X156609534Y-85171522D01*
X156434995Y-85143878D01*
X156407352Y-85139500D01*
X156202648Y-85139500D01*
X156178329Y-85143351D01*
X156000465Y-85171522D01*
X155805776Y-85234781D01*
X155623387Y-85327714D01*
X155496384Y-85419986D01*
X155430578Y-85443465D01*
X155362524Y-85427639D01*
X155313830Y-85377533D01*
X155299500Y-85319667D01*
X155299500Y-84020257D01*
X155319185Y-83953218D01*
X155371989Y-83907463D01*
X155441147Y-83897519D01*
X155461819Y-83902326D01*
X155648754Y-83963065D01*
X155881948Y-84000000D01*
X156118052Y-84000000D01*
X156351247Y-83963065D01*
X156575802Y-83890102D01*
X156786163Y-83782918D01*
X156786169Y-83782914D01*
X156869104Y-83722658D01*
X156869105Y-83722658D01*
X156129409Y-82982962D01*
X156192993Y-82965925D01*
X156307007Y-82900099D01*
X156400099Y-82807007D01*
X156465925Y-82692993D01*
X156482962Y-82629409D01*
X157222658Y-83369105D01*
X157222658Y-83369104D01*
X157282914Y-83286169D01*
X157282918Y-83286163D01*
X157390102Y-83075802D01*
X157463065Y-82851247D01*
X157500000Y-82618052D01*
X157500000Y-82381947D01*
X157499993Y-82381902D01*
X159499500Y-82381902D01*
X159499500Y-82618097D01*
X159536446Y-82851368D01*
X159609433Y-83075996D01*
X159689759Y-83233643D01*
X159716657Y-83286433D01*
X159855483Y-83477510D01*
X160022490Y-83644517D01*
X160213567Y-83783343D01*
X160281803Y-83818111D01*
X160424003Y-83890566D01*
X160424005Y-83890566D01*
X160424008Y-83890568D01*
X160544412Y-83929689D01*
X160648631Y-83963553D01*
X160881903Y-84000500D01*
X160881908Y-84000500D01*
X161118097Y-84000500D01*
X161351368Y-83963553D01*
X161352870Y-83963065D01*
X161575992Y-83890568D01*
X161786433Y-83783343D01*
X161977510Y-83644517D01*
X162144517Y-83477510D01*
X162283343Y-83286433D01*
X162390568Y-83075992D01*
X162463553Y-82851368D01*
X162473248Y-82790156D01*
X162500500Y-82618097D01*
X162500500Y-82381902D01*
X162463553Y-82148631D01*
X162390566Y-81924003D01*
X162283477Y-81713830D01*
X162283343Y-81713567D01*
X162144517Y-81522490D01*
X161977510Y-81355483D01*
X161786433Y-81216657D01*
X161575996Y-81109433D01*
X161351368Y-81036446D01*
X161118097Y-80999500D01*
X161118092Y-80999500D01*
X160881908Y-80999500D01*
X160881903Y-80999500D01*
X160648631Y-81036446D01*
X160424003Y-81109433D01*
X160213566Y-81216657D01*
X160130047Y-81277338D01*
X160022490Y-81355483D01*
X160022488Y-81355485D01*
X160022487Y-81355485D01*
X159855485Y-81522487D01*
X159855485Y-81522488D01*
X159855483Y-81522490D01*
X159795862Y-81604550D01*
X159716657Y-81713566D01*
X159609433Y-81924003D01*
X159536446Y-82148631D01*
X159499500Y-82381902D01*
X157499993Y-82381902D01*
X157463065Y-82148752D01*
X157390102Y-81924197D01*
X157282914Y-81713828D01*
X157222658Y-81630894D01*
X157222658Y-81630893D01*
X156482962Y-82370590D01*
X156465925Y-82307007D01*
X156400099Y-82192993D01*
X156307007Y-82099901D01*
X156192993Y-82034075D01*
X156129408Y-82017037D01*
X156869105Y-81277340D01*
X156869104Y-81277338D01*
X156786174Y-81217087D01*
X156575802Y-81109897D01*
X156351247Y-81036934D01*
X156351248Y-81036934D01*
X156118052Y-81000000D01*
X155881948Y-81000000D01*
X155648751Y-81036934D01*
X155461818Y-81097673D01*
X155391977Y-81099668D01*
X155332144Y-81063588D01*
X155301316Y-81000887D01*
X155299500Y-80979742D01*
X155299500Y-79831096D01*
X155319185Y-79764057D01*
X155335815Y-79743419D01*
X156142416Y-78936817D01*
X156203739Y-78903333D01*
X156230097Y-78900499D01*
X157677871Y-78900499D01*
X157677872Y-78900499D01*
X157737483Y-78894091D01*
X157872331Y-78843796D01*
X157987546Y-78757546D01*
X158073796Y-78642331D01*
X158101429Y-78568243D01*
X158103601Y-78562420D01*
X158145471Y-78506486D01*
X158210936Y-78482068D01*
X158279209Y-78496919D01*
X158307464Y-78518071D01*
X158357636Y-78568243D01*
X158357641Y-78568247D01*
X158418112Y-78612181D01*
X158535978Y-78697815D01*
X158664375Y-78763237D01*
X158732393Y-78797895D01*
X158732396Y-78797896D01*
X158837221Y-78831955D01*
X158942049Y-78866015D01*
X159159778Y-78900500D01*
X159159779Y-78900500D01*
X159380221Y-78900500D01*
X159380222Y-78900500D01*
X159597951Y-78866015D01*
X159807606Y-78797895D01*
X160004022Y-78697815D01*
X160182365Y-78568242D01*
X160338242Y-78412365D01*
X160467815Y-78234022D01*
X160567895Y-78037606D01*
X160636015Y-77827951D01*
X160670500Y-77610222D01*
X160670500Y-77389778D01*
X160636015Y-77172049D01*
X160567895Y-76962394D01*
X160567895Y-76962393D01*
X160530895Y-76889778D01*
X160467815Y-76765978D01*
X160399571Y-76672047D01*
X160338247Y-76587641D01*
X160338243Y-76587636D01*
X160182363Y-76431756D01*
X160182358Y-76431752D01*
X160004023Y-76302185D01*
X159883529Y-76240789D01*
X159832734Y-76192814D01*
X159815939Y-76124993D01*
X159838477Y-76058859D01*
X159877824Y-76022918D01*
X159925195Y-75995570D01*
X160036999Y-75883766D01*
X160116056Y-75746834D01*
X160156979Y-75594107D01*
X160156979Y-64243617D01*
X160176664Y-64176578D01*
X160193293Y-64155941D01*
X163012416Y-61336817D01*
X163073739Y-61303333D01*
X163100097Y-61300499D01*
X164100002Y-61300499D01*
X164100008Y-61300499D01*
X164202797Y-61289999D01*
X164369334Y-61234814D01*
X164518656Y-61142712D01*
X164587879Y-61073489D01*
X164649202Y-61040004D01*
X164718894Y-61044988D01*
X164748446Y-61060853D01*
X164818646Y-61111857D01*
X165000968Y-61204755D01*
X165195582Y-61267990D01*
X165397683Y-61300000D01*
X165602317Y-61300000D01*
X165804417Y-61267990D01*
X165999031Y-61204755D01*
X166181349Y-61111859D01*
X166225921Y-61079474D01*
X165546447Y-60400000D01*
X165552661Y-60400000D01*
X165654394Y-60372741D01*
X165745606Y-60320080D01*
X165820080Y-60245606D01*
X165872741Y-60154394D01*
X165900000Y-60052661D01*
X165900000Y-60046447D01*
X166579474Y-60725921D01*
X166611859Y-60681349D01*
X166704755Y-60499031D01*
X166767990Y-60304417D01*
X166800000Y-60102317D01*
X166800000Y-59897682D01*
X166767990Y-59695582D01*
X166704755Y-59500968D01*
X166611859Y-59318650D01*
X166579474Y-59274077D01*
X166579474Y-59274076D01*
X165900000Y-59953551D01*
X165900000Y-59947339D01*
X165872741Y-59845606D01*
X165820080Y-59754394D01*
X165745606Y-59679920D01*
X165654394Y-59627259D01*
X165552661Y-59600000D01*
X165546446Y-59600000D01*
X166225922Y-58920524D01*
X166225921Y-58920523D01*
X166181359Y-58888147D01*
X166181350Y-58888141D01*
X165999031Y-58795244D01*
X165804417Y-58732009D01*
X165602317Y-58700000D01*
X165397683Y-58700000D01*
X165195582Y-58732009D01*
X165000968Y-58795244D01*
X164818651Y-58888139D01*
X164748444Y-58939148D01*
X164682637Y-58962627D01*
X164614583Y-58946801D01*
X164587878Y-58926510D01*
X164518657Y-58857289D01*
X164518656Y-58857288D01*
X164369334Y-58765186D01*
X164202797Y-58710001D01*
X164202795Y-58710000D01*
X164100010Y-58699500D01*
X162899998Y-58699500D01*
X162899981Y-58699501D01*
X162797203Y-58710000D01*
X162797200Y-58710001D01*
X162630668Y-58765185D01*
X162630663Y-58765187D01*
X162481342Y-58857289D01*
X162357289Y-58981342D01*
X162265187Y-59130663D01*
X162265186Y-59130666D01*
X162210001Y-59297203D01*
X162210001Y-59297204D01*
X162210000Y-59297204D01*
X162199500Y-59399983D01*
X162199500Y-60399902D01*
X162179815Y-60466941D01*
X162163181Y-60487583D01*
X159666110Y-62984653D01*
X159604787Y-63018138D01*
X159535095Y-63013154D01*
X159479162Y-62971282D01*
X159454745Y-62905818D01*
X159455144Y-62883677D01*
X159491107Y-62550380D01*
X159492561Y-62540596D01*
X159836555Y-60728394D01*
X159839247Y-60717123D01*
X160355173Y-58931369D01*
X160359415Y-58919128D01*
X161073120Y-57162541D01*
X161079541Y-57149113D01*
X161200682Y-56930545D01*
X161677976Y-56069389D01*
X161691523Y-56049700D01*
X162403122Y-55203536D01*
X162430954Y-55179051D01*
X163281142Y-54632410D01*
X163324139Y-54615069D01*
X164403289Y-54401636D01*
X164445196Y-54400573D01*
X165654426Y-54576508D01*
G37*
%TD.AperFunction*%
%TA.AperFunction,Conductor*%
G36*
X167769808Y-78278023D02*
G01*
X167857668Y-78343795D01*
X167857671Y-78343797D01*
X167992517Y-78394091D01*
X167992516Y-78394091D01*
X167999444Y-78394835D01*
X168052127Y-78400500D01*
X169499902Y-78400499D01*
X169566941Y-78420184D01*
X169587583Y-78436818D01*
X173015139Y-81864374D01*
X173015149Y-81864385D01*
X173019479Y-81868715D01*
X173019480Y-81868716D01*
X173131284Y-81980520D01*
X173218095Y-82030639D01*
X173218097Y-82030641D01*
X173256151Y-82052611D01*
X173268215Y-82059577D01*
X173420943Y-82100501D01*
X173435501Y-82100501D01*
X173502540Y-82120186D01*
X173548295Y-82172990D01*
X173559501Y-82224501D01*
X173559501Y-82447876D01*
X173565908Y-82507483D01*
X173616202Y-82642328D01*
X173616206Y-82642335D01*
X173702452Y-82757544D01*
X173702455Y-82757547D01*
X173817664Y-82843793D01*
X173817671Y-82843797D01*
X173952517Y-82894091D01*
X173952516Y-82894091D01*
X173959444Y-82894835D01*
X174012127Y-82900500D01*
X175459902Y-82900499D01*
X175526941Y-82920184D01*
X175547583Y-82936818D01*
X177255227Y-84644462D01*
X177288712Y-84705785D01*
X177283728Y-84775477D01*
X177241856Y-84831410D01*
X177176392Y-84855827D01*
X177148152Y-84854617D01*
X177140733Y-84853442D01*
X177130365Y-84851800D01*
X176949635Y-84851800D01*
X176924210Y-84855827D01*
X176771132Y-84880072D01*
X176771129Y-84880073D01*
X176618640Y-84929620D01*
X176599241Y-84935923D01*
X176438208Y-85017974D01*
X176292003Y-85124196D01*
X176164196Y-85252003D01*
X176057974Y-85398208D01*
X175975923Y-85559241D01*
X175920072Y-85731132D01*
X175892473Y-85905386D01*
X175862544Y-85968521D01*
X175803232Y-86005452D01*
X175733370Y-86004454D01*
X175675137Y-85965844D01*
X175647527Y-85905386D01*
X175625942Y-85769106D01*
X175619927Y-85731129D01*
X175564078Y-85559244D01*
X175482028Y-85398212D01*
X175471057Y-85383112D01*
X175375803Y-85252003D01*
X175247996Y-85124196D01*
X175101791Y-85017974D01*
X175101790Y-85017973D01*
X175101788Y-85017972D01*
X174940756Y-84935922D01*
X174768871Y-84880073D01*
X174768869Y-84880072D01*
X174768867Y-84880072D01*
X174615790Y-84855827D01*
X174590365Y-84851800D01*
X174409635Y-84851800D01*
X174384210Y-84855827D01*
X174231132Y-84880072D01*
X174231129Y-84880073D01*
X174078640Y-84929620D01*
X174059241Y-84935923D01*
X173898208Y-85017974D01*
X173752003Y-85124196D01*
X173624196Y-85252003D01*
X173517974Y-85398208D01*
X173435923Y-85559241D01*
X173380072Y-85731132D01*
X173352473Y-85905386D01*
X173322544Y-85968521D01*
X173263232Y-86005452D01*
X173193370Y-86004454D01*
X173135137Y-85965844D01*
X173107527Y-85905386D01*
X173085942Y-85769106D01*
X173079927Y-85731129D01*
X173024078Y-85559244D01*
X172942028Y-85398212D01*
X172931057Y-85383112D01*
X172835803Y-85252003D01*
X172707996Y-85124196D01*
X172561791Y-85017974D01*
X172561790Y-85017973D01*
X172561788Y-85017972D01*
X172400756Y-84935922D01*
X172228871Y-84880073D01*
X172228869Y-84880072D01*
X172228867Y-84880072D01*
X172075790Y-84855827D01*
X172050365Y-84851800D01*
X171869635Y-84851800D01*
X171844210Y-84855827D01*
X171691132Y-84880072D01*
X171691129Y-84880073D01*
X171538640Y-84929620D01*
X171519241Y-84935923D01*
X171358208Y-85017974D01*
X171212003Y-85124196D01*
X171084196Y-85252003D01*
X170977974Y-85398208D01*
X170895923Y-85559241D01*
X170840072Y-85731132D01*
X170814000Y-85895744D01*
X170811800Y-85909635D01*
X170811800Y-86090365D01*
X170814000Y-86104254D01*
X170840053Y-86268750D01*
X170840073Y-86268871D01*
X170895860Y-86440566D01*
X170895923Y-86440758D01*
X170977971Y-86601787D01*
X171067088Y-86724447D01*
X171090567Y-86790254D01*
X171074741Y-86858308D01*
X171054450Y-86885013D01*
X166100881Y-91838583D01*
X166039558Y-91872068D01*
X165969866Y-91867084D01*
X165913933Y-91825212D01*
X165889516Y-91759748D01*
X165889200Y-91750902D01*
X165889200Y-86688608D01*
X165908885Y-86621569D01*
X165925519Y-86600927D01*
X166486300Y-86040145D01*
X166486300Y-86051832D01*
X166513130Y-86151962D01*
X166564962Y-86241737D01*
X166638263Y-86315038D01*
X166728038Y-86366870D01*
X166828168Y-86393700D01*
X166839853Y-86393700D01*
X166263112Y-86970438D01*
X166263112Y-86970439D01*
X166278477Y-86981602D01*
X166439433Y-87063613D01*
X166611249Y-87119440D01*
X166789669Y-87147700D01*
X166970331Y-87147700D01*
X167148750Y-87119440D01*
X167320566Y-87063613D01*
X167481528Y-86981599D01*
X167481532Y-86981597D01*
X167496886Y-86970440D01*
X167496887Y-86970439D01*
X166920148Y-86393700D01*
X166931832Y-86393700D01*
X167031962Y-86366870D01*
X167121737Y-86315038D01*
X167195038Y-86241737D01*
X167246870Y-86151962D01*
X167273700Y-86051832D01*
X167273700Y-86040147D01*
X167850440Y-86616887D01*
X167850440Y-86616886D01*
X167861597Y-86601532D01*
X167861599Y-86601528D01*
X167943613Y-86440566D01*
X167999440Y-86268750D01*
X168025747Y-86102659D01*
X168025747Y-85909635D01*
X168271800Y-85909635D01*
X168271800Y-86090365D01*
X168273747Y-86102657D01*
X168273747Y-86102658D01*
X168300053Y-86268750D01*
X168300073Y-86268871D01*
X168355922Y-86440756D01*
X168437971Y-86601787D01*
X168437974Y-86601791D01*
X168544196Y-86747996D01*
X168672003Y-86875803D01*
X168795134Y-86965261D01*
X168818212Y-86982028D01*
X168979244Y-87064078D01*
X169151129Y-87119927D01*
X169329635Y-87148200D01*
X169329636Y-87148200D01*
X169510364Y-87148200D01*
X169510365Y-87148200D01*
X169688871Y-87119927D01*
X169860756Y-87064078D01*
X170021788Y-86982028D01*
X170155528Y-86884861D01*
X170167996Y-86875803D01*
X170167998Y-86875800D01*
X170168002Y-86875798D01*
X170295798Y-86748002D01*
X170295800Y-86747998D01*
X170295803Y-86747996D01*
X170351632Y-86671153D01*
X170402028Y-86601788D01*
X170484078Y-86440756D01*
X170539927Y-86268871D01*
X170568200Y-86090365D01*
X170568200Y-85909635D01*
X170565383Y-85891852D01*
X170545942Y-85769106D01*
X170539927Y-85731129D01*
X170484078Y-85559244D01*
X170402028Y-85398212D01*
X170391057Y-85383112D01*
X170295803Y-85252003D01*
X170167996Y-85124196D01*
X170021791Y-85017974D01*
X170021790Y-85017973D01*
X170021788Y-85017972D01*
X169860756Y-84935922D01*
X169688871Y-84880073D01*
X169688869Y-84880072D01*
X169688867Y-84880072D01*
X169535790Y-84855827D01*
X169510365Y-84851800D01*
X169329635Y-84851800D01*
X169304210Y-84855827D01*
X169151132Y-84880072D01*
X169151129Y-84880073D01*
X168998640Y-84929620D01*
X168979241Y-84935923D01*
X168818208Y-85017974D01*
X168672003Y-85124196D01*
X168544196Y-85252003D01*
X168437974Y-85398208D01*
X168355923Y-85559241D01*
X168300072Y-85731132D01*
X168273747Y-85897340D01*
X168271800Y-85909635D01*
X168025747Y-85909635D01*
X168025747Y-85897339D01*
X167999440Y-85731249D01*
X167943613Y-85559433D01*
X167861602Y-85398477D01*
X167850439Y-85383112D01*
X167850438Y-85383112D01*
X167273700Y-85959851D01*
X167273700Y-85948168D01*
X167246870Y-85848038D01*
X167195038Y-85758263D01*
X167121737Y-85684962D01*
X167031962Y-85633130D01*
X166931832Y-85606300D01*
X166920145Y-85606300D01*
X167496886Y-85029559D01*
X167495869Y-85016644D01*
X167474555Y-84989003D01*
X167468574Y-84919390D01*
X167482716Y-84882015D01*
X167530577Y-84799119D01*
X167565592Y-84668441D01*
X167567807Y-84660176D01*
X167570213Y-84651195D01*
X167571500Y-84646393D01*
X167571500Y-84488278D01*
X167571500Y-82381902D01*
X167999500Y-82381902D01*
X167999500Y-82618097D01*
X168036446Y-82851368D01*
X168109433Y-83075996D01*
X168189759Y-83233643D01*
X168216657Y-83286433D01*
X168355483Y-83477510D01*
X168522490Y-83644517D01*
X168713567Y-83783343D01*
X168781803Y-83818111D01*
X168924003Y-83890566D01*
X168924005Y-83890566D01*
X168924008Y-83890568D01*
X169044412Y-83929689D01*
X169148631Y-83963553D01*
X169381903Y-84000500D01*
X169381908Y-84000500D01*
X169618097Y-84000500D01*
X169851368Y-83963553D01*
X169852870Y-83963065D01*
X170075992Y-83890568D01*
X170286433Y-83783343D01*
X170477510Y-83644517D01*
X170644517Y-83477510D01*
X170783343Y-83286433D01*
X170890568Y-83075992D01*
X170963553Y-82851368D01*
X170973248Y-82790156D01*
X171000500Y-82618097D01*
X171000500Y-82381902D01*
X170963553Y-82148631D01*
X170890566Y-81924003D01*
X170783477Y-81713830D01*
X170783343Y-81713567D01*
X170644517Y-81522490D01*
X170477510Y-81355483D01*
X170286433Y-81216657D01*
X170075996Y-81109433D01*
X169851368Y-81036446D01*
X169618097Y-80999500D01*
X169618092Y-80999500D01*
X169381908Y-80999500D01*
X169381903Y-80999500D01*
X169148631Y-81036446D01*
X168924003Y-81109433D01*
X168713566Y-81216657D01*
X168630047Y-81277338D01*
X168522490Y-81355483D01*
X168522488Y-81355485D01*
X168522487Y-81355485D01*
X168355485Y-81522487D01*
X168355485Y-81522488D01*
X168355483Y-81522490D01*
X168295862Y-81604550D01*
X168216657Y-81713566D01*
X168109433Y-81924003D01*
X168036446Y-82148631D01*
X167999500Y-82381902D01*
X167571500Y-82381902D01*
X167571500Y-78377291D01*
X167591185Y-78310252D01*
X167643989Y-78264497D01*
X167713147Y-78254553D01*
X167769808Y-78278023D01*
G37*
%TD.AperFunction*%
%TD*%
M02*
