%TF.GenerationSoftware,KiCad,Pcbnew,9.0.7-9.0.7~ubuntu24.04.1*%
%TF.CreationDate,2026-02-16T22:27:26+05:30*%
%TF.ProjectId,mudkip-themed-chaser,6d75646b-6970-42d7-9468-656d65642d63,rev?*%
%TF.SameCoordinates,Original*%
%TF.FileFunction,Copper,L1,Top*%
%TF.FilePolarity,Positive*%
%FSLAX46Y46*%
G04 Gerber Fmt 4.6, Leading zero omitted, Abs format (unit mm)*
G04 Created by KiCad (PCBNEW 9.0.7-9.0.7~ubuntu24.04.1) date 2026-02-16 22:27:26*
%MOMM*%
%LPD*%
G01*
G04 APERTURE LIST*
G04 Aperture macros list*
%AMRoundRect*
0 Rectangle with rounded corners*
0 $1 Rounding radius*
0 $2 $3 $4 $5 $6 $7 $8 $9 X,Y pos of 4 corners*
0 Add a 4 corners polygon primitive as box body*
4,1,4,$2,$3,$4,$5,$6,$7,$8,$9,$2,$3,0*
0 Add four circle primitives for the rounded corners*
1,1,$1+$1,$2,$3*
1,1,$1+$1,$4,$5*
1,1,$1+$1,$6,$7*
1,1,$1+$1,$8,$9*
0 Add four rect primitives between the rounded corners*
20,1,$1+$1,$2,$3,$4,$5,0*
20,1,$1+$1,$4,$5,$6,$7,0*
20,1,$1+$1,$6,$7,$8,$9,0*
20,1,$1+$1,$8,$9,$2,$3,0*%
G04 Aperture macros list end*
%TA.AperFunction,ComponentPad*%
%ADD10C,2.000000*%
%TD*%
%TA.AperFunction,ComponentPad*%
%ADD11R,1.800000X1.800000*%
%TD*%
%TA.AperFunction,ComponentPad*%
%ADD12C,1.800000*%
%TD*%
%TA.AperFunction,ComponentPad*%
%ADD13R,1.295400X1.295400*%
%TD*%
%TA.AperFunction,ComponentPad*%
%ADD14C,1.295400*%
%TD*%
%TA.AperFunction,ComponentPad*%
%ADD15C,1.600000*%
%TD*%
%TA.AperFunction,ComponentPad*%
%ADD16RoundRect,0.412500X-0.412500X-0.412500X0.412500X-0.412500X0.412500X0.412500X-0.412500X0.412500X0*%
%TD*%
%TA.AperFunction,ComponentPad*%
%ADD17C,1.650000*%
%TD*%
%TA.AperFunction,ComponentPad*%
%ADD18R,1.700000X1.700000*%
%TD*%
%TA.AperFunction,ComponentPad*%
%ADD19C,1.700000*%
%TD*%
%TA.AperFunction,ComponentPad*%
%ADD20RoundRect,0.250000X0.550000X0.550000X-0.550000X0.550000X-0.550000X-0.550000X0.550000X-0.550000X0*%
%TD*%
%TA.AperFunction,ComponentPad*%
%ADD21RoundRect,0.250000X-0.550000X-0.550000X0.550000X-0.550000X0.550000X0.550000X-0.550000X0.550000X0*%
%TD*%
%TA.AperFunction,ViaPad*%
%ADD22C,0.600000*%
%TD*%
%TA.AperFunction,Conductor*%
%ADD23C,0.200000*%
%TD*%
G04 APERTURE END LIST*
D10*
%TO.P,C2,1*%
%TO.N,GND*%
X164500000Y-82500000D03*
%TO.P,C2,2*%
%TO.N,Net-(U1-CONT)*%
X169500000Y-82500000D03*
%TD*%
D11*
%TO.P,D2,1,K*%
%TO.N,Net-(D1-K)*%
X163230000Y-73000000D03*
D12*
%TO.P,D2,2,A*%
%TO.N,Net-(D2-A)*%
X165770000Y-73000000D03*
%TD*%
D10*
%TO.P,C1,1*%
%TO.N,+5V*%
X161000000Y-82500000D03*
%TO.P,C1,2*%
%TO.N,GND*%
X156000000Y-82500000D03*
%TD*%
D13*
%TO.P,U2,1,Q5*%
%TO.N,Net-(D6-A)*%
X159260000Y-93620000D03*
D14*
%TO.P,U2,2,Q1*%
%TO.N,Net-(D2-A)*%
X161800000Y-93620000D03*
%TO.P,U2,3,Q0*%
%TO.N,Net-(D1-A)*%
X164340000Y-93620000D03*
%TO.P,U2,4,Q2*%
%TO.N,Net-(D3-A)*%
X166880000Y-93620000D03*
%TO.P,U2,5,Q6*%
%TO.N,Net-(D7-A)*%
X169420000Y-93620000D03*
%TO.P,U2,6,Q7*%
%TO.N,Net-(D8-A)*%
X171960000Y-93620000D03*
%TO.P,U2,7,Q3*%
%TO.N,Net-(D4-A)*%
X174500000Y-93620000D03*
%TO.P,U2,8,VSS*%
%TO.N,GND*%
X177040000Y-93620000D03*
%TO.P,U2,9,Q8*%
%TO.N,Net-(D9-A)*%
X177040000Y-86000000D03*
%TO.P,U2,10,Q4*%
%TO.N,Net-(D5-A)*%
X174500000Y-86000000D03*
%TO.P,U2,11,Q9*%
%TO.N,Net-(D10-A)*%
X171960000Y-86000000D03*
%TO.P,U2,12,Cout*%
%TO.N,unconnected-(U2-Cout-Pad12)*%
X169420000Y-86000000D03*
%TO.P,U2,13,CKEN*%
%TO.N,GND*%
X166880000Y-86000000D03*
%TO.P,U2,14,CLK*%
%TO.N,OUT*%
X164340000Y-86000000D03*
%TO.P,U2,15,Reset*%
%TO.N,GND*%
X161800000Y-86000000D03*
%TO.P,U2,16,VDD*%
X159260000Y-86000000D03*
%TD*%
D11*
%TO.P,D9,1,K*%
%TO.N,Net-(D1-K)*%
X144960000Y-106000000D03*
D12*
%TO.P,D9,2,A*%
%TO.N,Net-(D9-A)*%
X147500000Y-106000000D03*
%TD*%
D11*
%TO.P,D1,1,K*%
%TO.N,Net-(D1-K)*%
X163460000Y-66500000D03*
D12*
%TO.P,D1,2,A*%
%TO.N,Net-(D1-A)*%
X166000000Y-66500000D03*
%TD*%
D15*
%TO.P,R1,1*%
%TO.N,Net-(U1-DISCH)*%
X173810000Y-96500000D03*
%TO.P,R1,2*%
%TO.N,+5V*%
X166190000Y-96500000D03*
%TD*%
D11*
%TO.P,D6,1,K*%
%TO.N,Net-(D1-K)*%
X164230000Y-103000000D03*
D12*
%TO.P,D6,2,A*%
%TO.N,Net-(D6-A)*%
X166770000Y-103000000D03*
%TD*%
D11*
%TO.P,D5,1,K*%
%TO.N,Net-(D1-K)*%
X179960000Y-90000000D03*
D12*
%TO.P,D5,2,A*%
%TO.N,Net-(D5-A)*%
X182500000Y-90000000D03*
%TD*%
D16*
%TO.P,RV1,1,1*%
%TO.N,Net-(U1-DISCH)*%
X134420000Y-105500000D03*
D17*
%TO.P,RV1,2,2*%
X136960000Y-105500000D03*
%TO.P,RV1,3,3*%
%TO.N,TR*%
X139500000Y-105500000D03*
%TD*%
D11*
%TO.P,D10,1,K*%
%TO.N,Net-(D1-K)*%
X174960000Y-81500000D03*
D12*
%TO.P,D10,2,A*%
%TO.N,Net-(D10-A)*%
X177500000Y-81500000D03*
%TD*%
D18*
%TO.P,J1,1,Pin_1*%
%TO.N,+5V*%
X151460000Y-108500000D03*
D19*
%TO.P,J1,2,Pin_2*%
%TO.N,GND*%
X154000000Y-108500000D03*
%TD*%
D11*
%TO.P,D3,1,K*%
%TO.N,Net-(D1-K)*%
X156730000Y-77500000D03*
D12*
%TO.P,D3,2,A*%
%TO.N,Net-(D3-A)*%
X159270000Y-77500000D03*
%TD*%
D15*
%TO.P,R2,1*%
%TO.N,Net-(D1-K)*%
X155880000Y-97500000D03*
%TO.P,R2,2*%
%TO.N,GND*%
X163500000Y-97500000D03*
%TD*%
D11*
%TO.P,D4,1,K*%
%TO.N,Net-(D1-K)*%
X169000000Y-77000000D03*
D12*
%TO.P,D4,2,A*%
%TO.N,Net-(D4-A)*%
X171540000Y-77000000D03*
%TD*%
D11*
%TO.P,D8,1,K*%
%TO.N,Net-(D1-K)*%
X149730000Y-101000000D03*
D12*
%TO.P,D8,2,A*%
%TO.N,Net-(D8-A)*%
X152270000Y-101000000D03*
%TD*%
D11*
%TO.P,D7,1,K*%
%TO.N,Net-(D1-K)*%
X156730000Y-104500000D03*
D12*
%TO.P,D7,2,A*%
%TO.N,Net-(D7-A)*%
X159270000Y-104500000D03*
%TD*%
D20*
%TO.P,U1,1,GND*%
%TO.N,GND*%
X156305000Y-94060000D03*
D15*
%TO.P,U1,2,TRIG*%
%TO.N,TR*%
X156305000Y-91520000D03*
%TO.P,U1,3,OUT*%
%TO.N,OUT*%
X156305000Y-88980000D03*
%TO.P,U1,4,~{RST}*%
%TO.N,+5V*%
X156305000Y-86440000D03*
%TO.P,U1,5,CONT*%
%TO.N,Net-(U1-CONT)*%
X148685000Y-86440000D03*
%TO.P,U1,6,THRES*%
%TO.N,TR*%
X148685000Y-88980000D03*
%TO.P,U1,7,DISCH*%
%TO.N,Net-(U1-DISCH)*%
X148685000Y-91520000D03*
%TO.P,U1,8,VCC*%
%TO.N,+5V*%
X148685000Y-94060000D03*
%TD*%
D21*
%TO.P,C4,1*%
%TO.N,TR*%
X163500000Y-60000000D03*
D15*
%TO.P,C4,2*%
%TO.N,GND*%
X165500000Y-60000000D03*
%TD*%
D22*
%TO.N,+5V*%
X155250000Y-99250000D03*
X150750000Y-102500000D03*
%TO.N,TR*%
X149250000Y-99500000D03*
%TO.N,Net-(D6-A)*%
X165750000Y-99500000D03*
%TO.N,GND*%
X170201000Y-89436227D03*
%TO.N,Net-(D8-A)*%
X170000000Y-97250000D03*
%TD*%
D23*
%TO.N,+5V*%
X153226000Y-98601000D02*
X155250000Y-98601000D01*
X151460000Y-108500000D02*
X150750000Y-107790000D01*
X150750000Y-107790000D02*
X150750000Y-102500000D01*
X155250000Y-99250000D02*
X155250000Y-98601000D01*
%TO.N,TR*%
X149250000Y-99500000D02*
X148325000Y-99500000D01*
X148325000Y-99500000D02*
X147826265Y-99998735D01*
%TO.N,Net-(D6-A)*%
X167291000Y-97959000D02*
X165750000Y-99500000D01*
X167291000Y-96043950D02*
X167291000Y-97959000D01*
X166646050Y-95399000D02*
X167291000Y-96043950D01*
X161039000Y-95399000D02*
X166646050Y-95399000D01*
X159260000Y-93620000D02*
X161039000Y-95399000D01*
%TO.N,GND*%
X156305000Y-94060000D02*
X159745000Y-97500000D01*
X159745000Y-97500000D02*
X163500000Y-97500000D01*
X166880000Y-86115227D02*
X170201000Y-89436227D01*
X166880000Y-86000000D02*
X166880000Y-86115227D01*
%TO.N,Net-(D8-A)*%
X165569000Y-101681000D02*
X170000000Y-97250000D01*
X163931000Y-105701000D02*
X165569000Y-104063000D01*
X165569000Y-104063000D02*
X165569000Y-101681000D01*
X152270000Y-102442000D02*
X155529000Y-105701000D01*
X155529000Y-105701000D02*
X163931000Y-105701000D01*
X152270000Y-101000000D02*
X152270000Y-102442000D01*
%TO.N,Net-(D1-K)*%
X163230000Y-73000000D02*
X167230000Y-77000000D01*
X167230000Y-77000000D02*
X169000000Y-77000000D01*
X163230000Y-73000000D02*
X163230000Y-66730000D01*
X163230000Y-66730000D02*
X163460000Y-66500000D01*
X156730000Y-77500000D02*
X161230000Y-73000000D01*
X161230000Y-73000000D02*
X163230000Y-73000000D01*
%TO.N,GND*%
X166880000Y-86000000D02*
X166880000Y-84880000D01*
X166880000Y-84880000D02*
X164500000Y-82500000D01*
X159260000Y-86000000D02*
X161800000Y-86000000D01*
X164500000Y-82500000D02*
X161800000Y-85200000D01*
X161800000Y-85200000D02*
X161800000Y-86000000D01*
%TO.N,Net-(D1-K)*%
X149730000Y-101000000D02*
X149730000Y-101230000D01*
X149730000Y-101230000D02*
X144960000Y-106000000D01*
X156730000Y-104500000D02*
X156730000Y-103400000D01*
X156730000Y-103400000D02*
X153129000Y-99799000D01*
X153129000Y-99799000D02*
X150931000Y-99799000D01*
X150931000Y-99799000D02*
X149730000Y-101000000D01*
X164230000Y-103000000D02*
X158230000Y-103000000D01*
X158230000Y-103000000D02*
X156730000Y-104500000D01*
%TO.N,Net-(U1-DISCH)*%
X134420000Y-105500000D02*
X136960000Y-105500000D01*
X173810000Y-96500000D02*
X168418335Y-96500000D01*
X168418335Y-96500000D02*
X165931300Y-94012965D01*
X165931300Y-94012965D02*
X165931300Y-93869635D01*
X165931300Y-93869635D02*
X164682665Y-92621000D01*
X164682665Y-92621000D02*
X149786000Y-92621000D01*
X149786000Y-92621000D02*
X148685000Y-91520000D01*
%TO.N,Net-(D5-A)*%
X182500000Y-90000000D02*
X181250000Y-88750000D01*
X181250000Y-88750000D02*
X177250000Y-88750000D01*
X177250000Y-88750000D02*
X174500000Y-86000000D01*
%TO.N,Net-(D10-A)*%
X177500000Y-81500000D02*
X177500000Y-80227208D01*
X177500000Y-80227208D02*
X173071792Y-75799000D01*
X171042529Y-75799000D02*
X170339000Y-76502529D01*
X171960000Y-79118471D02*
X171960000Y-86000000D01*
X173071792Y-75799000D02*
X171042529Y-75799000D01*
X170339000Y-77497471D02*
X171960000Y-79118471D01*
X170339000Y-76502529D02*
X170339000Y-77497471D01*
%TO.N,Net-(D4-A)*%
X171540000Y-77000000D02*
X173551300Y-79011300D01*
X173551300Y-79011300D02*
X173551300Y-92671300D01*
X173551300Y-92671300D02*
X174500000Y-93620000D01*
%TO.N,Net-(D3-A)*%
X159270000Y-77500000D02*
X166339892Y-77500000D01*
X166339892Y-77500000D02*
X170801000Y-81961108D01*
X170801000Y-81961108D02*
X170801000Y-89699000D01*
X170801000Y-89699000D02*
X166880000Y-93620000D01*
%TO.N,+5V*%
X156305000Y-86440000D02*
X160245000Y-82500000D01*
X160245000Y-82500000D02*
X161000000Y-82500000D01*
%TO.N,Net-(U1-CONT)*%
X148685000Y-86440000D02*
X153926000Y-81199000D01*
X153926000Y-81199000D02*
X168199000Y-81199000D01*
X168199000Y-81199000D02*
X169500000Y-82500000D01*
%TO.N,+5V*%
X148685000Y-94060000D02*
X153226000Y-98601000D01*
X155250000Y-98601000D02*
X164089000Y-98601000D01*
X164089000Y-98601000D02*
X166190000Y-96500000D01*
%TO.N,OUT*%
X156305000Y-88980000D02*
X161360000Y-88980000D01*
X161360000Y-88980000D02*
X164340000Y-86000000D01*
%TO.N,+5V*%
X148685000Y-94060000D02*
X147584000Y-92959000D01*
X147584000Y-92959000D02*
X147584000Y-88523950D01*
X147584000Y-88523950D02*
X148357950Y-87750000D01*
X148357950Y-87750000D02*
X154995000Y-87750000D01*
X154995000Y-87750000D02*
X156305000Y-86440000D01*
%TO.N,GND*%
X156305000Y-82805000D02*
X156000000Y-82500000D01*
%TO.N,TR*%
X147826265Y-99998735D02*
X147826265Y-101474603D01*
X147826265Y-101474603D02*
X144800868Y-104500000D01*
X144800868Y-104500000D02*
X140500000Y-104500000D01*
X140500000Y-104500000D02*
X139500000Y-105500000D01*
X148685000Y-88980000D02*
X153765000Y-88980000D01*
X153765000Y-88980000D02*
X156305000Y-91520000D01*
%TD*%
M02*
