M48
; DRILL file {KiCad 9.0.7-9.0.7~ubuntu24.04.1} date 2026-02-18T21:27:51+0530
; FORMAT={-:-/ absolute / metric / decimal}
; #@! TF.CreationDate,2026-02-18T21:27:51+05:30
; #@! TF.GenerationSoftware,Kicad,Pcbnew,9.0.7-9.0.7~ubuntu24.04.1
; #@! TF.FileFunction,Plated,1,2,PTH
FMAT,2
METRIC
; #@! TA.AperFunction,Plated,PTH,ViaDrill
T1C0.300
; #@! TA.AperFunction,Plated,PTH,ComponentDrill
T2C0.787
; #@! TA.AperFunction,Plated,PTH,ComponentDrill
T3C0.800
; #@! TA.AperFunction,Plated,PTH,ComponentDrill
T4C0.850
; #@! TA.AperFunction,Plated,PTH,ComponentDrill
T5C0.900
; #@! TA.AperFunction,Plated,PTH,ComponentDrill
T6C1.000
%
G90
G05
T1
X149.25Y-99.5
X150.75Y-102.5
X155.25Y-99.25
X165.75Y-99.5
X170.0Y-97.25
X170.201Y-89.436
T2
X159.26Y-86.0
X159.26Y-93.62
X161.8Y-86.0
X161.8Y-93.62
X164.34Y-86.0
X164.34Y-93.62
X166.88Y-86.0
X166.88Y-93.62
X169.42Y-86.0
X169.42Y-93.62
X171.96Y-86.0
X171.96Y-93.62
X174.5Y-86.0
X174.5Y-93.62
X177.04Y-86.0
X177.04Y-93.62
T3
X148.685Y-86.44
X148.685Y-88.98
X148.685Y-91.52
X148.685Y-94.06
X155.88Y-97.5
X156.305Y-86.44
X156.305Y-88.98
X156.305Y-91.52
X156.305Y-94.06
X163.5Y-60.0
X163.5Y-97.5
X165.5Y-60.0
X166.19Y-96.5
X173.81Y-96.5
T4
X134.42Y-105.5
X136.96Y-105.5
X139.5Y-105.5
T5
X144.96Y-106.0
X147.5Y-106.0
X149.73Y-101.0
X152.27Y-101.0
X156.73Y-77.5
X156.73Y-104.5
X159.27Y-77.5
X159.27Y-104.5
X163.23Y-73.0
X163.46Y-66.5
X164.23Y-103.0
X165.77Y-73.0
X166.0Y-66.5
X166.77Y-103.0
X169.0Y-77.0
X171.54Y-77.0
X174.96Y-81.5
X177.5Y-81.5
X179.96Y-90.0
X182.5Y-90.0
T6
X151.46Y-108.5
X154.0Y-108.5
X156.0Y-82.5
X161.0Y-82.5
X164.5Y-82.5
X169.5Y-82.5
M30
