%TF.GenerationSoftware,KiCad,Pcbnew,9.0.7-9.0.7~ubuntu24.04.1*%
%TF.CreationDate,2026-02-16T22:27:27+05:30*%
%TF.ProjectId,mudkip-themed-chaser,6d75646b-6970-42d7-9468-656d65642d63,rev?*%
%TF.SameCoordinates,Original*%
%TF.FileFunction,Soldermask,Top*%
%TF.FilePolarity,Negative*%
%FSLAX46Y46*%
G04 Gerber Fmt 4.6, Leading zero omitted, Abs format (unit mm)*
G04 Created by KiCad (PCBNEW 9.0.7-9.0.7~ubuntu24.04.1) date 2026-02-16 22:27:27*
%MOMM*%
%LPD*%
G01*
G04 APERTURE LIST*
G04 Aperture macros list*
%AMRoundRect*
0 Rectangle with rounded corners*
0 $1 Rounding radius*
0 $2 $3 $4 $5 $6 $7 $8 $9 X,Y pos of 4 corners*
0 Add a 4 corners polygon primitive as box body*
4,1,4,$2,$3,$4,$5,$6,$7,$8,$9,$2,$3,0*
0 Add four circle primitives for the rounded corners*
1,1,$1+$1,$2,$3*
1,1,$1+$1,$4,$5*
1,1,$1+$1,$6,$7*
1,1,$1+$1,$8,$9*
0 Add four rect primitives between the rounded corners*
20,1,$1+$1,$2,$3,$4,$5,0*
20,1,$1+$1,$4,$5,$6,$7,0*
20,1,$1+$1,$6,$7,$8,$9,0*
20,1,$1+$1,$8,$9,$2,$3,0*%
G04 Aperture macros list end*
%ADD10C,2.000000*%
%ADD11R,1.800000X1.800000*%
%ADD12C,1.800000*%
%ADD13R,1.295400X1.295400*%
%ADD14C,1.295400*%
%ADD15C,1.600000*%
%ADD16RoundRect,0.412500X-0.412500X-0.412500X0.412500X-0.412500X0.412500X0.412500X-0.412500X0.412500X0*%
%ADD17C,1.650000*%
%ADD18R,1.700000X1.700000*%
%ADD19C,1.700000*%
%ADD20RoundRect,0.250000X0.550000X0.550000X-0.550000X0.550000X-0.550000X-0.550000X0.550000X-0.550000X0*%
%ADD21RoundRect,0.250000X-0.550000X-0.550000X0.550000X-0.550000X0.550000X0.550000X-0.550000X0.550000X0*%
G04 APERTURE END LIST*
D10*
%TO.C,C2*%
X164500000Y-82500000D03*
X169500000Y-82500000D03*
%TD*%
D11*
%TO.C,D2*%
X163230000Y-73000000D03*
D12*
X165770000Y-73000000D03*
%TD*%
D10*
%TO.C,C1*%
X161000000Y-82500000D03*
X156000000Y-82500000D03*
%TD*%
D13*
%TO.C,U2*%
X159260000Y-93620000D03*
D14*
X161800000Y-93620000D03*
X164340000Y-93620000D03*
X166880000Y-93620000D03*
X169420000Y-93620000D03*
X171960000Y-93620000D03*
X174500000Y-93620000D03*
X177040000Y-93620000D03*
X177040000Y-86000000D03*
X174500000Y-86000000D03*
X171960000Y-86000000D03*
X169420000Y-86000000D03*
X166880000Y-86000000D03*
X164340000Y-86000000D03*
X161800000Y-86000000D03*
X159260000Y-86000000D03*
%TD*%
D11*
%TO.C,D9*%
X144960000Y-106000000D03*
D12*
X147500000Y-106000000D03*
%TD*%
D11*
%TO.C,D1*%
X163460000Y-66500000D03*
D12*
X166000000Y-66500000D03*
%TD*%
D15*
%TO.C,R1*%
X173810000Y-96500000D03*
X166190000Y-96500000D03*
%TD*%
D11*
%TO.C,D6*%
X164230000Y-103000000D03*
D12*
X166770000Y-103000000D03*
%TD*%
D11*
%TO.C,D5*%
X179960000Y-90000000D03*
D12*
X182500000Y-90000000D03*
%TD*%
D16*
%TO.C,RV1*%
X134420000Y-105500000D03*
D17*
X136960000Y-105500000D03*
X139500000Y-105500000D03*
%TD*%
D11*
%TO.C,D10*%
X174960000Y-81500000D03*
D12*
X177500000Y-81500000D03*
%TD*%
D18*
%TO.C,J1*%
X151460000Y-108500000D03*
D19*
X154000000Y-108500000D03*
%TD*%
D11*
%TO.C,D3*%
X156730000Y-77500000D03*
D12*
X159270000Y-77500000D03*
%TD*%
D15*
%TO.C,R2*%
X155880000Y-97500000D03*
X163500000Y-97500000D03*
%TD*%
D11*
%TO.C,D4*%
X169000000Y-77000000D03*
D12*
X171540000Y-77000000D03*
%TD*%
D11*
%TO.C,D8*%
X149730000Y-101000000D03*
D12*
X152270000Y-101000000D03*
%TD*%
D11*
%TO.C,D7*%
X156730000Y-104500000D03*
D12*
X159270000Y-104500000D03*
%TD*%
D20*
%TO.C,U1*%
X156305000Y-94060000D03*
D15*
X156305000Y-91520000D03*
X156305000Y-88980000D03*
X156305000Y-86440000D03*
X148685000Y-86440000D03*
X148685000Y-88980000D03*
X148685000Y-91520000D03*
X148685000Y-94060000D03*
%TD*%
D21*
%TO.C,C4*%
X163500000Y-60000000D03*
D15*
X165500000Y-60000000D03*
%TD*%
M02*
